%TF.GenerationSoftware,KiCad,Pcbnew,9.0.2*%
%TF.CreationDate,2025-06-03T00:46:39+06:00*%
%TF.ProjectId,OPI CM5 Blade board,4f504920-434d-4352-9042-6c6164652062,rev?*%
%TF.SameCoordinates,Original*%
%TF.FileFunction,Copper,L3,Inr*%
%TF.FilePolarity,Positive*%
%FSLAX46Y46*%
G04 Gerber Fmt 4.6, Leading zero omitted, Abs format (unit mm)*
G04 Created by KiCad (PCBNEW 9.0.2) date 2025-06-03 00:46:39*
%MOMM*%
%LPD*%
G01*
G04 APERTURE LIST*
%TA.AperFunction,ComponentPad*%
%ADD10C,4.700000*%
%TD*%
%TA.AperFunction,ComponentPad*%
%ADD11C,7.400000*%
%TD*%
%TA.AperFunction,ViaPad*%
%ADD12C,0.600000*%
%TD*%
%TA.AperFunction,ViaPad*%
%ADD13C,0.300000*%
%TD*%
G04 APERTURE END LIST*
D10*
%TO.N,unconnected-(H2-Pad1)*%
%TO.C,H2*%
X191673230Y-66294508D03*
%TD*%
D11*
%TO.N,GND*%
%TO.C,J5*%
X64636500Y-46482000D03*
%TD*%
D10*
%TO.N,unconnected-(H3-Pad1)*%
%TO.C,H3*%
X191673230Y-33294828D03*
%TD*%
%TO.N,unconnected-(H4-Pad1)*%
%TO.C,H4*%
X239674150Y-33294828D03*
%TD*%
%TO.N,unconnected-(H1-Pad1)*%
%TO.C,H1*%
X239674150Y-66294508D03*
%TD*%
D12*
%TO.N,GND*%
X38957000Y-52832000D03*
X41751000Y-57531000D03*
X149828000Y-55753000D03*
X191103000Y-48733003D03*
X251682000Y-66548000D03*
X252317000Y-61414000D03*
X191103000Y-54483000D03*
X217265000Y-32512000D03*
X250539000Y-60833000D03*
X146907000Y-39243000D03*
X189960000Y-48133000D03*
X214852000Y-67310000D03*
X216779506Y-30348910D03*
X272383000Y-59837100D03*
X208502000Y-67310000D03*
X262350000Y-61414000D03*
X213179504Y-30348909D03*
X146907000Y-42164000D03*
X160496000Y-35433000D03*
X38957000Y-57531000D03*
X214379506Y-30348911D03*
X166084000Y-43942000D03*
X210785076Y-30343551D03*
X149320000Y-55245000D03*
X189960000Y-59182000D03*
X169894000Y-36449000D03*
X46704000Y-52705000D03*
X210788000Y-67310000D03*
X227579546Y-30348912D03*
X221234009Y-64348839D03*
X208502000Y-65913000D03*
X48355000Y-40259000D03*
X212693000Y-67310000D03*
X221558269Y-33409320D03*
X272383000Y-57837100D03*
X38195000Y-32004000D03*
X147415000Y-57785000D03*
X273399000Y-59837100D03*
X45180000Y-52705000D03*
X274415000Y-59837100D03*
X218789000Y-68961000D03*
X191375310Y-42183000D03*
X261334000Y-67995800D03*
X216433981Y-64348859D03*
X138017000Y-60452000D03*
X149320000Y-54229000D03*
X272383000Y-50837100D03*
X162274000Y-39243000D03*
X216757000Y-33401000D03*
X273266900Y-47832000D03*
X41751000Y-52832000D03*
X146907000Y-37211000D03*
X209518000Y-65913000D03*
X189960000Y-48895000D03*
X220379548Y-33428910D03*
X223828813Y-30223186D03*
X229838000Y-34736671D03*
X38195000Y-41910000D03*
X209579502Y-30348907D03*
X272383000Y-62832000D03*
X225179525Y-34736651D03*
X147415000Y-35179000D03*
X225063035Y-31779393D03*
X46704000Y-43307000D03*
X191103000Y-56896000D03*
X272250900Y-47832000D03*
X247237000Y-31877000D03*
X45180000Y-43307000D03*
X146907000Y-43688000D03*
X220059000Y-68961000D03*
X39084000Y-48133000D03*
X146907000Y-49784000D03*
X189960000Y-52686000D03*
X273399000Y-62832000D03*
X226379549Y-34736671D03*
X46577000Y-68580000D03*
X222833972Y-64348850D03*
X212312000Y-65913000D03*
X171291000Y-40132000D03*
X45180000Y-48006000D03*
X223107000Y-30225788D03*
X191103000Y-55499000D03*
X191103000Y-52451000D03*
X268446000Y-54483000D03*
X221202000Y-68961000D03*
X218433992Y-64348856D03*
X45180000Y-57404000D03*
X221579513Y-31656663D03*
X215579551Y-33428907D03*
X38195000Y-38608000D03*
X216152423Y-66705423D03*
X274415000Y-62832000D03*
X48355000Y-36957000D03*
X210779525Y-33428929D03*
X189960000Y-43326000D03*
X146399000Y-37719000D03*
X145637000Y-36195000D03*
X149828000Y-54737000D03*
X215579532Y-30348926D03*
X191357000Y-46101000D03*
X227579546Y-34736667D03*
X220034002Y-64348845D03*
X189960000Y-42183000D03*
X41751000Y-43434000D03*
X46704000Y-48006000D03*
X189960000Y-44596000D03*
X145637000Y-56896000D03*
X38195000Y-35306000D03*
X227637177Y-64345744D03*
X210788000Y-65913000D03*
X172434000Y-36449000D03*
X191103000Y-57912000D03*
X146907000Y-51181000D03*
X149193000Y-56896000D03*
X189830987Y-41040000D03*
X214433980Y-64348858D03*
X41624000Y-64516000D03*
X209645000Y-67310000D03*
X189960000Y-50800000D03*
X265017000Y-65913000D03*
X222345000Y-68961000D03*
X149066000Y-36195000D03*
X146907000Y-46755000D03*
X222779537Y-33428921D03*
X48355000Y-33655000D03*
X211979527Y-30348931D03*
X209579544Y-33428914D03*
X160496000Y-40132000D03*
X273399000Y-50837100D03*
X191103000Y-59182000D03*
X274282900Y-47832000D03*
X169259000Y-42418000D03*
X191086998Y-50124995D03*
X38957000Y-43434000D03*
X263112000Y-65963800D03*
X213179528Y-33428931D03*
X146907000Y-45212000D03*
X219176660Y-30346126D03*
X137657500Y-32385000D03*
X220379527Y-31656649D03*
X162274000Y-36449000D03*
X42640000Y-64516000D03*
X189960000Y-45739000D03*
X173323000Y-40132000D03*
X146907000Y-48260000D03*
X214379527Y-33428931D03*
X274415000Y-57837100D03*
X46704000Y-57404000D03*
X274415000Y-50837100D03*
X146907000Y-40640000D03*
X189960000Y-46863000D03*
X226379546Y-30348912D03*
X191230000Y-41040000D03*
X273399000Y-57837100D03*
X189960000Y-54737000D03*
X223979502Y-34736673D03*
X262985000Y-61414000D03*
X229584000Y-30861000D03*
X41624000Y-48133000D03*
X211979512Y-33428916D03*
X189960000Y-57277000D03*
X191357000Y-43326000D03*
%TO.N,+12V*%
X251682000Y-69723000D03*
X252444000Y-68961000D03*
X253206000Y-68961000D03*
X253968000Y-69723000D03*
X250920000Y-69723000D03*
X253206000Y-69723000D03*
X250920000Y-68961000D03*
X252444000Y-69723000D03*
X253968000Y-68961000D03*
X251682000Y-68961000D03*
D13*
%TO.N,/UART2_RX*%
X217646000Y-67187000D03*
D12*
%TO.N,/PMIC_RESET_L*%
X270986000Y-50800000D03*
D13*
X226409000Y-64389000D03*
%TO.N,/UART2_TX*%
X219233985Y-67187000D03*
D12*
%TO.N,/M.2_ACT*%
X141631101Y-39482000D03*
X133572000Y-39370000D03*
%TD*%
%TA.AperFunction,Conductor*%
%TO.N,GND*%
G36*
X271367015Y-28362717D02*
G01*
X271379815Y-28363382D01*
X271502267Y-28376122D01*
X271527369Y-28381401D01*
X271528997Y-28381924D01*
X271638425Y-28417087D01*
X271661902Y-28427418D01*
X271749763Y-28477511D01*
X271763232Y-28485190D01*
X271784083Y-28500132D01*
X271871359Y-28577519D01*
X271888689Y-28596432D01*
X271958175Y-28690125D01*
X271971241Y-28712196D01*
X272019957Y-28818174D01*
X272028204Y-28842467D01*
X272054072Y-28956211D01*
X272057142Y-28981681D01*
X272058648Y-29073742D01*
X272058392Y-29076606D01*
X272058500Y-29076606D01*
X272058500Y-29114505D01*
X272058028Y-29125313D01*
X272055786Y-29150927D01*
X272057117Y-29163071D01*
X272056122Y-29163179D01*
X272058500Y-29178621D01*
X272058500Y-32221883D01*
X272087408Y-32291672D01*
X272089024Y-32295574D01*
X272145426Y-32351976D01*
X272219118Y-32382500D01*
X272298882Y-32382500D01*
X280024588Y-32382500D01*
X280091627Y-32402185D01*
X280112269Y-32418819D01*
X280422181Y-32728731D01*
X280455666Y-32790054D01*
X280458500Y-32816412D01*
X280458500Y-52747588D01*
X280438815Y-52814627D01*
X280422181Y-52835269D01*
X280112269Y-53145181D01*
X280050946Y-53178666D01*
X280024588Y-53181500D01*
X273108341Y-53181500D01*
X272910091Y-53216456D01*
X272720922Y-53285309D01*
X272720915Y-53285312D01*
X272546578Y-53385965D01*
X272546574Y-53385968D01*
X272392366Y-53515366D01*
X272262968Y-53669574D01*
X272262965Y-53669578D01*
X272162312Y-53843915D01*
X272162309Y-53843922D01*
X272093456Y-54033091D01*
X272058500Y-54231341D01*
X272058500Y-54432658D01*
X272093456Y-54630908D01*
X272162309Y-54820077D01*
X272162312Y-54820084D01*
X272262965Y-54994421D01*
X272262968Y-54994425D01*
X272294930Y-55032515D01*
X272392366Y-55148634D01*
X272546579Y-55278035D01*
X272720920Y-55378690D01*
X272910091Y-55447543D01*
X273108344Y-55482500D01*
X273169118Y-55482500D01*
X280024588Y-55482500D01*
X280091627Y-55502185D01*
X280112269Y-55518819D01*
X280422181Y-55828731D01*
X280455666Y-55890054D01*
X280458500Y-55916412D01*
X280458500Y-65847588D01*
X280438815Y-65914627D01*
X280422181Y-65935269D01*
X280112269Y-66245181D01*
X280050946Y-66278666D01*
X280024588Y-66281500D01*
X275098194Y-66281500D01*
X275031155Y-66261815D01*
X274985400Y-66209011D01*
X274975456Y-66139853D01*
X274988835Y-66099048D01*
X274991461Y-66094133D01*
X274991465Y-66094127D01*
X275040501Y-65975744D01*
X275065500Y-65850069D01*
X275065500Y-65721931D01*
X275065500Y-65721928D01*
X275040502Y-65596261D01*
X275040501Y-65596260D01*
X275040501Y-65596256D01*
X274991465Y-65477873D01*
X274946374Y-65410390D01*
X274925497Y-65343714D01*
X274943981Y-65276334D01*
X274946375Y-65272609D01*
X274949121Y-65268500D01*
X274991465Y-65205127D01*
X275040501Y-65086744D01*
X275054871Y-65014502D01*
X275065500Y-64961071D01*
X275065500Y-64832928D01*
X275040502Y-64707261D01*
X275040501Y-64707260D01*
X275040501Y-64707256D01*
X274991465Y-64588873D01*
X274991464Y-64588872D01*
X274991461Y-64588866D01*
X274920277Y-64482333D01*
X274920276Y-64482331D01*
X274914628Y-64476683D01*
X274881142Y-64415364D01*
X274886123Y-64345672D01*
X274914628Y-64301316D01*
X274920276Y-64295669D01*
X274991465Y-64189127D01*
X275040501Y-64070744D01*
X275056065Y-63992500D01*
X275065500Y-63945071D01*
X275065500Y-63816928D01*
X275040502Y-63691261D01*
X275040501Y-63691260D01*
X275040501Y-63691256D01*
X274991465Y-63572873D01*
X274991464Y-63572872D01*
X274991461Y-63572866D01*
X274920276Y-63466331D01*
X274920273Y-63466327D01*
X274829672Y-63375726D01*
X274829668Y-63375723D01*
X274723133Y-63304538D01*
X274723124Y-63304533D01*
X274604744Y-63255499D01*
X274604738Y-63255497D01*
X274479071Y-63230500D01*
X274479069Y-63230500D01*
X274350931Y-63230500D01*
X274350929Y-63230500D01*
X274225261Y-63255497D01*
X274225255Y-63255499D01*
X274106875Y-63304533D01*
X274106866Y-63304538D01*
X274000331Y-63375723D01*
X274000327Y-63375726D01*
X273994681Y-63381373D01*
X273933358Y-63414858D01*
X273863666Y-63409874D01*
X273819319Y-63381373D01*
X273813672Y-63375726D01*
X273813668Y-63375723D01*
X273707133Y-63304538D01*
X273707124Y-63304533D01*
X273588744Y-63255499D01*
X273588738Y-63255497D01*
X273463071Y-63230500D01*
X273463069Y-63230500D01*
X273334931Y-63230500D01*
X273334929Y-63230500D01*
X273209261Y-63255497D01*
X273209255Y-63255499D01*
X273090875Y-63304533D01*
X273090866Y-63304538D01*
X272984331Y-63375723D01*
X272984327Y-63375726D01*
X272978681Y-63381373D01*
X272917358Y-63414858D01*
X272847666Y-63409874D01*
X272803319Y-63381373D01*
X272797672Y-63375726D01*
X272797668Y-63375723D01*
X272691133Y-63304538D01*
X272691124Y-63304533D01*
X272572744Y-63255499D01*
X272572738Y-63255497D01*
X272447071Y-63230500D01*
X272447069Y-63230500D01*
X272318931Y-63230500D01*
X272318929Y-63230500D01*
X272193261Y-63255497D01*
X272193255Y-63255499D01*
X272074875Y-63304533D01*
X272074866Y-63304538D01*
X271968331Y-63375723D01*
X271968327Y-63375726D01*
X271877726Y-63466327D01*
X271877723Y-63466331D01*
X271806538Y-63572866D01*
X271806533Y-63572875D01*
X271757499Y-63691255D01*
X271757497Y-63691261D01*
X271732500Y-63816928D01*
X271732500Y-63816931D01*
X271732500Y-63945069D01*
X271732500Y-63945071D01*
X271732499Y-63945071D01*
X271757497Y-64070738D01*
X271757499Y-64070744D01*
X271806533Y-64189124D01*
X271806538Y-64189133D01*
X271877723Y-64295668D01*
X271877726Y-64295672D01*
X271883373Y-64301319D01*
X271916858Y-64362642D01*
X271911874Y-64432334D01*
X271883373Y-64476681D01*
X271877726Y-64482327D01*
X271877723Y-64482331D01*
X271806538Y-64588866D01*
X271806533Y-64588875D01*
X271757499Y-64707255D01*
X271757497Y-64707261D01*
X271732500Y-64832928D01*
X271732500Y-64832931D01*
X271732500Y-64961069D01*
X271732500Y-64961071D01*
X271732499Y-64961071D01*
X271757497Y-65086738D01*
X271757499Y-65086744D01*
X271806533Y-65205124D01*
X271806541Y-65205138D01*
X271851624Y-65272610D01*
X271872502Y-65339287D01*
X271854017Y-65406667D01*
X271851624Y-65410390D01*
X271806541Y-65477861D01*
X271806533Y-65477875D01*
X271757499Y-65596255D01*
X271757497Y-65596261D01*
X271732500Y-65721928D01*
X271732500Y-65721931D01*
X271732500Y-65850069D01*
X271732500Y-65850071D01*
X271732499Y-65850071D01*
X271757497Y-65975738D01*
X271757499Y-65975744D01*
X271806533Y-66094124D01*
X271806538Y-66094133D01*
X271877723Y-66200668D01*
X271877726Y-66200672D01*
X271968328Y-66291274D01*
X271968331Y-66291276D01*
X272005503Y-66316114D01*
X272018219Y-66331328D01*
X272034334Y-66342884D01*
X272040164Y-66357587D01*
X272050308Y-66369725D01*
X272052779Y-66389400D01*
X272060089Y-66407834D01*
X272058569Y-66435492D01*
X272059016Y-66439050D01*
X272058500Y-66441935D01*
X272058500Y-66481143D01*
X272058499Y-66481689D01*
X272044101Y-69753606D01*
X272043203Y-69767965D01*
X272027791Y-69895253D01*
X272021442Y-69922121D01*
X271980496Y-70036562D01*
X271968359Y-70061360D01*
X271903105Y-70163906D01*
X271885784Y-70185402D01*
X271799462Y-70270966D01*
X271777811Y-70288099D01*
X271674692Y-70352444D01*
X271649790Y-70364360D01*
X271534993Y-70404294D01*
X271508070Y-70410406D01*
X271380352Y-70424727D01*
X271366551Y-70425499D01*
X271337519Y-70425502D01*
X271337504Y-70425503D01*
X254692110Y-70427370D01*
X254625068Y-70407693D01*
X254579307Y-70354894D01*
X254569356Y-70285737D01*
X254588994Y-70234479D01*
X254677390Y-70102185D01*
X254677390Y-70102184D01*
X254677394Y-70102179D01*
X254737737Y-69956497D01*
X254768500Y-69801842D01*
X254768500Y-69644158D01*
X254768500Y-69644155D01*
X254768499Y-69644153D01*
X254737738Y-69489510D01*
X254737737Y-69489503D01*
X254696294Y-69389452D01*
X254688826Y-69319983D01*
X254696295Y-69294547D01*
X254700885Y-69283466D01*
X254737737Y-69194497D01*
X254768500Y-69039842D01*
X254768500Y-68882158D01*
X254768500Y-68882155D01*
X254768499Y-68882153D01*
X254750818Y-68793264D01*
X254737737Y-68727503D01*
X254737735Y-68727498D01*
X254677397Y-68581827D01*
X254677390Y-68581814D01*
X254589789Y-68450711D01*
X254589786Y-68450707D01*
X254478292Y-68339213D01*
X254478288Y-68339210D01*
X254347185Y-68251609D01*
X254347172Y-68251602D01*
X254201501Y-68191264D01*
X254201489Y-68191261D01*
X254046845Y-68160500D01*
X254046842Y-68160500D01*
X253889158Y-68160500D01*
X253889155Y-68160500D01*
X253734510Y-68191261D01*
X253734502Y-68191263D01*
X253672028Y-68217140D01*
X253634452Y-68232705D01*
X253564983Y-68240174D01*
X253539549Y-68232705D01*
X253439497Y-68191263D01*
X253439489Y-68191261D01*
X253284845Y-68160500D01*
X253284842Y-68160500D01*
X253127158Y-68160500D01*
X253127155Y-68160500D01*
X252972510Y-68191261D01*
X252972502Y-68191263D01*
X252910028Y-68217140D01*
X252872452Y-68232705D01*
X252802983Y-68240174D01*
X252777549Y-68232705D01*
X252677497Y-68191263D01*
X252677489Y-68191261D01*
X252522845Y-68160500D01*
X252522842Y-68160500D01*
X252365158Y-68160500D01*
X252365155Y-68160500D01*
X252210510Y-68191261D01*
X252210502Y-68191263D01*
X252148028Y-68217140D01*
X252110452Y-68232705D01*
X252040983Y-68240174D01*
X252015549Y-68232705D01*
X251915497Y-68191263D01*
X251915489Y-68191261D01*
X251760845Y-68160500D01*
X251760842Y-68160500D01*
X251603158Y-68160500D01*
X251603155Y-68160500D01*
X251448510Y-68191261D01*
X251448502Y-68191263D01*
X251386028Y-68217140D01*
X251348452Y-68232705D01*
X251278983Y-68240174D01*
X251253549Y-68232705D01*
X251153497Y-68191263D01*
X251153489Y-68191261D01*
X250998845Y-68160500D01*
X250998842Y-68160500D01*
X250841158Y-68160500D01*
X250841155Y-68160500D01*
X250686510Y-68191261D01*
X250686498Y-68191264D01*
X250540827Y-68251602D01*
X250540814Y-68251609D01*
X250409711Y-68339210D01*
X250409707Y-68339213D01*
X250298213Y-68450707D01*
X250298210Y-68450711D01*
X250210609Y-68581814D01*
X250210602Y-68581827D01*
X250150264Y-68727498D01*
X250150261Y-68727510D01*
X250119500Y-68882153D01*
X250119500Y-69039846D01*
X250150261Y-69194489D01*
X250150263Y-69194497D01*
X250187114Y-69283465D01*
X250191705Y-69294547D01*
X250199174Y-69364017D01*
X250191705Y-69389453D01*
X250150263Y-69489502D01*
X250150261Y-69489510D01*
X250119500Y-69644153D01*
X250119500Y-69801846D01*
X250150261Y-69956489D01*
X250150264Y-69956501D01*
X250210602Y-70102172D01*
X250210609Y-70102185D01*
X250299343Y-70234983D01*
X250320221Y-70301660D01*
X250301737Y-70369040D01*
X250249758Y-70415731D01*
X250196255Y-70427874D01*
X31026514Y-70452463D01*
X30959472Y-70432786D01*
X30913711Y-70379987D01*
X30902500Y-70328463D01*
X30902500Y-68771071D01*
X48339499Y-68771071D01*
X48364497Y-68896738D01*
X48364499Y-68896744D01*
X48413533Y-69015124D01*
X48413538Y-69015133D01*
X48484723Y-69121668D01*
X48484726Y-69121672D01*
X48575327Y-69212273D01*
X48575331Y-69212276D01*
X48681866Y-69283461D01*
X48681872Y-69283464D01*
X48681873Y-69283465D01*
X48800256Y-69332501D01*
X48800260Y-69332501D01*
X48800261Y-69332502D01*
X48925928Y-69357500D01*
X48925931Y-69357500D01*
X49054071Y-69357500D01*
X49141145Y-69340179D01*
X49179744Y-69332501D01*
X49298127Y-69283465D01*
X49404669Y-69212276D01*
X49495276Y-69121669D01*
X49566465Y-69015127D01*
X49615501Y-68896744D01*
X49636085Y-68793264D01*
X49640500Y-68771071D01*
X49640500Y-68642928D01*
X49615502Y-68517261D01*
X49615501Y-68517260D01*
X49615501Y-68517256D01*
X49566465Y-68398873D01*
X49566464Y-68398872D01*
X49566461Y-68398866D01*
X49495276Y-68292331D01*
X49495273Y-68292327D01*
X49404672Y-68201726D01*
X49404668Y-68201723D01*
X49298133Y-68130538D01*
X49298124Y-68130533D01*
X49179744Y-68081499D01*
X49179738Y-68081497D01*
X49054071Y-68056500D01*
X49054069Y-68056500D01*
X48925931Y-68056500D01*
X48925929Y-68056500D01*
X48800261Y-68081497D01*
X48800255Y-68081499D01*
X48681875Y-68130533D01*
X48681866Y-68130538D01*
X48575331Y-68201723D01*
X48575327Y-68201726D01*
X48484726Y-68292327D01*
X48484723Y-68292331D01*
X48413538Y-68398866D01*
X48413533Y-68398875D01*
X48364499Y-68517255D01*
X48364497Y-68517261D01*
X48339500Y-68642928D01*
X48339500Y-68642931D01*
X48339500Y-68771069D01*
X48339500Y-68771071D01*
X48339499Y-68771071D01*
X30902500Y-68771071D01*
X30902500Y-66134422D01*
X188822730Y-66134422D01*
X188822730Y-66454593D01*
X188858575Y-66772724D01*
X188858577Y-66772736D01*
X188929819Y-67084870D01*
X188929820Y-67084872D01*
X189035562Y-67387067D01*
X189174473Y-67675518D01*
X189187333Y-67695984D01*
X189344811Y-67946609D01*
X189544428Y-68196921D01*
X189770817Y-68423310D01*
X190021129Y-68622927D01*
X190292217Y-68793263D01*
X190580672Y-68932176D01*
X190882867Y-69037918D01*
X191195001Y-69109161D01*
X191513145Y-69145007D01*
X191513146Y-69145008D01*
X191513149Y-69145008D01*
X191833314Y-69145008D01*
X191833314Y-69145007D01*
X192151459Y-69109161D01*
X192463593Y-69037918D01*
X192765788Y-68932176D01*
X193054243Y-68793263D01*
X193325331Y-68622927D01*
X193575643Y-68423310D01*
X193802032Y-68196921D01*
X194001649Y-67946609D01*
X194171985Y-67675521D01*
X194310898Y-67387066D01*
X194358484Y-67251071D01*
X216995499Y-67251071D01*
X217020497Y-67376738D01*
X217020499Y-67376744D01*
X217069533Y-67495124D01*
X217069538Y-67495133D01*
X217140723Y-67601668D01*
X217140726Y-67601672D01*
X217231327Y-67692273D01*
X217231331Y-67692276D01*
X217337866Y-67763461D01*
X217337872Y-67763464D01*
X217337873Y-67763465D01*
X217456256Y-67812501D01*
X217456260Y-67812501D01*
X217456261Y-67812502D01*
X217581928Y-67837500D01*
X217581931Y-67837500D01*
X217710071Y-67837500D01*
X217794615Y-67820682D01*
X217835744Y-67812501D01*
X217954127Y-67763465D01*
X218060669Y-67692276D01*
X218151276Y-67601669D01*
X218222465Y-67495127D01*
X218271501Y-67376744D01*
X218295624Y-67255475D01*
X218296500Y-67251071D01*
X218583484Y-67251071D01*
X218608482Y-67376738D01*
X218608484Y-67376744D01*
X218657518Y-67495124D01*
X218657523Y-67495133D01*
X218728708Y-67601668D01*
X218728711Y-67601672D01*
X218819312Y-67692273D01*
X218819316Y-67692276D01*
X218925851Y-67763461D01*
X218925857Y-67763464D01*
X218925858Y-67763465D01*
X219044241Y-67812501D01*
X219044245Y-67812501D01*
X219044246Y-67812502D01*
X219169913Y-67837500D01*
X219169916Y-67837500D01*
X219298056Y-67837500D01*
X219382600Y-67820682D01*
X219423729Y-67812501D01*
X219542112Y-67763465D01*
X219648654Y-67692276D01*
X219739261Y-67601669D01*
X219810450Y-67495127D01*
X219859486Y-67376744D01*
X219883609Y-67255475D01*
X219884485Y-67251071D01*
X219884485Y-67122930D01*
X219882017Y-67110525D01*
X224969500Y-67110525D01*
X224969500Y-67255475D01*
X225007016Y-67395485D01*
X225007017Y-67395488D01*
X225079488Y-67521011D01*
X225079490Y-67521013D01*
X225079491Y-67521015D01*
X225181985Y-67623509D01*
X225181986Y-67623510D01*
X225181988Y-67623511D01*
X225307511Y-67695982D01*
X225307512Y-67695982D01*
X225307515Y-67695984D01*
X225447525Y-67733500D01*
X225447528Y-67733500D01*
X225592472Y-67733500D01*
X225592475Y-67733500D01*
X225732485Y-67695984D01*
X225858015Y-67623509D01*
X225960509Y-67521015D01*
X226032984Y-67395485D01*
X226070500Y-67255475D01*
X226070500Y-67110525D01*
X226620500Y-67110525D01*
X226620500Y-67255475D01*
X226658016Y-67395485D01*
X226658017Y-67395488D01*
X226730488Y-67521011D01*
X226730490Y-67521013D01*
X226730491Y-67521015D01*
X226832985Y-67623509D01*
X226832986Y-67623510D01*
X226832988Y-67623511D01*
X226958511Y-67695982D01*
X226958512Y-67695982D01*
X226958515Y-67695984D01*
X227098525Y-67733500D01*
X227098528Y-67733500D01*
X227243472Y-67733500D01*
X227243475Y-67733500D01*
X227383485Y-67695984D01*
X227509015Y-67623509D01*
X227611509Y-67521015D01*
X227683984Y-67395485D01*
X227721500Y-67255475D01*
X227721500Y-67110525D01*
X228144500Y-67110525D01*
X228144500Y-67255475D01*
X228182016Y-67395485D01*
X228182017Y-67395488D01*
X228254488Y-67521011D01*
X228254490Y-67521013D01*
X228254491Y-67521015D01*
X228356985Y-67623509D01*
X228356986Y-67623510D01*
X228356988Y-67623511D01*
X228482511Y-67695982D01*
X228482512Y-67695982D01*
X228482515Y-67695984D01*
X228622525Y-67733500D01*
X228622528Y-67733500D01*
X228767472Y-67733500D01*
X228767475Y-67733500D01*
X228907485Y-67695984D01*
X229033015Y-67623509D01*
X229135509Y-67521015D01*
X229207984Y-67395485D01*
X229245500Y-67255475D01*
X229245500Y-67110525D01*
X229207984Y-66970515D01*
X229155075Y-66878875D01*
X229135511Y-66844988D01*
X229135506Y-66844982D01*
X229033017Y-66742493D01*
X229033011Y-66742488D01*
X228907488Y-66670017D01*
X228907489Y-66670017D01*
X228896006Y-66666940D01*
X228767475Y-66632500D01*
X228622525Y-66632500D01*
X228493993Y-66666940D01*
X228482511Y-66670017D01*
X228356988Y-66742488D01*
X228356982Y-66742493D01*
X228254493Y-66844982D01*
X228254488Y-66844988D01*
X228182017Y-66970511D01*
X228182016Y-66970515D01*
X228144500Y-67110525D01*
X227721500Y-67110525D01*
X227683984Y-66970515D01*
X227631075Y-66878875D01*
X227611511Y-66844988D01*
X227611506Y-66844982D01*
X227509017Y-66742493D01*
X227509011Y-66742488D01*
X227383488Y-66670017D01*
X227383489Y-66670017D01*
X227372006Y-66666940D01*
X227243475Y-66632500D01*
X227098525Y-66632500D01*
X226969993Y-66666940D01*
X226958511Y-66670017D01*
X226832988Y-66742488D01*
X226832982Y-66742493D01*
X226730493Y-66844982D01*
X226730488Y-66844988D01*
X226658017Y-66970511D01*
X226658016Y-66970515D01*
X226620500Y-67110525D01*
X226070500Y-67110525D01*
X226032984Y-66970515D01*
X225980075Y-66878875D01*
X225960511Y-66844988D01*
X225960506Y-66844982D01*
X225858017Y-66742493D01*
X225858011Y-66742488D01*
X225732488Y-66670017D01*
X225732489Y-66670017D01*
X225721006Y-66666940D01*
X225592475Y-66632500D01*
X225447525Y-66632500D01*
X225318993Y-66666940D01*
X225307511Y-66670017D01*
X225181988Y-66742488D01*
X225181982Y-66742493D01*
X225079493Y-66844982D01*
X225079488Y-66844988D01*
X225007017Y-66970511D01*
X225007016Y-66970515D01*
X224969500Y-67110525D01*
X219882017Y-67110525D01*
X219859487Y-66997261D01*
X219859486Y-66997260D01*
X219859486Y-66997256D01*
X219810450Y-66878873D01*
X219810449Y-66878872D01*
X219810446Y-66878866D01*
X219739261Y-66772331D01*
X219739258Y-66772327D01*
X219648657Y-66681726D01*
X219648653Y-66681723D01*
X219542118Y-66610538D01*
X219542109Y-66610533D01*
X219423729Y-66561499D01*
X219423723Y-66561497D01*
X219298056Y-66536500D01*
X219298054Y-66536500D01*
X219169916Y-66536500D01*
X219169914Y-66536500D01*
X219044246Y-66561497D01*
X219044240Y-66561499D01*
X218925860Y-66610533D01*
X218925851Y-66610538D01*
X218819316Y-66681723D01*
X218819312Y-66681726D01*
X218728711Y-66772327D01*
X218728708Y-66772331D01*
X218657523Y-66878866D01*
X218657518Y-66878875D01*
X218608484Y-66997255D01*
X218608482Y-66997261D01*
X218583485Y-67122928D01*
X218583485Y-67122930D01*
X218583485Y-67122931D01*
X218583485Y-67251069D01*
X218583485Y-67251071D01*
X218583484Y-67251071D01*
X218296500Y-67251071D01*
X218296500Y-67122928D01*
X218271502Y-66997261D01*
X218271501Y-66997260D01*
X218271501Y-66997256D01*
X218222465Y-66878873D01*
X218222464Y-66878872D01*
X218222461Y-66878866D01*
X218151276Y-66772331D01*
X218151273Y-66772327D01*
X218060672Y-66681726D01*
X218060668Y-66681723D01*
X217954133Y-66610538D01*
X217954124Y-66610533D01*
X217835744Y-66561499D01*
X217835738Y-66561497D01*
X217710071Y-66536500D01*
X217710069Y-66536500D01*
X217581931Y-66536500D01*
X217581929Y-66536500D01*
X217456261Y-66561497D01*
X217456255Y-66561499D01*
X217337875Y-66610533D01*
X217337866Y-66610538D01*
X217231331Y-66681723D01*
X217231327Y-66681726D01*
X217140726Y-66772327D01*
X217140723Y-66772331D01*
X217069538Y-66878866D01*
X217069533Y-66878875D01*
X217020499Y-66997255D01*
X217020497Y-66997261D01*
X216995500Y-67122928D01*
X216995500Y-67122930D01*
X216995500Y-67122931D01*
X216995500Y-67251069D01*
X216995500Y-67251071D01*
X216995499Y-67251071D01*
X194358484Y-67251071D01*
X194416640Y-67084871D01*
X194487883Y-66772737D01*
X194523730Y-66454589D01*
X194523730Y-66134427D01*
X194523729Y-66134422D01*
X236823650Y-66134422D01*
X236823650Y-66454593D01*
X236859495Y-66772724D01*
X236859497Y-66772736D01*
X236930739Y-67084870D01*
X236930740Y-67084872D01*
X237036482Y-67387067D01*
X237175393Y-67675518D01*
X237188253Y-67695984D01*
X237345731Y-67946609D01*
X237545348Y-68196921D01*
X237771737Y-68423310D01*
X238022049Y-68622927D01*
X238293137Y-68793263D01*
X238581592Y-68932176D01*
X238883787Y-69037918D01*
X239195921Y-69109161D01*
X239514065Y-69145007D01*
X239514066Y-69145008D01*
X239514069Y-69145008D01*
X239834234Y-69145008D01*
X239834234Y-69145007D01*
X240152379Y-69109161D01*
X240464513Y-69037918D01*
X240766708Y-68932176D01*
X241055163Y-68793263D01*
X241326251Y-68622927D01*
X241576563Y-68423310D01*
X241802952Y-68196921D01*
X242002569Y-67946609D01*
X242172905Y-67675521D01*
X242311818Y-67387066D01*
X242417560Y-67084871D01*
X242488803Y-66772737D01*
X242524650Y-66454589D01*
X242524650Y-66134427D01*
X242488803Y-65816279D01*
X242417560Y-65504145D01*
X242311818Y-65201950D01*
X242195816Y-64961071D01*
X242172906Y-64913497D01*
X242122281Y-64832928D01*
X242002569Y-64642407D01*
X241802952Y-64392095D01*
X241576563Y-64165706D01*
X241541473Y-64137723D01*
X241452201Y-64066531D01*
X241326251Y-63966089D01*
X241081876Y-63812538D01*
X241055160Y-63795751D01*
X240766709Y-63656840D01*
X240464514Y-63551098D01*
X240464512Y-63551097D01*
X240223621Y-63496115D01*
X240152379Y-63479855D01*
X240152375Y-63479854D01*
X240152366Y-63479853D01*
X239834235Y-63444008D01*
X239834231Y-63444008D01*
X239514069Y-63444008D01*
X239514064Y-63444008D01*
X239195933Y-63479853D01*
X239195921Y-63479855D01*
X238883787Y-63551097D01*
X238883785Y-63551098D01*
X238581590Y-63656840D01*
X238293139Y-63795751D01*
X238022050Y-63966088D01*
X237771737Y-64165705D01*
X237545347Y-64392095D01*
X237345730Y-64642408D01*
X237175393Y-64913497D01*
X237036482Y-65201948D01*
X236930740Y-65504143D01*
X236930739Y-65504145D01*
X236859497Y-65816279D01*
X236859495Y-65816291D01*
X236823650Y-66134422D01*
X194523729Y-66134422D01*
X194487883Y-65816279D01*
X194416640Y-65504145D01*
X194310898Y-65201950D01*
X194194896Y-64961071D01*
X194171986Y-64913497D01*
X194121361Y-64832928D01*
X194001649Y-64642407D01*
X193850658Y-64453071D01*
X225758499Y-64453071D01*
X225783497Y-64578738D01*
X225783499Y-64578744D01*
X225832533Y-64697124D01*
X225832538Y-64697133D01*
X225903723Y-64803668D01*
X225903726Y-64803672D01*
X225994327Y-64894273D01*
X225994331Y-64894276D01*
X226100866Y-64965461D01*
X226100872Y-64965464D01*
X226100873Y-64965465D01*
X226219256Y-65014501D01*
X226219260Y-65014501D01*
X226219261Y-65014502D01*
X226344928Y-65039500D01*
X226344931Y-65039500D01*
X226473071Y-65039500D01*
X226557615Y-65022682D01*
X226598744Y-65014501D01*
X226717127Y-64965465D01*
X226823669Y-64894276D01*
X226914276Y-64803669D01*
X226985465Y-64697127D01*
X227034501Y-64578744D01*
X227047524Y-64513273D01*
X227059500Y-64453071D01*
X227059500Y-64324928D01*
X227034502Y-64199261D01*
X227034501Y-64199260D01*
X227034501Y-64199256D01*
X226985465Y-64080873D01*
X226985464Y-64080872D01*
X226985461Y-64080866D01*
X226914276Y-63974331D01*
X226914273Y-63974327D01*
X226823672Y-63883726D01*
X226823668Y-63883723D01*
X226717133Y-63812538D01*
X226717124Y-63812533D01*
X226598744Y-63763499D01*
X226598738Y-63763497D01*
X226473071Y-63738500D01*
X226473069Y-63738500D01*
X226344931Y-63738500D01*
X226344929Y-63738500D01*
X226219261Y-63763497D01*
X226219255Y-63763499D01*
X226100875Y-63812533D01*
X226100866Y-63812538D01*
X225994331Y-63883723D01*
X225994327Y-63883726D01*
X225903726Y-63974327D01*
X225903723Y-63974331D01*
X225832538Y-64080866D01*
X225832533Y-64080875D01*
X225783499Y-64199255D01*
X225783497Y-64199261D01*
X225758500Y-64324928D01*
X225758500Y-64324931D01*
X225758500Y-64453069D01*
X225758500Y-64453071D01*
X225758499Y-64453071D01*
X193850658Y-64453071D01*
X193805266Y-64396151D01*
X193805266Y-64396149D01*
X193805264Y-64396148D01*
X193802032Y-64392095D01*
X193575642Y-64165705D01*
X193451281Y-64066531D01*
X193325331Y-63966089D01*
X193080956Y-63812538D01*
X193054240Y-63795751D01*
X192765789Y-63656840D01*
X192463594Y-63551098D01*
X192463592Y-63551097D01*
X192222701Y-63496115D01*
X192151459Y-63479855D01*
X192151455Y-63479854D01*
X192151446Y-63479853D01*
X191833315Y-63444008D01*
X191833311Y-63444008D01*
X191513149Y-63444008D01*
X191513144Y-63444008D01*
X191195013Y-63479853D01*
X191195001Y-63479855D01*
X190882867Y-63551097D01*
X190882865Y-63551098D01*
X190580670Y-63656840D01*
X190292219Y-63795751D01*
X190021130Y-63966088D01*
X189770817Y-64165705D01*
X189544427Y-64392095D01*
X189344810Y-64642408D01*
X189174473Y-64913497D01*
X189035562Y-65201948D01*
X188929820Y-65504143D01*
X188929819Y-65504145D01*
X188858577Y-65816279D01*
X188858575Y-65816291D01*
X188822730Y-66134422D01*
X30902500Y-66134422D01*
X30902500Y-64707071D01*
X54054499Y-64707071D01*
X54079497Y-64832738D01*
X54079499Y-64832744D01*
X54128533Y-64951124D01*
X54128538Y-64951133D01*
X54199723Y-65057668D01*
X54199726Y-65057672D01*
X54290327Y-65148273D01*
X54290331Y-65148276D01*
X54396866Y-65219461D01*
X54396872Y-65219464D01*
X54396873Y-65219465D01*
X54515256Y-65268501D01*
X54515260Y-65268501D01*
X54515261Y-65268502D01*
X54640928Y-65293500D01*
X54640931Y-65293500D01*
X54769071Y-65293500D01*
X54874092Y-65272609D01*
X54894744Y-65268501D01*
X55013127Y-65219465D01*
X55119669Y-65148276D01*
X55210276Y-65057669D01*
X55281465Y-64951127D01*
X55330501Y-64832744D01*
X55355500Y-64707069D01*
X55355500Y-64578931D01*
X55355500Y-64578928D01*
X55330502Y-64453261D01*
X55330501Y-64453260D01*
X55330501Y-64453256D01*
X55281465Y-64334873D01*
X55281464Y-64334872D01*
X55281461Y-64334866D01*
X55210276Y-64228331D01*
X55210273Y-64228327D01*
X55119672Y-64137726D01*
X55119668Y-64137723D01*
X55021414Y-64072071D01*
X55959499Y-64072071D01*
X55984497Y-64197738D01*
X55984499Y-64197744D01*
X56033533Y-64316124D01*
X56033538Y-64316133D01*
X56104723Y-64422668D01*
X56104726Y-64422672D01*
X56195327Y-64513273D01*
X56195331Y-64513276D01*
X56301866Y-64584461D01*
X56301875Y-64584466D01*
X56328692Y-64595574D01*
X56420256Y-64633501D01*
X56420260Y-64633501D01*
X56420261Y-64633502D01*
X56545928Y-64658500D01*
X56545931Y-64658500D01*
X56674071Y-64658500D01*
X56758615Y-64641682D01*
X56799744Y-64633501D01*
X56918127Y-64584465D01*
X57024669Y-64513276D01*
X57115276Y-64422669D01*
X57186465Y-64316127D01*
X57235501Y-64197744D01*
X57247440Y-64137723D01*
X57260500Y-64072071D01*
X57260500Y-63943928D01*
X57235502Y-63818261D01*
X57235501Y-63818260D01*
X57235501Y-63818256D01*
X57186465Y-63699873D01*
X57186464Y-63699872D01*
X57186461Y-63699866D01*
X57115276Y-63593331D01*
X57115273Y-63593327D01*
X57024672Y-63502726D01*
X57024668Y-63502723D01*
X56918133Y-63431538D01*
X56918124Y-63431533D01*
X56799744Y-63382499D01*
X56799738Y-63382497D01*
X56674071Y-63357500D01*
X56674069Y-63357500D01*
X56545931Y-63357500D01*
X56545929Y-63357500D01*
X56420261Y-63382497D01*
X56420255Y-63382499D01*
X56301875Y-63431533D01*
X56301866Y-63431538D01*
X56195331Y-63502723D01*
X56195327Y-63502726D01*
X56104726Y-63593327D01*
X56104723Y-63593331D01*
X56033538Y-63699866D01*
X56033533Y-63699875D01*
X55984499Y-63818255D01*
X55984497Y-63818261D01*
X55959500Y-63943928D01*
X55959500Y-63943931D01*
X55959500Y-64072069D01*
X55959500Y-64072071D01*
X55959499Y-64072071D01*
X55021414Y-64072071D01*
X55013133Y-64066538D01*
X55013120Y-64066531D01*
X54979003Y-64052400D01*
X54979002Y-64052400D01*
X54894744Y-64017499D01*
X54894738Y-64017497D01*
X54769071Y-63992500D01*
X54769069Y-63992500D01*
X54640931Y-63992500D01*
X54640929Y-63992500D01*
X54515261Y-64017497D01*
X54515255Y-64017499D01*
X54396875Y-64066533D01*
X54396866Y-64066538D01*
X54290331Y-64137723D01*
X54290327Y-64137726D01*
X54199726Y-64228327D01*
X54199723Y-64228331D01*
X54128538Y-64334866D01*
X54128533Y-64334875D01*
X54079499Y-64453255D01*
X54079497Y-64453261D01*
X54054500Y-64578928D01*
X54054500Y-64578931D01*
X54054500Y-64707069D01*
X54054500Y-64707071D01*
X54054499Y-64707071D01*
X30902500Y-64707071D01*
X30902500Y-59373071D01*
X49482499Y-59373071D01*
X49507497Y-59498738D01*
X49507499Y-59498744D01*
X49556533Y-59617124D01*
X49556538Y-59617133D01*
X49627723Y-59723668D01*
X49627726Y-59723672D01*
X49718327Y-59814273D01*
X49718331Y-59814276D01*
X49824866Y-59885461D01*
X49824872Y-59885464D01*
X49824873Y-59885465D01*
X49943256Y-59934501D01*
X49943260Y-59934501D01*
X49943261Y-59934502D01*
X50068928Y-59959500D01*
X50068931Y-59959500D01*
X50197071Y-59959500D01*
X50281615Y-59942682D01*
X50322744Y-59934501D01*
X50441127Y-59885465D01*
X50547669Y-59814276D01*
X50638276Y-59723669D01*
X50709465Y-59617127D01*
X50758501Y-59498744D01*
X50783500Y-59373071D01*
X51514499Y-59373071D01*
X51539497Y-59498738D01*
X51539499Y-59498744D01*
X51588533Y-59617124D01*
X51588538Y-59617133D01*
X51659723Y-59723668D01*
X51659726Y-59723672D01*
X51750327Y-59814273D01*
X51750331Y-59814276D01*
X51856866Y-59885461D01*
X51856872Y-59885464D01*
X51856873Y-59885465D01*
X51975256Y-59934501D01*
X51975260Y-59934501D01*
X51975261Y-59934502D01*
X52100928Y-59959500D01*
X52100931Y-59959500D01*
X52229071Y-59959500D01*
X52313615Y-59942682D01*
X52354744Y-59934501D01*
X52473127Y-59885465D01*
X52579669Y-59814276D01*
X52670276Y-59723669D01*
X52741465Y-59617127D01*
X52790501Y-59498744D01*
X52815500Y-59373069D01*
X52815500Y-59244931D01*
X52815500Y-59244928D01*
X52790502Y-59119261D01*
X52790501Y-59119260D01*
X52790501Y-59119256D01*
X52741465Y-59000873D01*
X52741464Y-59000872D01*
X52741461Y-59000866D01*
X52670276Y-58894331D01*
X52670273Y-58894327D01*
X52579672Y-58803726D01*
X52579668Y-58803723D01*
X52473133Y-58732538D01*
X52473124Y-58732533D01*
X52354744Y-58683499D01*
X52354738Y-58683497D01*
X52229071Y-58658500D01*
X52229069Y-58658500D01*
X52100931Y-58658500D01*
X52100929Y-58658500D01*
X51975261Y-58683497D01*
X51975255Y-58683499D01*
X51856875Y-58732533D01*
X51856866Y-58732538D01*
X51750331Y-58803723D01*
X51750327Y-58803726D01*
X51659726Y-58894327D01*
X51659723Y-58894331D01*
X51588538Y-59000866D01*
X51588533Y-59000875D01*
X51539499Y-59119255D01*
X51539497Y-59119261D01*
X51514500Y-59244928D01*
X51514500Y-59244931D01*
X51514500Y-59373069D01*
X51514500Y-59373071D01*
X51514499Y-59373071D01*
X50783500Y-59373071D01*
X50783500Y-59373069D01*
X50783500Y-59244931D01*
X50783500Y-59244928D01*
X50758502Y-59119261D01*
X50758501Y-59119260D01*
X50758501Y-59119256D01*
X50709465Y-59000873D01*
X50709464Y-59000872D01*
X50709461Y-59000866D01*
X50638276Y-58894331D01*
X50638273Y-58894327D01*
X50547672Y-58803726D01*
X50547668Y-58803723D01*
X50441133Y-58732538D01*
X50441124Y-58732533D01*
X50322744Y-58683499D01*
X50322738Y-58683497D01*
X50197071Y-58658500D01*
X50197069Y-58658500D01*
X50068931Y-58658500D01*
X50068929Y-58658500D01*
X49943261Y-58683497D01*
X49943255Y-58683499D01*
X49824875Y-58732533D01*
X49824866Y-58732538D01*
X49718331Y-58803723D01*
X49718327Y-58803726D01*
X49627726Y-58894327D01*
X49627723Y-58894331D01*
X49556538Y-59000866D01*
X49556533Y-59000875D01*
X49507499Y-59119255D01*
X49507497Y-59119261D01*
X49482500Y-59244928D01*
X49482500Y-59244931D01*
X49482500Y-59373069D01*
X49482500Y-59373071D01*
X49482499Y-59373071D01*
X30902500Y-59373071D01*
X30902500Y-57468071D01*
X50498499Y-57468071D01*
X50523497Y-57593738D01*
X50523499Y-57593744D01*
X50572533Y-57712124D01*
X50572538Y-57712133D01*
X50643723Y-57818668D01*
X50643726Y-57818672D01*
X50734327Y-57909273D01*
X50734331Y-57909276D01*
X50840866Y-57980461D01*
X50840872Y-57980464D01*
X50840873Y-57980465D01*
X50959256Y-58029501D01*
X50959260Y-58029501D01*
X50959261Y-58029502D01*
X51084928Y-58054500D01*
X51084931Y-58054500D01*
X51213071Y-58054500D01*
X51297615Y-58037682D01*
X51338744Y-58029501D01*
X51457127Y-57980465D01*
X51563669Y-57909276D01*
X51654276Y-57818669D01*
X51725465Y-57712127D01*
X51774501Y-57593744D01*
X51799500Y-57468071D01*
X52530499Y-57468071D01*
X52555497Y-57593738D01*
X52555499Y-57593744D01*
X52604533Y-57712124D01*
X52604538Y-57712133D01*
X52675723Y-57818668D01*
X52675726Y-57818672D01*
X52766327Y-57909273D01*
X52766331Y-57909276D01*
X52872866Y-57980461D01*
X52872872Y-57980464D01*
X52872873Y-57980465D01*
X52991256Y-58029501D01*
X52991260Y-58029501D01*
X52991261Y-58029502D01*
X53116928Y-58054500D01*
X53116931Y-58054500D01*
X53245071Y-58054500D01*
X53329615Y-58037682D01*
X53370744Y-58029501D01*
X53489127Y-57980465D01*
X53595669Y-57909276D01*
X53686276Y-57818669D01*
X53757465Y-57712127D01*
X53806501Y-57593744D01*
X53831500Y-57468069D01*
X53831500Y-57339931D01*
X53831500Y-57339928D01*
X53806502Y-57214261D01*
X53806501Y-57214260D01*
X53806501Y-57214256D01*
X53757465Y-57095873D01*
X53757464Y-57095872D01*
X53757461Y-57095866D01*
X53686276Y-56989331D01*
X53686273Y-56989327D01*
X53595672Y-56898726D01*
X53595668Y-56898723D01*
X53489133Y-56827538D01*
X53489124Y-56827533D01*
X53370744Y-56778499D01*
X53370738Y-56778497D01*
X53245071Y-56753500D01*
X53245069Y-56753500D01*
X53116931Y-56753500D01*
X53116929Y-56753500D01*
X52991261Y-56778497D01*
X52991255Y-56778499D01*
X52872875Y-56827533D01*
X52872866Y-56827538D01*
X52766331Y-56898723D01*
X52766327Y-56898726D01*
X52675726Y-56989327D01*
X52675723Y-56989331D01*
X52604538Y-57095866D01*
X52604533Y-57095875D01*
X52555499Y-57214255D01*
X52555497Y-57214261D01*
X52530500Y-57339928D01*
X52530500Y-57339931D01*
X52530500Y-57468069D01*
X52530500Y-57468071D01*
X52530499Y-57468071D01*
X51799500Y-57468071D01*
X51799500Y-57468069D01*
X51799500Y-57339931D01*
X51799500Y-57339928D01*
X51774502Y-57214261D01*
X51774501Y-57214260D01*
X51774501Y-57214256D01*
X51725465Y-57095873D01*
X51725464Y-57095872D01*
X51725461Y-57095866D01*
X51654276Y-56989331D01*
X51654273Y-56989327D01*
X51563672Y-56898726D01*
X51563668Y-56898723D01*
X51457133Y-56827538D01*
X51457124Y-56827533D01*
X51338744Y-56778499D01*
X51338738Y-56778497D01*
X51213071Y-56753500D01*
X51213069Y-56753500D01*
X51084931Y-56753500D01*
X51084929Y-56753500D01*
X50959261Y-56778497D01*
X50959255Y-56778499D01*
X50840875Y-56827533D01*
X50840866Y-56827538D01*
X50734331Y-56898723D01*
X50734327Y-56898726D01*
X50643726Y-56989327D01*
X50643723Y-56989331D01*
X50572538Y-57095866D01*
X50572533Y-57095875D01*
X50523499Y-57214255D01*
X50523497Y-57214261D01*
X50498500Y-57339928D01*
X50498500Y-57339931D01*
X50498500Y-57468069D01*
X50498500Y-57468071D01*
X50498499Y-57468071D01*
X30902500Y-57468071D01*
X30902500Y-56388182D01*
X141934000Y-56388182D01*
X141934000Y-56575817D01*
X141970602Y-56759826D01*
X141970605Y-56759838D01*
X142042401Y-56933171D01*
X142042408Y-56933184D01*
X142146644Y-57089183D01*
X142146647Y-57089187D01*
X142279312Y-57221852D01*
X142279316Y-57221855D01*
X142435315Y-57326091D01*
X142435328Y-57326098D01*
X142608661Y-57397894D01*
X142608666Y-57397896D01*
X142792682Y-57434499D01*
X142792686Y-57434500D01*
X142792687Y-57434500D01*
X142980314Y-57434500D01*
X142980315Y-57434499D01*
X143164334Y-57397896D01*
X143337678Y-57326095D01*
X143493684Y-57221855D01*
X143626355Y-57089184D01*
X143730595Y-56933178D01*
X143802396Y-56759834D01*
X143814989Y-56696525D01*
X165914500Y-56696525D01*
X165914500Y-56841475D01*
X165939072Y-56933178D01*
X165952017Y-56981488D01*
X166024488Y-57107011D01*
X166024490Y-57107013D01*
X166024491Y-57107015D01*
X166126985Y-57209509D01*
X166126986Y-57209510D01*
X166126988Y-57209511D01*
X166252511Y-57281982D01*
X166252512Y-57281982D01*
X166252515Y-57281984D01*
X166392525Y-57319500D01*
X166392528Y-57319500D01*
X166537472Y-57319500D01*
X166537475Y-57319500D01*
X166677485Y-57281984D01*
X166803015Y-57209509D01*
X166905509Y-57107015D01*
X166977984Y-56981485D01*
X167015500Y-56841475D01*
X167015500Y-56696525D01*
X185218500Y-56696525D01*
X185218500Y-56841475D01*
X185243072Y-56933178D01*
X185256017Y-56981488D01*
X185328488Y-57107011D01*
X185328490Y-57107013D01*
X185328491Y-57107015D01*
X185430985Y-57209509D01*
X185430986Y-57209510D01*
X185430988Y-57209511D01*
X185556511Y-57281982D01*
X185556512Y-57281982D01*
X185556515Y-57281984D01*
X185696525Y-57319500D01*
X185696528Y-57319500D01*
X185841472Y-57319500D01*
X185841475Y-57319500D01*
X185981485Y-57281984D01*
X186107015Y-57209509D01*
X186209509Y-57107015D01*
X186281984Y-56981485D01*
X186319500Y-56841475D01*
X186319500Y-56696525D01*
X186281984Y-56556515D01*
X186219050Y-56447511D01*
X186209511Y-56430988D01*
X186209506Y-56430982D01*
X186107017Y-56328493D01*
X186107011Y-56328488D01*
X185981488Y-56256017D01*
X185981489Y-56256017D01*
X185970006Y-56252940D01*
X185841475Y-56218500D01*
X185696525Y-56218500D01*
X185567993Y-56252940D01*
X185556511Y-56256017D01*
X185430988Y-56328488D01*
X185430982Y-56328493D01*
X185328493Y-56430982D01*
X185328488Y-56430988D01*
X185256017Y-56556511D01*
X185256016Y-56556515D01*
X185218500Y-56696525D01*
X167015500Y-56696525D01*
X166977984Y-56556515D01*
X166915050Y-56447511D01*
X166905511Y-56430988D01*
X166905506Y-56430982D01*
X166803017Y-56328493D01*
X166803011Y-56328488D01*
X166677488Y-56256017D01*
X166677489Y-56256017D01*
X166666006Y-56252940D01*
X166537475Y-56218500D01*
X166392525Y-56218500D01*
X166263993Y-56252940D01*
X166252511Y-56256017D01*
X166126988Y-56328488D01*
X166126982Y-56328493D01*
X166024493Y-56430982D01*
X166024488Y-56430988D01*
X165952017Y-56556511D01*
X165952016Y-56556515D01*
X165914500Y-56696525D01*
X143814989Y-56696525D01*
X143821418Y-56664207D01*
X143838999Y-56575817D01*
X143839000Y-56575814D01*
X143839000Y-56388186D01*
X143838999Y-56388182D01*
X143830413Y-56345017D01*
X143802396Y-56204166D01*
X143750748Y-56079475D01*
X143730598Y-56030828D01*
X143730591Y-56030815D01*
X143706853Y-55995289D01*
X143666252Y-55934525D01*
X167057500Y-55934525D01*
X167057500Y-56079475D01*
X167090913Y-56204173D01*
X167095017Y-56219488D01*
X167167488Y-56345011D01*
X167167490Y-56345013D01*
X167167491Y-56345015D01*
X167269985Y-56447509D01*
X167269986Y-56447510D01*
X167269988Y-56447511D01*
X167395511Y-56519982D01*
X167395512Y-56519982D01*
X167395515Y-56519984D01*
X167535525Y-56557500D01*
X167535528Y-56557500D01*
X167680472Y-56557500D01*
X167680475Y-56557500D01*
X167820485Y-56519984D01*
X167946015Y-56447509D01*
X168048509Y-56345015D01*
X168120984Y-56219485D01*
X168158500Y-56079475D01*
X168158500Y-55934525D01*
X186361500Y-55934525D01*
X186361500Y-56079475D01*
X186394913Y-56204173D01*
X186399017Y-56219488D01*
X186471488Y-56345011D01*
X186471490Y-56345013D01*
X186471491Y-56345015D01*
X186573985Y-56447509D01*
X186573986Y-56447510D01*
X186573988Y-56447511D01*
X186699511Y-56519982D01*
X186699512Y-56519982D01*
X186699515Y-56519984D01*
X186839525Y-56557500D01*
X186839528Y-56557500D01*
X186984472Y-56557500D01*
X186984475Y-56557500D01*
X187124485Y-56519984D01*
X187250015Y-56447509D01*
X187352509Y-56345015D01*
X187424984Y-56219485D01*
X187430722Y-56198071D01*
X227536499Y-56198071D01*
X227561497Y-56323738D01*
X227561499Y-56323744D01*
X227610533Y-56442124D01*
X227610538Y-56442133D01*
X227681723Y-56548668D01*
X227681726Y-56548672D01*
X227772327Y-56639273D01*
X227772331Y-56639276D01*
X227878866Y-56710461D01*
X227878872Y-56710464D01*
X227878873Y-56710465D01*
X227997256Y-56759501D01*
X227997260Y-56759501D01*
X227997261Y-56759502D01*
X228122928Y-56784500D01*
X228122931Y-56784500D01*
X228251071Y-56784500D01*
X228335615Y-56767682D01*
X228376744Y-56759501D01*
X228495127Y-56710465D01*
X228601669Y-56639276D01*
X228692276Y-56548669D01*
X228763465Y-56442127D01*
X228812501Y-56323744D01*
X228825973Y-56256016D01*
X228837500Y-56198071D01*
X231727499Y-56198071D01*
X231752497Y-56323738D01*
X231752499Y-56323744D01*
X231801533Y-56442124D01*
X231801538Y-56442133D01*
X231872723Y-56548668D01*
X231872726Y-56548672D01*
X231963327Y-56639273D01*
X231963331Y-56639276D01*
X232069866Y-56710461D01*
X232069872Y-56710464D01*
X232069873Y-56710465D01*
X232188256Y-56759501D01*
X232188260Y-56759501D01*
X232188261Y-56759502D01*
X232313928Y-56784500D01*
X232313931Y-56784500D01*
X232442071Y-56784500D01*
X232526615Y-56767682D01*
X232567744Y-56759501D01*
X232686127Y-56710465D01*
X232792669Y-56639276D01*
X232883276Y-56548669D01*
X232954465Y-56442127D01*
X233003501Y-56323744D01*
X233016973Y-56256016D01*
X233028500Y-56198071D01*
X233028500Y-56069928D01*
X233003502Y-55944261D01*
X233003501Y-55944260D01*
X233003501Y-55944256D01*
X232954465Y-55825873D01*
X232954464Y-55825872D01*
X232954461Y-55825866D01*
X232883276Y-55719331D01*
X232883273Y-55719327D01*
X232792672Y-55628726D01*
X232792668Y-55628723D01*
X232686133Y-55557538D01*
X232686124Y-55557533D01*
X232567744Y-55508499D01*
X232567738Y-55508497D01*
X232442071Y-55483500D01*
X232442069Y-55483500D01*
X232313931Y-55483500D01*
X232313929Y-55483500D01*
X232188261Y-55508497D01*
X232188255Y-55508499D01*
X232069875Y-55557533D01*
X232069866Y-55557538D01*
X231963331Y-55628723D01*
X231963327Y-55628726D01*
X231872726Y-55719327D01*
X231872723Y-55719331D01*
X231801538Y-55825866D01*
X231801533Y-55825875D01*
X231752499Y-55944255D01*
X231752497Y-55944261D01*
X231727500Y-56069928D01*
X231727500Y-56069931D01*
X231727500Y-56198069D01*
X231727500Y-56198071D01*
X231727499Y-56198071D01*
X228837500Y-56198071D01*
X228837500Y-56069928D01*
X228812502Y-55944261D01*
X228812501Y-55944260D01*
X228812501Y-55944256D01*
X228763465Y-55825873D01*
X228763464Y-55825872D01*
X228763461Y-55825866D01*
X228692276Y-55719331D01*
X228692273Y-55719327D01*
X228601672Y-55628726D01*
X228601668Y-55628723D01*
X228495133Y-55557538D01*
X228495124Y-55557533D01*
X228376744Y-55508499D01*
X228376738Y-55508497D01*
X228251071Y-55483500D01*
X228251069Y-55483500D01*
X228122931Y-55483500D01*
X228122929Y-55483500D01*
X227997261Y-55508497D01*
X227997255Y-55508499D01*
X227878875Y-55557533D01*
X227878866Y-55557538D01*
X227772331Y-55628723D01*
X227772327Y-55628726D01*
X227681726Y-55719327D01*
X227681723Y-55719331D01*
X227610538Y-55825866D01*
X227610533Y-55825875D01*
X227561499Y-55944255D01*
X227561497Y-55944261D01*
X227536500Y-56069928D01*
X227536500Y-56069931D01*
X227536500Y-56198069D01*
X227536500Y-56198071D01*
X227536499Y-56198071D01*
X187430722Y-56198071D01*
X187462500Y-56079475D01*
X187462500Y-55934525D01*
X187424984Y-55794515D01*
X187394749Y-55742147D01*
X187352511Y-55668988D01*
X187352506Y-55668982D01*
X187250017Y-55566493D01*
X187250011Y-55566488D01*
X187124488Y-55494017D01*
X187124489Y-55494017D01*
X187085239Y-55483500D01*
X186984475Y-55456500D01*
X186839525Y-55456500D01*
X186738761Y-55483500D01*
X186699511Y-55494017D01*
X186573988Y-55566488D01*
X186573982Y-55566493D01*
X186471493Y-55668982D01*
X186471488Y-55668988D01*
X186399017Y-55794511D01*
X186399016Y-55794515D01*
X186361500Y-55934525D01*
X168158500Y-55934525D01*
X168120984Y-55794515D01*
X168090749Y-55742147D01*
X168048511Y-55668988D01*
X168048506Y-55668982D01*
X167946017Y-55566493D01*
X167946011Y-55566488D01*
X167820488Y-55494017D01*
X167820489Y-55494017D01*
X167781239Y-55483500D01*
X167680475Y-55456500D01*
X167535525Y-55456500D01*
X167434761Y-55483500D01*
X167395511Y-55494017D01*
X167269988Y-55566488D01*
X167269982Y-55566493D01*
X167167493Y-55668982D01*
X167167488Y-55668988D01*
X167095017Y-55794511D01*
X167095016Y-55794515D01*
X167057500Y-55934525D01*
X143666252Y-55934525D01*
X143626355Y-55874816D01*
X143626352Y-55874812D01*
X143493687Y-55742147D01*
X143493683Y-55742144D01*
X143337684Y-55637908D01*
X143337671Y-55637901D01*
X143164338Y-55566105D01*
X143164326Y-55566102D01*
X142980317Y-55529500D01*
X142980313Y-55529500D01*
X142792687Y-55529500D01*
X142792682Y-55529500D01*
X142608673Y-55566102D01*
X142608661Y-55566105D01*
X142435328Y-55637901D01*
X142435315Y-55637908D01*
X142279316Y-55742144D01*
X142279312Y-55742147D01*
X142146647Y-55874812D01*
X142146644Y-55874816D01*
X142042408Y-56030815D01*
X142042401Y-56030828D01*
X141970605Y-56204161D01*
X141970602Y-56204173D01*
X141934000Y-56388182D01*
X30902500Y-56388182D01*
X30902500Y-55172525D01*
X165914500Y-55172525D01*
X165914500Y-55317475D01*
X165949352Y-55447543D01*
X165952017Y-55457488D01*
X166024488Y-55583011D01*
X166024490Y-55583013D01*
X166024491Y-55583015D01*
X166126985Y-55685509D01*
X166126986Y-55685510D01*
X166126988Y-55685511D01*
X166252511Y-55757982D01*
X166252512Y-55757982D01*
X166252515Y-55757984D01*
X166392525Y-55795500D01*
X166392528Y-55795500D01*
X166537472Y-55795500D01*
X166537475Y-55795500D01*
X166677485Y-55757984D01*
X166803015Y-55685509D01*
X166905509Y-55583015D01*
X166977984Y-55457485D01*
X167015500Y-55317475D01*
X167015500Y-55172525D01*
X166981470Y-55045525D01*
X185218500Y-55045525D01*
X185218500Y-55190475D01*
X185241961Y-55278031D01*
X185256017Y-55330488D01*
X185328488Y-55456011D01*
X185328490Y-55456013D01*
X185328491Y-55456015D01*
X185430985Y-55558509D01*
X185430986Y-55558510D01*
X185430988Y-55558511D01*
X185556511Y-55630982D01*
X185556512Y-55630982D01*
X185556515Y-55630984D01*
X185696525Y-55668500D01*
X185696528Y-55668500D01*
X185841472Y-55668500D01*
X185841475Y-55668500D01*
X185981485Y-55630984D01*
X186107015Y-55558509D01*
X186209509Y-55456015D01*
X186281984Y-55330485D01*
X186287722Y-55309071D01*
X228933499Y-55309071D01*
X228958497Y-55434738D01*
X228958499Y-55434744D01*
X229007533Y-55553124D01*
X229007538Y-55553133D01*
X229078723Y-55659668D01*
X229078726Y-55659672D01*
X229169327Y-55750273D01*
X229169331Y-55750276D01*
X229275866Y-55821461D01*
X229275875Y-55821466D01*
X229302692Y-55832574D01*
X229394256Y-55870501D01*
X229394260Y-55870501D01*
X229394261Y-55870502D01*
X229519928Y-55895500D01*
X229519931Y-55895500D01*
X229648071Y-55895500D01*
X229732615Y-55878682D01*
X229773744Y-55870501D01*
X229892127Y-55821465D01*
X229998669Y-55750276D01*
X230089276Y-55659669D01*
X230160465Y-55553127D01*
X230209501Y-55434744D01*
X230220652Y-55378687D01*
X230234500Y-55309071D01*
X233232499Y-55309071D01*
X233257497Y-55434738D01*
X233257499Y-55434744D01*
X233306533Y-55553124D01*
X233306538Y-55553133D01*
X233377723Y-55659668D01*
X233377726Y-55659672D01*
X233468327Y-55750273D01*
X233468331Y-55750276D01*
X233574866Y-55821461D01*
X233574875Y-55821466D01*
X233601692Y-55832574D01*
X233693256Y-55870501D01*
X233693260Y-55870501D01*
X233693261Y-55870502D01*
X233818928Y-55895500D01*
X233818931Y-55895500D01*
X233947071Y-55895500D01*
X234031615Y-55878682D01*
X234072744Y-55870501D01*
X234191127Y-55821465D01*
X234297669Y-55750276D01*
X234388276Y-55659669D01*
X234459465Y-55553127D01*
X234508501Y-55434744D01*
X234519652Y-55378687D01*
X234533500Y-55309071D01*
X234533500Y-55180928D01*
X234508502Y-55055261D01*
X234508501Y-55055260D01*
X234508501Y-55055256D01*
X234459465Y-54936873D01*
X234459464Y-54936872D01*
X234459461Y-54936866D01*
X234388276Y-54830331D01*
X234388273Y-54830327D01*
X234297672Y-54739726D01*
X234297668Y-54739723D01*
X234191133Y-54668538D01*
X234191124Y-54668533D01*
X234072744Y-54619499D01*
X234072738Y-54619497D01*
X233947071Y-54594500D01*
X233947069Y-54594500D01*
X233818931Y-54594500D01*
X233818929Y-54594500D01*
X233693261Y-54619497D01*
X233693255Y-54619499D01*
X233574875Y-54668533D01*
X233574866Y-54668538D01*
X233468331Y-54739723D01*
X233468327Y-54739726D01*
X233377726Y-54830327D01*
X233377723Y-54830331D01*
X233306538Y-54936866D01*
X233306533Y-54936875D01*
X233257499Y-55055255D01*
X233257497Y-55055261D01*
X233232500Y-55180928D01*
X233232500Y-55180931D01*
X233232500Y-55309069D01*
X233232500Y-55309071D01*
X233232499Y-55309071D01*
X230234500Y-55309071D01*
X230234500Y-55180928D01*
X230209502Y-55055261D01*
X230209501Y-55055260D01*
X230209501Y-55055256D01*
X230160465Y-54936873D01*
X230160464Y-54936872D01*
X230160461Y-54936866D01*
X230089276Y-54830331D01*
X230089273Y-54830327D01*
X229998672Y-54739726D01*
X229998668Y-54739723D01*
X229892133Y-54668538D01*
X229892124Y-54668533D01*
X229773744Y-54619499D01*
X229773738Y-54619497D01*
X229648071Y-54594500D01*
X229648069Y-54594500D01*
X229519931Y-54594500D01*
X229519929Y-54594500D01*
X229394261Y-54619497D01*
X229394255Y-54619499D01*
X229275875Y-54668533D01*
X229275866Y-54668538D01*
X229169331Y-54739723D01*
X229169327Y-54739726D01*
X229078726Y-54830327D01*
X229078723Y-54830331D01*
X229007538Y-54936866D01*
X229007533Y-54936875D01*
X228958499Y-55055255D01*
X228958497Y-55055261D01*
X228933500Y-55180928D01*
X228933500Y-55180931D01*
X228933500Y-55309069D01*
X228933500Y-55309071D01*
X228933499Y-55309071D01*
X186287722Y-55309071D01*
X186319500Y-55190475D01*
X186319500Y-55045525D01*
X186281984Y-54905515D01*
X186240413Y-54833513D01*
X186209511Y-54779988D01*
X186209506Y-54779982D01*
X186107017Y-54677493D01*
X186107011Y-54677488D01*
X185981488Y-54605017D01*
X185981489Y-54605017D01*
X185942239Y-54594500D01*
X185841475Y-54567500D01*
X185696525Y-54567500D01*
X185595761Y-54594500D01*
X185556511Y-54605017D01*
X185430988Y-54677488D01*
X185430982Y-54677493D01*
X185328493Y-54779982D01*
X185328488Y-54779988D01*
X185256017Y-54905511D01*
X185256016Y-54905515D01*
X185218500Y-55045525D01*
X166981470Y-55045525D01*
X166977984Y-55032515D01*
X166968854Y-55016702D01*
X166905511Y-54906988D01*
X166905506Y-54906982D01*
X166803017Y-54804493D01*
X166803011Y-54804488D01*
X166677488Y-54732017D01*
X166677489Y-54732017D01*
X166666006Y-54728940D01*
X166537475Y-54694500D01*
X166392525Y-54694500D01*
X166263993Y-54728940D01*
X166252511Y-54732017D01*
X166126988Y-54804488D01*
X166126982Y-54804493D01*
X166024493Y-54906982D01*
X166024488Y-54906988D01*
X165952017Y-55032511D01*
X165952016Y-55032515D01*
X165914500Y-55172525D01*
X30902500Y-55172525D01*
X30902500Y-54156525D01*
X186361500Y-54156525D01*
X186361500Y-54301475D01*
X186382741Y-54380745D01*
X186399017Y-54441488D01*
X186471488Y-54567011D01*
X186471490Y-54567013D01*
X186471491Y-54567015D01*
X186573985Y-54669509D01*
X186573986Y-54669510D01*
X186573988Y-54669511D01*
X186699511Y-54741982D01*
X186699512Y-54741982D01*
X186699515Y-54741984D01*
X186839525Y-54779500D01*
X186839528Y-54779500D01*
X186984472Y-54779500D01*
X186984475Y-54779500D01*
X187124485Y-54741984D01*
X187250015Y-54669509D01*
X187352509Y-54567015D01*
X187364024Y-54547071D01*
X227536499Y-54547071D01*
X227561497Y-54672738D01*
X227561499Y-54672744D01*
X227610533Y-54791124D01*
X227610538Y-54791133D01*
X227681723Y-54897668D01*
X227681726Y-54897672D01*
X227772327Y-54988273D01*
X227772331Y-54988276D01*
X227878866Y-55059461D01*
X227878875Y-55059466D01*
X227892530Y-55065122D01*
X227997256Y-55108501D01*
X227997260Y-55108501D01*
X227997261Y-55108502D01*
X228122928Y-55133500D01*
X228122931Y-55133500D01*
X228251071Y-55133500D01*
X228359033Y-55112024D01*
X228376744Y-55108501D01*
X228414160Y-55093002D01*
X228493166Y-55060278D01*
X228493166Y-55060277D01*
X228494147Y-55059870D01*
X228495118Y-55059469D01*
X228495120Y-55059467D01*
X228495127Y-55059465D01*
X228601669Y-54988276D01*
X228692276Y-54897669D01*
X228763465Y-54791127D01*
X228812501Y-54672744D01*
X228833532Y-54567017D01*
X228837500Y-54547071D01*
X231727499Y-54547071D01*
X231752497Y-54672738D01*
X231752499Y-54672744D01*
X231801533Y-54791124D01*
X231801538Y-54791133D01*
X231872723Y-54897668D01*
X231872726Y-54897672D01*
X231963327Y-54988273D01*
X231963331Y-54988276D01*
X232069866Y-55059461D01*
X232069875Y-55059466D01*
X232083530Y-55065122D01*
X232188256Y-55108501D01*
X232188260Y-55108501D01*
X232188261Y-55108502D01*
X232313928Y-55133500D01*
X232313931Y-55133500D01*
X232442071Y-55133500D01*
X232550033Y-55112024D01*
X232567744Y-55108501D01*
X232605160Y-55093002D01*
X232684166Y-55060278D01*
X232684166Y-55060277D01*
X232685147Y-55059870D01*
X232686118Y-55059469D01*
X232686120Y-55059467D01*
X232686127Y-55059465D01*
X232792669Y-54988276D01*
X232883276Y-54897669D01*
X232954465Y-54791127D01*
X233003501Y-54672744D01*
X233024532Y-54567017D01*
X233028500Y-54547071D01*
X233028500Y-54418928D01*
X233003502Y-54293261D01*
X233003501Y-54293260D01*
X233003501Y-54293256D01*
X232954465Y-54174873D01*
X232954464Y-54174872D01*
X232954461Y-54174866D01*
X232883276Y-54068331D01*
X232883273Y-54068327D01*
X232792672Y-53977726D01*
X232792668Y-53977723D01*
X232686133Y-53906538D01*
X232686124Y-53906533D01*
X232567744Y-53857499D01*
X232567738Y-53857497D01*
X232442071Y-53832500D01*
X232442069Y-53832500D01*
X232313931Y-53832500D01*
X232313929Y-53832500D01*
X232188261Y-53857497D01*
X232188255Y-53857499D01*
X232069875Y-53906533D01*
X232069866Y-53906538D01*
X231963331Y-53977723D01*
X231963327Y-53977726D01*
X231872726Y-54068327D01*
X231872723Y-54068331D01*
X231801538Y-54174866D01*
X231801533Y-54174875D01*
X231752499Y-54293255D01*
X231752497Y-54293261D01*
X231727500Y-54418928D01*
X231727500Y-54418931D01*
X231727500Y-54547069D01*
X231727500Y-54547071D01*
X231727499Y-54547071D01*
X228837500Y-54547071D01*
X228837500Y-54418928D01*
X228812502Y-54293261D01*
X228812501Y-54293260D01*
X228812501Y-54293256D01*
X228763465Y-54174873D01*
X228763464Y-54174872D01*
X228763461Y-54174866D01*
X228692276Y-54068331D01*
X228692273Y-54068327D01*
X228601672Y-53977726D01*
X228601668Y-53977723D01*
X228495133Y-53906538D01*
X228495124Y-53906533D01*
X228376744Y-53857499D01*
X228376738Y-53857497D01*
X228251071Y-53832500D01*
X228251069Y-53832500D01*
X228122931Y-53832500D01*
X228122929Y-53832500D01*
X227997261Y-53857497D01*
X227997255Y-53857499D01*
X227878875Y-53906533D01*
X227878866Y-53906538D01*
X227772331Y-53977723D01*
X227772327Y-53977726D01*
X227681726Y-54068327D01*
X227681723Y-54068331D01*
X227610538Y-54174866D01*
X227610533Y-54174875D01*
X227561499Y-54293255D01*
X227561497Y-54293261D01*
X227536500Y-54418928D01*
X227536500Y-54418931D01*
X227536500Y-54547069D01*
X227536500Y-54547071D01*
X227536499Y-54547071D01*
X187364024Y-54547071D01*
X187424984Y-54441485D01*
X187462500Y-54301475D01*
X187462500Y-54156525D01*
X187424984Y-54016515D01*
X187402587Y-53977723D01*
X187352511Y-53890988D01*
X187352506Y-53890982D01*
X187250017Y-53788493D01*
X187250011Y-53788488D01*
X187124488Y-53716017D01*
X187124489Y-53716017D01*
X187113006Y-53712940D01*
X186984475Y-53678500D01*
X186839525Y-53678500D01*
X186710993Y-53712940D01*
X186699511Y-53716017D01*
X186573988Y-53788488D01*
X186573982Y-53788493D01*
X186471493Y-53890982D01*
X186471488Y-53890988D01*
X186399017Y-54016511D01*
X186399016Y-54016515D01*
X186361500Y-54156525D01*
X30902500Y-54156525D01*
X30902500Y-53267525D01*
X185218500Y-53267525D01*
X185218500Y-53412475D01*
X185246070Y-53515366D01*
X185256017Y-53552488D01*
X185328488Y-53678011D01*
X185328490Y-53678013D01*
X185328491Y-53678015D01*
X185430985Y-53780509D01*
X185430986Y-53780510D01*
X185430988Y-53780511D01*
X185556511Y-53852982D01*
X185556512Y-53852982D01*
X185556515Y-53852984D01*
X185696525Y-53890500D01*
X185696528Y-53890500D01*
X185841472Y-53890500D01*
X185841475Y-53890500D01*
X185981485Y-53852984D01*
X186107015Y-53780509D01*
X186209509Y-53678015D01*
X186281984Y-53552485D01*
X186319500Y-53412475D01*
X186319500Y-53267525D01*
X186281984Y-53127515D01*
X186219050Y-53018511D01*
X186209511Y-53001988D01*
X186209506Y-53001982D01*
X186107017Y-52899493D01*
X186107011Y-52899488D01*
X185981488Y-52827017D01*
X185981489Y-52827017D01*
X185970006Y-52823940D01*
X185841475Y-52789500D01*
X185696525Y-52789500D01*
X185567993Y-52823940D01*
X185556511Y-52827017D01*
X185430988Y-52899488D01*
X185430982Y-52899493D01*
X185328493Y-53001982D01*
X185328488Y-53001988D01*
X185256017Y-53127511D01*
X185256016Y-53127515D01*
X185218500Y-53267525D01*
X30902500Y-53267525D01*
X30902500Y-52505525D01*
X186361500Y-52505525D01*
X186361500Y-52650475D01*
X186377446Y-52709984D01*
X186399017Y-52790488D01*
X186471488Y-52916011D01*
X186471490Y-52916013D01*
X186471491Y-52916015D01*
X186573985Y-53018509D01*
X186573986Y-53018510D01*
X186573988Y-53018511D01*
X186699511Y-53090982D01*
X186699512Y-53090982D01*
X186699515Y-53090984D01*
X186839525Y-53128500D01*
X186839528Y-53128500D01*
X186984472Y-53128500D01*
X186984475Y-53128500D01*
X187124485Y-53090984D01*
X187250015Y-53018509D01*
X187352509Y-52916015D01*
X187424984Y-52790485D01*
X187462500Y-52650475D01*
X187462500Y-52505525D01*
X187424984Y-52365515D01*
X187369533Y-52269472D01*
X187352511Y-52239988D01*
X187352506Y-52239982D01*
X187250017Y-52137493D01*
X187250011Y-52137488D01*
X187227559Y-52124525D01*
X195886500Y-52124525D01*
X195886500Y-52269475D01*
X195912498Y-52366500D01*
X195924017Y-52409488D01*
X195996488Y-52535011D01*
X195996490Y-52535013D01*
X195996491Y-52535015D01*
X196098985Y-52637509D01*
X196098986Y-52637510D01*
X196098988Y-52637511D01*
X196224511Y-52709982D01*
X196224512Y-52709982D01*
X196224515Y-52709984D01*
X196364525Y-52747500D01*
X196364528Y-52747500D01*
X196509472Y-52747500D01*
X196509475Y-52747500D01*
X196649485Y-52709984D01*
X196775015Y-52637509D01*
X196877509Y-52535015D01*
X196949984Y-52409485D01*
X196987500Y-52269475D01*
X196987500Y-52124525D01*
X196949984Y-51984515D01*
X196894533Y-51888472D01*
X196877511Y-51858988D01*
X196877506Y-51858982D01*
X196775017Y-51756493D01*
X196775011Y-51756488D01*
X196649488Y-51684017D01*
X196649489Y-51684017D01*
X196638006Y-51680940D01*
X196509475Y-51646500D01*
X196364525Y-51646500D01*
X196235993Y-51680940D01*
X196224511Y-51684017D01*
X196098988Y-51756488D01*
X196098982Y-51756493D01*
X195996493Y-51858982D01*
X195996488Y-51858988D01*
X195924017Y-51984511D01*
X195924016Y-51984515D01*
X195886500Y-52124525D01*
X187227559Y-52124525D01*
X187124488Y-52065017D01*
X187124489Y-52065017D01*
X187113006Y-52061940D01*
X186984475Y-52027500D01*
X186839525Y-52027500D01*
X186710993Y-52061940D01*
X186699511Y-52065017D01*
X186573988Y-52137488D01*
X186573982Y-52137493D01*
X186471493Y-52239982D01*
X186471488Y-52239988D01*
X186399017Y-52365511D01*
X186399016Y-52365515D01*
X186361500Y-52505525D01*
X30902500Y-52505525D01*
X30902500Y-51743525D01*
X185218500Y-51743525D01*
X185218500Y-51888475D01*
X185255752Y-52027500D01*
X185256017Y-52028488D01*
X185328488Y-52154011D01*
X185328490Y-52154013D01*
X185328491Y-52154015D01*
X185430985Y-52256509D01*
X185430986Y-52256510D01*
X185430988Y-52256511D01*
X185556511Y-52328982D01*
X185556512Y-52328982D01*
X185556515Y-52328984D01*
X185696525Y-52366500D01*
X185696528Y-52366500D01*
X185841472Y-52366500D01*
X185841475Y-52366500D01*
X185981485Y-52328984D01*
X186107015Y-52256509D01*
X186209509Y-52154015D01*
X186281984Y-52028485D01*
X186319500Y-51888475D01*
X186319500Y-51743525D01*
X186281984Y-51603515D01*
X186280243Y-51600500D01*
X186209511Y-51477988D01*
X186209506Y-51477982D01*
X186107017Y-51375493D01*
X186107011Y-51375488D01*
X185981488Y-51303017D01*
X185981489Y-51303017D01*
X185970006Y-51299940D01*
X185841475Y-51265500D01*
X185696525Y-51265500D01*
X185567993Y-51299940D01*
X185556511Y-51303017D01*
X185430988Y-51375488D01*
X185430982Y-51375493D01*
X185328493Y-51477982D01*
X185328488Y-51477988D01*
X185256017Y-51603511D01*
X185256016Y-51603515D01*
X185218500Y-51743525D01*
X30902500Y-51743525D01*
X30902500Y-50864071D01*
X141473999Y-50864071D01*
X141498997Y-50989738D01*
X141498999Y-50989744D01*
X141548033Y-51108124D01*
X141548038Y-51108133D01*
X141619223Y-51214668D01*
X141619226Y-51214672D01*
X141709827Y-51305273D01*
X141709831Y-51305276D01*
X141816366Y-51376461D01*
X141816372Y-51376464D01*
X141816373Y-51376465D01*
X141934756Y-51425501D01*
X141934760Y-51425501D01*
X141934761Y-51425502D01*
X142060428Y-51450500D01*
X142060431Y-51450500D01*
X142188571Y-51450500D01*
X142273115Y-51433682D01*
X142314244Y-51425501D01*
X142432627Y-51376465D01*
X142539169Y-51305276D01*
X142629776Y-51214669D01*
X142700965Y-51108127D01*
X142750001Y-50989744D01*
X142751636Y-50981525D01*
X186361500Y-50981525D01*
X186361500Y-51126475D01*
X186375624Y-51179185D01*
X186399017Y-51266488D01*
X186471488Y-51392011D01*
X186471490Y-51392013D01*
X186471491Y-51392015D01*
X186573985Y-51494509D01*
X186573986Y-51494510D01*
X186573988Y-51494511D01*
X186699511Y-51566982D01*
X186699512Y-51566982D01*
X186699515Y-51566984D01*
X186839525Y-51604500D01*
X186839528Y-51604500D01*
X186984472Y-51604500D01*
X186984475Y-51604500D01*
X187124485Y-51566984D01*
X187250015Y-51494509D01*
X187352509Y-51392015D01*
X187424984Y-51266485D01*
X187462500Y-51126475D01*
X187462500Y-50981525D01*
X194997500Y-50981525D01*
X194997500Y-51126475D01*
X195011624Y-51179185D01*
X195035017Y-51266488D01*
X195107488Y-51392011D01*
X195107490Y-51392013D01*
X195107491Y-51392015D01*
X195209985Y-51494509D01*
X195209986Y-51494510D01*
X195209988Y-51494511D01*
X195335511Y-51566982D01*
X195335512Y-51566982D01*
X195335515Y-51566984D01*
X195475525Y-51604500D01*
X195475528Y-51604500D01*
X195620472Y-51604500D01*
X195620475Y-51604500D01*
X195760485Y-51566984D01*
X195886015Y-51494509D01*
X195988509Y-51392015D01*
X196060984Y-51266485D01*
X196098500Y-51126475D01*
X196098500Y-50981525D01*
X196060984Y-50841515D01*
X196039892Y-50804982D01*
X196023776Y-50777068D01*
X196023775Y-50777067D01*
X196018307Y-50767597D01*
X195991493Y-50721153D01*
X270185500Y-50721153D01*
X270185500Y-50878846D01*
X270216261Y-51033489D01*
X270216264Y-51033501D01*
X270276602Y-51179172D01*
X270276609Y-51179185D01*
X270364210Y-51310288D01*
X270364213Y-51310292D01*
X270475707Y-51421786D01*
X270475711Y-51421789D01*
X270606814Y-51509390D01*
X270606827Y-51509397D01*
X270752498Y-51569735D01*
X270752503Y-51569737D01*
X270907153Y-51600499D01*
X270907156Y-51600500D01*
X270907158Y-51600500D01*
X271064844Y-51600500D01*
X271064845Y-51600499D01*
X271219497Y-51569737D01*
X271365179Y-51509394D01*
X271496289Y-51421789D01*
X271607789Y-51310289D01*
X271695394Y-51179179D01*
X271755737Y-51033497D01*
X271786500Y-50878842D01*
X271786500Y-50721158D01*
X271786500Y-50721155D01*
X271786499Y-50721153D01*
X271768370Y-50630015D01*
X271755737Y-50566503D01*
X271753476Y-50561044D01*
X271695397Y-50420827D01*
X271695390Y-50420814D01*
X271607789Y-50289711D01*
X271607786Y-50289707D01*
X271496292Y-50178213D01*
X271496288Y-50178210D01*
X271365185Y-50090609D01*
X271365172Y-50090602D01*
X271219501Y-50030264D01*
X271219489Y-50030261D01*
X271064845Y-49999500D01*
X271064842Y-49999500D01*
X270907158Y-49999500D01*
X270907155Y-49999500D01*
X270752510Y-50030261D01*
X270752498Y-50030264D01*
X270606827Y-50090602D01*
X270606814Y-50090609D01*
X270475711Y-50178210D01*
X270475707Y-50178213D01*
X270364213Y-50289707D01*
X270364210Y-50289711D01*
X270276609Y-50420814D01*
X270276602Y-50420827D01*
X270216264Y-50566498D01*
X270216261Y-50566510D01*
X270185500Y-50721153D01*
X195991493Y-50721153D01*
X195988509Y-50715985D01*
X195886015Y-50613491D01*
X195886013Y-50613490D01*
X195886011Y-50613488D01*
X195760488Y-50541017D01*
X195760489Y-50541017D01*
X195749006Y-50537940D01*
X195620475Y-50503500D01*
X195475525Y-50503500D01*
X195346993Y-50537940D01*
X195335511Y-50541017D01*
X195209988Y-50613488D01*
X195209982Y-50613493D01*
X195107493Y-50715982D01*
X195107488Y-50715988D01*
X195035017Y-50841511D01*
X195035016Y-50841515D01*
X194997500Y-50981525D01*
X187462500Y-50981525D01*
X187424984Y-50841515D01*
X187387775Y-50777068D01*
X187352511Y-50715988D01*
X187352506Y-50715982D01*
X187250017Y-50613493D01*
X187250011Y-50613488D01*
X187124488Y-50541017D01*
X187124489Y-50541017D01*
X187113006Y-50537940D01*
X186984475Y-50503500D01*
X186839525Y-50503500D01*
X186710993Y-50537940D01*
X186699511Y-50541017D01*
X186573988Y-50613488D01*
X186573982Y-50613493D01*
X186471493Y-50715982D01*
X186471488Y-50715988D01*
X186399017Y-50841511D01*
X186399016Y-50841515D01*
X186361500Y-50981525D01*
X142751636Y-50981525D01*
X142772061Y-50878844D01*
X142775000Y-50864071D01*
X142775000Y-50735928D01*
X142750002Y-50610261D01*
X142750001Y-50610260D01*
X142750001Y-50610256D01*
X142700965Y-50491873D01*
X142700964Y-50491872D01*
X142700961Y-50491866D01*
X142629776Y-50385331D01*
X142629773Y-50385327D01*
X142539172Y-50294726D01*
X142539168Y-50294723D01*
X142432633Y-50223538D01*
X142432624Y-50223533D01*
X142422948Y-50219525D01*
X185218500Y-50219525D01*
X185218500Y-50364475D01*
X185233600Y-50420827D01*
X185256017Y-50504488D01*
X185328488Y-50630011D01*
X185328490Y-50630013D01*
X185328491Y-50630015D01*
X185430985Y-50732509D01*
X185430986Y-50732510D01*
X185430988Y-50732511D01*
X185556511Y-50804982D01*
X185556512Y-50804982D01*
X185556515Y-50804984D01*
X185696525Y-50842500D01*
X185696528Y-50842500D01*
X185841472Y-50842500D01*
X185841475Y-50842500D01*
X185981485Y-50804984D01*
X186107015Y-50732509D01*
X186209509Y-50630015D01*
X186281984Y-50504485D01*
X186319500Y-50364475D01*
X186319500Y-50219525D01*
X186281984Y-50079515D01*
X186253548Y-50030263D01*
X186209511Y-49953988D01*
X186209506Y-49953982D01*
X186107017Y-49851493D01*
X186107011Y-49851488D01*
X185981488Y-49779017D01*
X185981489Y-49779017D01*
X185970006Y-49775940D01*
X185841475Y-49741500D01*
X185696525Y-49741500D01*
X185567993Y-49775940D01*
X185556511Y-49779017D01*
X185430988Y-49851488D01*
X185430982Y-49851493D01*
X185328493Y-49953982D01*
X185328488Y-49953988D01*
X185256017Y-50079511D01*
X185256016Y-50079515D01*
X185218500Y-50219525D01*
X142422948Y-50219525D01*
X142314244Y-50174499D01*
X142314238Y-50174497D01*
X142188571Y-50149500D01*
X142188569Y-50149500D01*
X142060431Y-50149500D01*
X142060429Y-50149500D01*
X141934761Y-50174497D01*
X141934755Y-50174499D01*
X141816375Y-50223533D01*
X141816366Y-50223538D01*
X141709831Y-50294723D01*
X141709827Y-50294726D01*
X141619226Y-50385327D01*
X141619223Y-50385331D01*
X141548038Y-50491866D01*
X141548033Y-50491875D01*
X141498999Y-50610255D01*
X141498997Y-50610261D01*
X141474000Y-50735928D01*
X141474000Y-50735931D01*
X141474000Y-50864069D01*
X141474000Y-50864071D01*
X141473999Y-50864071D01*
X30902500Y-50864071D01*
X30902500Y-46275670D01*
X60436500Y-46275670D01*
X60436500Y-46688329D01*
X60476946Y-47099000D01*
X60476948Y-47099013D01*
X60557455Y-47503743D01*
X60677246Y-47898645D01*
X60835167Y-48279899D01*
X60835169Y-48279904D01*
X61029688Y-48643823D01*
X61029699Y-48643841D01*
X61258954Y-48986945D01*
X61258964Y-48986959D01*
X61492915Y-49272029D01*
X61492916Y-49272030D01*
X62913938Y-47851008D01*
X62978904Y-47935673D01*
X63182827Y-48139596D01*
X63267490Y-48204560D01*
X61846468Y-49625582D01*
X61846469Y-49625583D01*
X62131540Y-49859535D01*
X62131554Y-49859545D01*
X62474658Y-50088800D01*
X62474676Y-50088811D01*
X62838595Y-50283330D01*
X62838600Y-50283332D01*
X63219854Y-50441253D01*
X63614756Y-50561044D01*
X64019486Y-50641551D01*
X64019499Y-50641553D01*
X64430170Y-50682000D01*
X64842830Y-50682000D01*
X65253500Y-50641553D01*
X65253513Y-50641551D01*
X65421070Y-50608222D01*
X65658243Y-50561044D01*
X66053145Y-50441253D01*
X66434399Y-50283332D01*
X66434404Y-50283330D01*
X66798323Y-50088811D01*
X66798341Y-50088800D01*
X67141445Y-49859545D01*
X67141459Y-49859535D01*
X67426530Y-49625582D01*
X67338027Y-49537079D01*
X67258473Y-49457525D01*
X186361500Y-49457525D01*
X186361500Y-49602475D01*
X186390721Y-49711527D01*
X186399017Y-49742488D01*
X186471488Y-49868011D01*
X186471490Y-49868013D01*
X186471491Y-49868015D01*
X186573985Y-49970509D01*
X186573986Y-49970510D01*
X186573988Y-49970511D01*
X186699511Y-50042982D01*
X186699512Y-50042982D01*
X186699515Y-50042984D01*
X186839525Y-50080500D01*
X186839528Y-50080500D01*
X186984472Y-50080500D01*
X186984475Y-50080500D01*
X187124485Y-50042984D01*
X187250015Y-49970509D01*
X187352509Y-49868015D01*
X187424984Y-49742485D01*
X187433280Y-49711525D01*
X195886500Y-49711525D01*
X195886500Y-49856475D01*
X195924016Y-49996485D01*
X195924017Y-49996488D01*
X195996488Y-50122011D01*
X195996490Y-50122013D01*
X195996491Y-50122015D01*
X196098985Y-50224509D01*
X196098986Y-50224510D01*
X196098988Y-50224511D01*
X196224511Y-50296982D01*
X196224512Y-50296982D01*
X196224515Y-50296984D01*
X196364525Y-50334500D01*
X196364528Y-50334500D01*
X196509472Y-50334500D01*
X196509475Y-50334500D01*
X196649485Y-50296984D01*
X196775015Y-50224509D01*
X196877509Y-50122015D01*
X196949984Y-49996485D01*
X196987500Y-49856475D01*
X196987500Y-49711525D01*
X196949984Y-49571515D01*
X196930102Y-49537079D01*
X196877511Y-49445988D01*
X196877506Y-49445982D01*
X196775017Y-49343493D01*
X196775011Y-49343488D01*
X196649488Y-49271017D01*
X196649489Y-49271017D01*
X196638006Y-49267940D01*
X196509475Y-49233500D01*
X196364525Y-49233500D01*
X196235993Y-49267940D01*
X196224511Y-49271017D01*
X196104530Y-49340289D01*
X196104528Y-49340290D01*
X196098985Y-49343491D01*
X196042895Y-49399580D01*
X196042843Y-49399631D01*
X195996494Y-49445981D01*
X195996488Y-49445988D01*
X195924017Y-49571511D01*
X195924016Y-49571515D01*
X195886500Y-49711525D01*
X187433280Y-49711525D01*
X187462500Y-49602475D01*
X187462500Y-49457525D01*
X187424984Y-49317515D01*
X187398138Y-49271017D01*
X187352511Y-49191988D01*
X187352506Y-49191982D01*
X187250017Y-49089493D01*
X187250011Y-49089488D01*
X187124488Y-49017017D01*
X187124489Y-49017017D01*
X187113006Y-49013940D01*
X186984475Y-48979500D01*
X186839525Y-48979500D01*
X186710993Y-49013940D01*
X186699511Y-49017017D01*
X186573988Y-49089488D01*
X186573982Y-49089493D01*
X186471493Y-49191982D01*
X186471488Y-49191988D01*
X186399017Y-49317511D01*
X186399016Y-49317515D01*
X186361500Y-49457525D01*
X67258473Y-49457525D01*
X66005508Y-48204561D01*
X66090173Y-48139596D01*
X66294096Y-47935673D01*
X66359061Y-47851009D01*
X67780082Y-49272030D01*
X68014035Y-48986959D01*
X68014045Y-48986945D01*
X68243300Y-48643841D01*
X68243311Y-48643823D01*
X68414222Y-48324071D01*
X156289499Y-48324071D01*
X156314497Y-48449738D01*
X156314499Y-48449744D01*
X156363533Y-48568124D01*
X156363538Y-48568133D01*
X156434723Y-48674668D01*
X156434726Y-48674672D01*
X156525327Y-48765273D01*
X156525331Y-48765276D01*
X156631866Y-48836461D01*
X156631875Y-48836466D01*
X156641554Y-48840475D01*
X156750256Y-48885501D01*
X156750260Y-48885501D01*
X156750261Y-48885502D01*
X156875928Y-48910500D01*
X156875931Y-48910500D01*
X157004071Y-48910500D01*
X157088615Y-48893682D01*
X157129744Y-48885501D01*
X157248127Y-48836465D01*
X157354669Y-48765276D01*
X157424420Y-48695525D01*
X185218500Y-48695525D01*
X185218500Y-48840475D01*
X185255752Y-48979500D01*
X185256017Y-48980488D01*
X185328488Y-49106011D01*
X185328490Y-49106013D01*
X185328491Y-49106015D01*
X185430985Y-49208509D01*
X185430986Y-49208510D01*
X185430988Y-49208511D01*
X185556511Y-49280982D01*
X185556512Y-49280982D01*
X185556515Y-49280984D01*
X185696525Y-49318500D01*
X185696528Y-49318500D01*
X185841472Y-49318500D01*
X185841475Y-49318500D01*
X185981485Y-49280984D01*
X186107015Y-49208509D01*
X186209509Y-49106015D01*
X186281984Y-48980485D01*
X186319500Y-48840475D01*
X186319500Y-48695525D01*
X194997500Y-48695525D01*
X194997500Y-48840475D01*
X195034752Y-48979500D01*
X195035017Y-48980488D01*
X195107488Y-49106011D01*
X195107490Y-49106013D01*
X195107491Y-49106015D01*
X195209985Y-49208509D01*
X195209986Y-49208510D01*
X195209988Y-49208511D01*
X195335511Y-49280982D01*
X195335512Y-49280982D01*
X195335515Y-49280984D01*
X195475525Y-49318500D01*
X195475528Y-49318500D01*
X195620472Y-49318500D01*
X195620475Y-49318500D01*
X195760485Y-49280984D01*
X195886015Y-49208509D01*
X195988509Y-49106015D01*
X196060984Y-48980485D01*
X196098500Y-48840475D01*
X196098500Y-48695525D01*
X196060984Y-48555515D01*
X195999913Y-48449738D01*
X195988511Y-48429988D01*
X195988506Y-48429982D01*
X195886017Y-48327493D01*
X195886011Y-48327488D01*
X195760488Y-48255017D01*
X195760489Y-48255017D01*
X195749006Y-48251940D01*
X195620475Y-48217500D01*
X195475525Y-48217500D01*
X195346993Y-48251940D01*
X195335511Y-48255017D01*
X195209988Y-48327488D01*
X195209982Y-48327493D01*
X195107493Y-48429982D01*
X195107488Y-48429988D01*
X195035017Y-48555511D01*
X195035016Y-48555515D01*
X194997500Y-48695525D01*
X186319500Y-48695525D01*
X186281984Y-48555515D01*
X186220913Y-48449738D01*
X186209511Y-48429988D01*
X186209506Y-48429982D01*
X186107017Y-48327493D01*
X186107011Y-48327488D01*
X185981488Y-48255017D01*
X185981489Y-48255017D01*
X185970006Y-48251940D01*
X185841475Y-48217500D01*
X185696525Y-48217500D01*
X185567993Y-48251940D01*
X185556511Y-48255017D01*
X185430988Y-48327488D01*
X185430982Y-48327493D01*
X185328493Y-48429982D01*
X185328488Y-48429988D01*
X185256017Y-48555511D01*
X185256016Y-48555515D01*
X185218500Y-48695525D01*
X157424420Y-48695525D01*
X157445276Y-48674669D01*
X157465887Y-48643823D01*
X157482803Y-48618507D01*
X157482804Y-48618505D01*
X157516458Y-48568138D01*
X157516461Y-48568133D01*
X157516465Y-48568127D01*
X157565501Y-48449744D01*
X157586532Y-48344017D01*
X157590500Y-48324071D01*
X157590500Y-48195928D01*
X157565502Y-48070261D01*
X157565501Y-48070260D01*
X157565501Y-48070256D01*
X157563535Y-48065509D01*
X157525155Y-47972850D01*
X157525154Y-47972849D01*
X157516469Y-47951881D01*
X157516461Y-47951866D01*
X157504206Y-47933525D01*
X186361500Y-47933525D01*
X186361500Y-48078475D01*
X186387498Y-48175500D01*
X186399017Y-48218488D01*
X186471488Y-48344011D01*
X186471490Y-48344013D01*
X186471491Y-48344015D01*
X186573985Y-48446509D01*
X186573986Y-48446510D01*
X186573988Y-48446511D01*
X186699511Y-48518982D01*
X186699512Y-48518982D01*
X186699515Y-48518984D01*
X186839525Y-48556500D01*
X186839528Y-48556500D01*
X186984472Y-48556500D01*
X186984475Y-48556500D01*
X187124485Y-48518984D01*
X187250015Y-48446509D01*
X187352509Y-48344015D01*
X187424984Y-48218485D01*
X187462500Y-48078475D01*
X187462500Y-47933525D01*
X187424984Y-47793515D01*
X187418027Y-47781466D01*
X187352511Y-47667988D01*
X187352506Y-47667982D01*
X187250017Y-47565493D01*
X187250011Y-47565488D01*
X187227559Y-47552525D01*
X195886500Y-47552525D01*
X195886500Y-47697475D01*
X195922145Y-47830501D01*
X195924017Y-47837488D01*
X195996488Y-47963011D01*
X195996490Y-47963013D01*
X195996491Y-47963015D01*
X196098985Y-48065509D01*
X196098986Y-48065510D01*
X196098988Y-48065511D01*
X196224511Y-48137982D01*
X196224512Y-48137982D01*
X196224515Y-48137984D01*
X196364525Y-48175500D01*
X196364528Y-48175500D01*
X196509472Y-48175500D01*
X196509475Y-48175500D01*
X196649485Y-48137984D01*
X196775015Y-48065509D01*
X196877509Y-47963015D01*
X196949984Y-47837485D01*
X196987500Y-47697475D01*
X196987500Y-47552525D01*
X196949984Y-47412515D01*
X196939720Y-47394738D01*
X196877511Y-47286988D01*
X196877506Y-47286982D01*
X196775017Y-47184493D01*
X196775011Y-47184488D01*
X196649488Y-47112017D01*
X196649489Y-47112017D01*
X196638006Y-47108940D01*
X196509475Y-47074500D01*
X196364525Y-47074500D01*
X196235993Y-47108940D01*
X196224511Y-47112017D01*
X196098988Y-47184488D01*
X196098982Y-47184493D01*
X195996493Y-47286982D01*
X195996488Y-47286988D01*
X195924017Y-47412511D01*
X195924016Y-47412515D01*
X195886500Y-47552525D01*
X187227559Y-47552525D01*
X187124488Y-47493017D01*
X187124489Y-47493017D01*
X187113006Y-47489940D01*
X186984475Y-47455500D01*
X186839525Y-47455500D01*
X186710993Y-47489940D01*
X186699511Y-47493017D01*
X186573988Y-47565488D01*
X186573982Y-47565493D01*
X186471493Y-47667982D01*
X186471488Y-47667988D01*
X186399017Y-47793511D01*
X186399016Y-47793515D01*
X186361500Y-47933525D01*
X157504206Y-47933525D01*
X157445276Y-47845331D01*
X157445273Y-47845327D01*
X157354672Y-47754726D01*
X157354668Y-47754723D01*
X157248133Y-47683538D01*
X157248124Y-47683533D01*
X157129744Y-47634499D01*
X157129738Y-47634497D01*
X157004071Y-47609500D01*
X157004069Y-47609500D01*
X156875931Y-47609500D01*
X156875929Y-47609500D01*
X156750261Y-47634497D01*
X156750255Y-47634499D01*
X156631875Y-47683533D01*
X156631866Y-47683538D01*
X156525331Y-47754723D01*
X156525327Y-47754726D01*
X156434726Y-47845327D01*
X156434723Y-47845331D01*
X156363538Y-47951866D01*
X156363533Y-47951875D01*
X156314499Y-48070255D01*
X156314497Y-48070261D01*
X156289500Y-48195928D01*
X156289500Y-48195931D01*
X156289500Y-48324069D01*
X156289500Y-48324071D01*
X156289499Y-48324071D01*
X68414222Y-48324071D01*
X68437830Y-48279904D01*
X68437832Y-48279899D01*
X68494793Y-48142386D01*
X68595753Y-47898645D01*
X68715545Y-47503741D01*
X68762224Y-47269071D01*
X154638499Y-47269071D01*
X154663497Y-47394738D01*
X154663499Y-47394744D01*
X154712533Y-47513124D01*
X154712538Y-47513133D01*
X154783723Y-47619668D01*
X154783726Y-47619672D01*
X154874327Y-47710273D01*
X154874331Y-47710276D01*
X154980866Y-47781461D01*
X154980872Y-47781464D01*
X154980873Y-47781465D01*
X155099256Y-47830501D01*
X155099260Y-47830501D01*
X155099261Y-47830502D01*
X155224928Y-47855500D01*
X155224931Y-47855500D01*
X155353071Y-47855500D01*
X155443634Y-47837485D01*
X155478744Y-47830501D01*
X155597127Y-47781465D01*
X155703669Y-47710276D01*
X155794276Y-47619669D01*
X155865465Y-47513127D01*
X155914501Y-47394744D01*
X155935936Y-47286988D01*
X155939500Y-47269071D01*
X155939500Y-47140928D01*
X155914502Y-47015261D01*
X155914501Y-47015260D01*
X155914501Y-47015256D01*
X155865465Y-46896873D01*
X155865464Y-46896872D01*
X155865461Y-46896866D01*
X155794276Y-46790331D01*
X155794273Y-46790327D01*
X155703672Y-46699726D01*
X155703668Y-46699723D01*
X155597133Y-46628538D01*
X155597124Y-46628533D01*
X155478744Y-46579499D01*
X155478738Y-46579497D01*
X155353071Y-46554500D01*
X155353069Y-46554500D01*
X155224931Y-46554500D01*
X155224929Y-46554500D01*
X155099261Y-46579497D01*
X155099255Y-46579499D01*
X154980875Y-46628533D01*
X154980866Y-46628538D01*
X154874331Y-46699723D01*
X154874327Y-46699726D01*
X154783726Y-46790327D01*
X154783723Y-46790331D01*
X154712538Y-46896866D01*
X154712533Y-46896875D01*
X154663499Y-47015255D01*
X154663497Y-47015261D01*
X154638500Y-47140928D01*
X154638500Y-47140931D01*
X154638500Y-47269069D01*
X154638500Y-47269071D01*
X154638499Y-47269071D01*
X68762224Y-47269071D01*
X68793732Y-47110672D01*
X68793737Y-47110644D01*
X68796053Y-47099000D01*
X68836500Y-46688329D01*
X68836500Y-46292071D01*
X156416499Y-46292071D01*
X156441497Y-46417738D01*
X156441499Y-46417744D01*
X156490533Y-46536124D01*
X156490538Y-46536133D01*
X156561723Y-46642668D01*
X156561726Y-46642672D01*
X156652327Y-46733273D01*
X156652331Y-46733276D01*
X156758866Y-46804461D01*
X156758872Y-46804464D01*
X156758873Y-46804465D01*
X156877256Y-46853501D01*
X156877260Y-46853501D01*
X156877261Y-46853502D01*
X157002928Y-46878500D01*
X157002931Y-46878500D01*
X157131071Y-46878500D01*
X157215615Y-46861682D01*
X157256744Y-46853501D01*
X157375127Y-46804465D01*
X157481669Y-46733276D01*
X157572276Y-46642669D01*
X157643465Y-46536127D01*
X157692501Y-46417744D01*
X157694136Y-46409525D01*
X194997500Y-46409525D01*
X194997500Y-46554475D01*
X195035016Y-46694485D01*
X195035017Y-46694488D01*
X195107488Y-46820011D01*
X195107490Y-46820013D01*
X195107491Y-46820015D01*
X195209985Y-46922509D01*
X195209986Y-46922510D01*
X195209988Y-46922511D01*
X195335511Y-46994982D01*
X195335512Y-46994982D01*
X195335515Y-46994984D01*
X195475525Y-47032500D01*
X195475528Y-47032500D01*
X195620472Y-47032500D01*
X195620475Y-47032500D01*
X195760485Y-46994984D01*
X195886015Y-46922509D01*
X195988509Y-46820015D01*
X196060984Y-46694485D01*
X196098500Y-46554475D01*
X196098500Y-46409525D01*
X196060984Y-46269515D01*
X195988509Y-46143985D01*
X195886015Y-46041491D01*
X195886013Y-46041490D01*
X195886011Y-46041488D01*
X195760488Y-45969017D01*
X195760489Y-45969017D01*
X195749006Y-45965940D01*
X195620475Y-45931500D01*
X195475525Y-45931500D01*
X195346993Y-45965940D01*
X195335511Y-45969017D01*
X195209988Y-46041488D01*
X195209982Y-46041493D01*
X195107493Y-46143982D01*
X195107488Y-46143988D01*
X195035017Y-46269511D01*
X195035016Y-46269515D01*
X194997500Y-46409525D01*
X157694136Y-46409525D01*
X157700565Y-46377206D01*
X157717500Y-46292071D01*
X157717500Y-46163928D01*
X157692502Y-46038261D01*
X157692501Y-46038260D01*
X157692501Y-46038256D01*
X157643465Y-45919873D01*
X157643464Y-45919872D01*
X157643461Y-45919866D01*
X157572276Y-45813331D01*
X157572273Y-45813327D01*
X157481672Y-45722726D01*
X157481668Y-45722723D01*
X157375133Y-45651538D01*
X157375124Y-45651533D01*
X157256744Y-45602499D01*
X157256738Y-45602497D01*
X157131071Y-45577500D01*
X157131069Y-45577500D01*
X157002931Y-45577500D01*
X157002929Y-45577500D01*
X156877261Y-45602497D01*
X156877255Y-45602499D01*
X156758875Y-45651533D01*
X156758866Y-45651538D01*
X156652331Y-45722723D01*
X156652327Y-45722726D01*
X156561726Y-45813327D01*
X156561723Y-45813331D01*
X156490538Y-45919866D01*
X156490533Y-45919875D01*
X156441499Y-46038255D01*
X156441497Y-46038261D01*
X156416500Y-46163928D01*
X156416500Y-46163931D01*
X156416500Y-46292069D01*
X156416500Y-46292071D01*
X156416499Y-46292071D01*
X68836500Y-46292071D01*
X68836500Y-46275670D01*
X68826092Y-46169993D01*
X68826092Y-46169991D01*
X68796053Y-45864999D01*
X68796051Y-45864986D01*
X68715544Y-45460256D01*
X68595753Y-45065354D01*
X68437832Y-44684100D01*
X68437830Y-44684095D01*
X68243311Y-44320176D01*
X68243300Y-44320158D01*
X68014045Y-43977054D01*
X68014035Y-43977040D01*
X67780083Y-43691969D01*
X67780082Y-43691968D01*
X66359060Y-45112990D01*
X66294096Y-45028327D01*
X66090173Y-44824404D01*
X66005507Y-44759437D01*
X67426530Y-43338416D01*
X67426529Y-43338415D01*
X67141459Y-43104464D01*
X67141445Y-43104454D01*
X66798341Y-42875199D01*
X66798323Y-42875188D01*
X66434404Y-42680669D01*
X66434399Y-42680667D01*
X66261551Y-42609071D01*
X161242499Y-42609071D01*
X161267497Y-42734738D01*
X161267499Y-42734744D01*
X161316533Y-42853124D01*
X161316541Y-42853138D01*
X161361624Y-42920610D01*
X161382502Y-42987287D01*
X161364017Y-43054667D01*
X161361624Y-43058390D01*
X161316541Y-43125861D01*
X161316533Y-43125875D01*
X161267499Y-43244255D01*
X161267497Y-43244261D01*
X161242500Y-43369928D01*
X161242500Y-43369931D01*
X161242500Y-43498069D01*
X161242500Y-43498071D01*
X161242499Y-43498071D01*
X161267497Y-43623738D01*
X161267499Y-43623744D01*
X161316533Y-43742124D01*
X161316541Y-43742138D01*
X161361624Y-43809610D01*
X161382502Y-43876287D01*
X161364017Y-43943667D01*
X161361624Y-43947390D01*
X161316541Y-44014861D01*
X161316533Y-44014875D01*
X161267499Y-44133255D01*
X161267497Y-44133261D01*
X161242500Y-44258928D01*
X161242500Y-44258931D01*
X161242500Y-44387069D01*
X161242500Y-44387071D01*
X161242499Y-44387071D01*
X161267497Y-44512738D01*
X161267499Y-44512744D01*
X161316533Y-44631124D01*
X161316538Y-44631133D01*
X161387723Y-44737668D01*
X161387726Y-44737672D01*
X161478327Y-44828273D01*
X161478331Y-44828276D01*
X161584866Y-44899461D01*
X161584872Y-44899464D01*
X161584873Y-44899465D01*
X161703256Y-44948501D01*
X161703260Y-44948501D01*
X161703261Y-44948502D01*
X161828928Y-44973500D01*
X161828931Y-44973500D01*
X161957071Y-44973500D01*
X162041615Y-44956682D01*
X162082744Y-44948501D01*
X162201127Y-44899465D01*
X162307669Y-44828276D01*
X162313316Y-44822628D01*
X162374636Y-44789142D01*
X162444328Y-44794123D01*
X162488683Y-44822628D01*
X162494331Y-44828276D01*
X162529685Y-44851898D01*
X162600866Y-44899461D01*
X162600872Y-44899464D01*
X162600873Y-44899465D01*
X162719256Y-44948501D01*
X162719260Y-44948501D01*
X162719261Y-44948502D01*
X162844928Y-44973500D01*
X162844931Y-44973500D01*
X162973071Y-44973500D01*
X163057615Y-44956682D01*
X163098744Y-44948501D01*
X163217127Y-44899465D01*
X163323669Y-44828276D01*
X163329316Y-44822628D01*
X163390636Y-44789142D01*
X163460328Y-44794123D01*
X163504683Y-44822628D01*
X163510331Y-44828276D01*
X163545685Y-44851898D01*
X163616866Y-44899461D01*
X163616872Y-44899464D01*
X163616873Y-44899465D01*
X163735256Y-44948501D01*
X163735260Y-44948501D01*
X163735261Y-44948502D01*
X163860928Y-44973500D01*
X163860931Y-44973500D01*
X163989071Y-44973500D01*
X164073615Y-44956682D01*
X164114744Y-44948501D01*
X164233127Y-44899465D01*
X164339669Y-44828276D01*
X164345316Y-44822628D01*
X164406636Y-44789142D01*
X164476328Y-44794123D01*
X164520683Y-44822628D01*
X164526331Y-44828276D01*
X164561685Y-44851898D01*
X164632866Y-44899461D01*
X164632872Y-44899464D01*
X164632873Y-44899465D01*
X164751256Y-44948501D01*
X164751260Y-44948501D01*
X164751261Y-44948502D01*
X164876928Y-44973500D01*
X164876931Y-44973500D01*
X165005071Y-44973500D01*
X165089615Y-44956682D01*
X165130744Y-44948501D01*
X165249127Y-44899465D01*
X165355669Y-44828276D01*
X165446276Y-44737669D01*
X165517465Y-44631127D01*
X165566501Y-44512744D01*
X165591500Y-44387069D01*
X165591500Y-44258931D01*
X165591500Y-44258928D01*
X165566502Y-44133261D01*
X165566501Y-44133260D01*
X165566501Y-44133256D01*
X165517465Y-44014873D01*
X165517464Y-44014872D01*
X165517461Y-44014866D01*
X165446276Y-43908331D01*
X165446273Y-43908327D01*
X165355672Y-43817726D01*
X165355668Y-43817723D01*
X165249133Y-43746538D01*
X165249124Y-43746533D01*
X165130744Y-43697499D01*
X165130738Y-43697497D01*
X165005071Y-43672500D01*
X165005069Y-43672500D01*
X164876931Y-43672500D01*
X164876929Y-43672500D01*
X164751261Y-43697497D01*
X164751251Y-43697500D01*
X164730813Y-43705966D01*
X164661344Y-43713433D01*
X164598865Y-43682157D01*
X164563214Y-43622067D01*
X164561746Y-43567211D01*
X164575500Y-43498070D01*
X164575500Y-43369928D01*
X164550502Y-43244261D01*
X164550501Y-43244260D01*
X164550501Y-43244256D01*
X164501465Y-43125873D01*
X164456374Y-43058390D01*
X164435497Y-42991714D01*
X164453981Y-42924334D01*
X164456375Y-42920609D01*
X164486724Y-42875188D01*
X164501465Y-42853127D01*
X164550501Y-42734744D01*
X164558682Y-42693615D01*
X164575500Y-42609071D01*
X164575500Y-42480928D01*
X164550502Y-42355261D01*
X164550501Y-42355260D01*
X164550501Y-42355256D01*
X164501465Y-42236873D01*
X164501464Y-42236872D01*
X164501461Y-42236866D01*
X164430276Y-42130331D01*
X164430273Y-42130327D01*
X164339672Y-42039726D01*
X164339668Y-42039723D01*
X164233133Y-41968538D01*
X164233124Y-41968533D01*
X164114744Y-41919499D01*
X164114738Y-41919497D01*
X163989071Y-41894500D01*
X163989069Y-41894500D01*
X163860931Y-41894500D01*
X163860929Y-41894500D01*
X163735261Y-41919497D01*
X163735255Y-41919499D01*
X163616875Y-41968533D01*
X163616866Y-41968538D01*
X163510331Y-42039723D01*
X163510327Y-42039726D01*
X163504681Y-42045373D01*
X163443358Y-42078858D01*
X163373666Y-42073874D01*
X163329319Y-42045373D01*
X163323672Y-42039726D01*
X163323668Y-42039723D01*
X163217133Y-41968538D01*
X163217124Y-41968533D01*
X163098744Y-41919499D01*
X163098738Y-41919497D01*
X162973071Y-41894500D01*
X162973069Y-41894500D01*
X162844931Y-41894500D01*
X162844929Y-41894500D01*
X162719261Y-41919497D01*
X162719255Y-41919499D01*
X162600875Y-41968533D01*
X162600866Y-41968538D01*
X162494331Y-42039723D01*
X162494327Y-42039726D01*
X162488681Y-42045373D01*
X162427358Y-42078858D01*
X162357666Y-42073874D01*
X162313319Y-42045373D01*
X162307672Y-42039726D01*
X162307668Y-42039723D01*
X162201133Y-41968538D01*
X162201124Y-41968533D01*
X162082744Y-41919499D01*
X162082738Y-41919497D01*
X161957071Y-41894500D01*
X161957069Y-41894500D01*
X161828931Y-41894500D01*
X161828929Y-41894500D01*
X161703261Y-41919497D01*
X161703255Y-41919499D01*
X161584875Y-41968533D01*
X161584866Y-41968538D01*
X161478331Y-42039723D01*
X161478327Y-42039726D01*
X161387726Y-42130327D01*
X161387723Y-42130331D01*
X161316538Y-42236866D01*
X161316533Y-42236875D01*
X161267499Y-42355255D01*
X161267497Y-42355261D01*
X161242500Y-42480928D01*
X161242500Y-42480931D01*
X161242500Y-42609069D01*
X161242500Y-42609071D01*
X161242499Y-42609071D01*
X66261551Y-42609071D01*
X66214061Y-42589400D01*
X66053145Y-42522746D01*
X65658243Y-42402955D01*
X65253513Y-42322448D01*
X65253500Y-42322446D01*
X64842830Y-42282000D01*
X64430170Y-42282000D01*
X64019499Y-42322446D01*
X64019486Y-42322448D01*
X63614756Y-42402955D01*
X63219854Y-42522746D01*
X62838600Y-42680667D01*
X62838595Y-42680669D01*
X62474676Y-42875188D01*
X62474658Y-42875199D01*
X62131554Y-43104454D01*
X62131553Y-43104455D01*
X61846468Y-43338416D01*
X63267491Y-44759438D01*
X63182827Y-44824404D01*
X62978904Y-45028327D01*
X62913938Y-45112991D01*
X61492916Y-43691968D01*
X61258955Y-43977053D01*
X61258954Y-43977054D01*
X61029699Y-44320158D01*
X61029688Y-44320176D01*
X60835169Y-44684095D01*
X60835167Y-44684100D01*
X60677246Y-45065354D01*
X60557455Y-45460256D01*
X60476948Y-45864986D01*
X60476946Y-45864999D01*
X60436500Y-46275670D01*
X30902500Y-46275670D01*
X30902500Y-39307071D01*
X53927499Y-39307071D01*
X53952497Y-39432738D01*
X53952499Y-39432744D01*
X54001533Y-39551124D01*
X54001538Y-39551133D01*
X54072723Y-39657668D01*
X54072726Y-39657672D01*
X54163327Y-39748273D01*
X54163331Y-39748276D01*
X54269866Y-39819461D01*
X54269872Y-39819464D01*
X54269873Y-39819465D01*
X54388256Y-39868501D01*
X54388260Y-39868501D01*
X54388261Y-39868502D01*
X54513928Y-39893500D01*
X54513931Y-39893500D01*
X54642071Y-39893500D01*
X54726615Y-39876682D01*
X54767744Y-39868501D01*
X54886127Y-39819465D01*
X54992669Y-39748276D01*
X55083276Y-39657669D01*
X55154465Y-39551127D01*
X55203501Y-39432744D01*
X55228500Y-39307069D01*
X55228500Y-39291153D01*
X132771500Y-39291153D01*
X132771500Y-39448846D01*
X132802261Y-39603489D01*
X132802264Y-39603501D01*
X132862602Y-39749172D01*
X132862609Y-39749185D01*
X132950210Y-39880288D01*
X132950213Y-39880292D01*
X133061707Y-39991786D01*
X133061711Y-39991789D01*
X133192814Y-40079390D01*
X133192827Y-40079397D01*
X133338498Y-40139735D01*
X133338503Y-40139737D01*
X133493153Y-40170499D01*
X133493156Y-40170500D01*
X133493158Y-40170500D01*
X133650844Y-40170500D01*
X133650845Y-40170499D01*
X133805497Y-40139737D01*
X133951179Y-40079394D01*
X134082289Y-39991789D01*
X134193789Y-39880289D01*
X134281394Y-39749179D01*
X134341737Y-39603497D01*
X134372500Y-39448842D01*
X134372500Y-39403153D01*
X140830601Y-39403153D01*
X140830601Y-39560846D01*
X140861362Y-39715489D01*
X140861365Y-39715501D01*
X140921703Y-39861172D01*
X140921710Y-39861185D01*
X141009311Y-39992288D01*
X141009314Y-39992292D01*
X141120808Y-40103786D01*
X141120812Y-40103789D01*
X141251915Y-40191390D01*
X141251928Y-40191397D01*
X141397599Y-40251735D01*
X141397604Y-40251737D01*
X141552254Y-40282499D01*
X141552257Y-40282500D01*
X141552259Y-40282500D01*
X141709945Y-40282500D01*
X141709946Y-40282499D01*
X141864598Y-40251737D01*
X142010280Y-40191394D01*
X142141390Y-40103789D01*
X142252890Y-39992289D01*
X142340495Y-39861179D01*
X142400838Y-39715497D01*
X142431601Y-39560842D01*
X142431601Y-39403158D01*
X142431601Y-39403155D01*
X142431600Y-39403153D01*
X142412488Y-39307071D01*
X142400838Y-39248503D01*
X142372021Y-39178931D01*
X142340498Y-39102827D01*
X142340491Y-39102814D01*
X142252890Y-38971711D01*
X142252887Y-38971707D01*
X142141393Y-38860213D01*
X142141389Y-38860210D01*
X142010286Y-38772609D01*
X142010273Y-38772602D01*
X141864602Y-38712264D01*
X141864590Y-38712261D01*
X141709946Y-38681500D01*
X141709943Y-38681500D01*
X141552259Y-38681500D01*
X141552256Y-38681500D01*
X141397611Y-38712261D01*
X141397599Y-38712264D01*
X141251928Y-38772602D01*
X141251915Y-38772609D01*
X141120812Y-38860210D01*
X141120808Y-38860213D01*
X141009314Y-38971707D01*
X141009311Y-38971711D01*
X140921710Y-39102814D01*
X140921703Y-39102827D01*
X140861365Y-39248498D01*
X140861362Y-39248510D01*
X140830601Y-39403153D01*
X134372500Y-39403153D01*
X134372500Y-39291158D01*
X134372500Y-39291155D01*
X134372499Y-39291153D01*
X134364014Y-39248498D01*
X134341737Y-39136503D01*
X134327783Y-39102814D01*
X134281397Y-38990827D01*
X134281390Y-38990814D01*
X134193789Y-38859711D01*
X134193786Y-38859707D01*
X134082292Y-38748213D01*
X134082288Y-38748210D01*
X133951185Y-38660609D01*
X133951172Y-38660602D01*
X133805501Y-38600264D01*
X133805489Y-38600261D01*
X133650845Y-38569500D01*
X133650842Y-38569500D01*
X133493158Y-38569500D01*
X133493155Y-38569500D01*
X133338510Y-38600261D01*
X133338498Y-38600264D01*
X133192827Y-38660602D01*
X133192814Y-38660609D01*
X133061711Y-38748210D01*
X133061707Y-38748213D01*
X132950213Y-38859707D01*
X132950210Y-38859711D01*
X132862609Y-38990814D01*
X132862602Y-38990827D01*
X132802264Y-39136498D01*
X132802261Y-39136510D01*
X132771500Y-39291153D01*
X55228500Y-39291153D01*
X55228500Y-39178931D01*
X55228500Y-39178928D01*
X55203502Y-39053261D01*
X55203501Y-39053260D01*
X55203501Y-39053256D01*
X55154465Y-38934873D01*
X55154464Y-38934872D01*
X55154461Y-38934866D01*
X55083276Y-38828331D01*
X55083273Y-38828327D01*
X54992672Y-38737726D01*
X54992668Y-38737723D01*
X54886133Y-38666538D01*
X54886124Y-38666533D01*
X54767744Y-38617499D01*
X54767738Y-38617497D01*
X54642071Y-38592500D01*
X54642069Y-38592500D01*
X54513931Y-38592500D01*
X54513929Y-38592500D01*
X54388261Y-38617497D01*
X54388255Y-38617499D01*
X54269875Y-38666533D01*
X54269866Y-38666538D01*
X54163331Y-38737723D01*
X54163327Y-38737726D01*
X54072726Y-38828327D01*
X54072723Y-38828331D01*
X54001538Y-38934866D01*
X54001533Y-38934875D01*
X53952499Y-39053255D01*
X53952497Y-39053261D01*
X53927500Y-39178928D01*
X53927500Y-39178931D01*
X53927500Y-39307069D01*
X53927500Y-39307071D01*
X53927499Y-39307071D01*
X30902500Y-39307071D01*
X30902500Y-36551192D01*
X142183999Y-36551192D01*
X142210995Y-36686906D01*
X142210997Y-36686912D01*
X142263952Y-36814756D01*
X142340834Y-36929820D01*
X142438679Y-37027665D01*
X142438682Y-37027667D01*
X142553742Y-37104547D01*
X142681588Y-37157503D01*
X142681592Y-37157503D01*
X142681593Y-37157504D01*
X142817307Y-37184500D01*
X142817310Y-37184500D01*
X142955692Y-37184500D01*
X143046998Y-37166337D01*
X143091412Y-37157503D01*
X143219258Y-37104547D01*
X143334318Y-37027667D01*
X143432167Y-36929818D01*
X143509047Y-36814758D01*
X143562003Y-36686912D01*
X143589000Y-36551190D01*
X143589000Y-36412810D01*
X143589000Y-36412807D01*
X143562004Y-36277093D01*
X143562003Y-36277092D01*
X143562003Y-36277088D01*
X143509047Y-36149242D01*
X143432167Y-36034182D01*
X143432165Y-36034179D01*
X143334320Y-35936334D01*
X143276788Y-35897893D01*
X143219258Y-35859453D01*
X143091412Y-35806497D01*
X143091406Y-35806495D01*
X142955692Y-35779500D01*
X142955690Y-35779500D01*
X142817310Y-35779500D01*
X142817308Y-35779500D01*
X142681593Y-35806495D01*
X142681587Y-35806497D01*
X142553743Y-35859452D01*
X142438679Y-35936334D01*
X142340834Y-36034179D01*
X142263952Y-36149243D01*
X142210997Y-36277087D01*
X142210995Y-36277093D01*
X142184000Y-36412807D01*
X142184000Y-36412810D01*
X142184000Y-36551190D01*
X142184000Y-36551192D01*
X142183999Y-36551192D01*
X30902500Y-36551192D01*
X30902500Y-35954346D01*
X53927499Y-35954346D01*
X53952497Y-36080013D01*
X53952499Y-36080019D01*
X54001533Y-36198399D01*
X54001538Y-36198408D01*
X54072723Y-36304943D01*
X54072726Y-36304947D01*
X54163327Y-36395548D01*
X54163331Y-36395551D01*
X54269866Y-36466736D01*
X54269872Y-36466739D01*
X54269873Y-36466740D01*
X54388256Y-36515776D01*
X54388260Y-36515776D01*
X54388261Y-36515777D01*
X54513928Y-36540775D01*
X54513931Y-36540775D01*
X54642071Y-36540775D01*
X54726615Y-36523957D01*
X54767744Y-36515776D01*
X54886127Y-36466740D01*
X54992669Y-36395551D01*
X54992672Y-36395548D01*
X55069184Y-36319037D01*
X55083273Y-36304947D01*
X55083276Y-36304944D01*
X55154465Y-36198402D01*
X55203501Y-36080019D01*
X55228500Y-35954344D01*
X55228500Y-35826206D01*
X55228500Y-35826203D01*
X55203502Y-35700536D01*
X55203501Y-35700535D01*
X55203501Y-35700531D01*
X55154465Y-35582148D01*
X55154464Y-35582147D01*
X55154461Y-35582141D01*
X55083276Y-35475606D01*
X55083273Y-35475602D01*
X54992672Y-35385001D01*
X54992668Y-35384998D01*
X54886133Y-35313813D01*
X54886124Y-35313808D01*
X54767744Y-35264774D01*
X54767738Y-35264772D01*
X54642071Y-35239775D01*
X54642069Y-35239775D01*
X54513931Y-35239775D01*
X54513929Y-35239775D01*
X54388261Y-35264772D01*
X54388255Y-35264774D01*
X54269875Y-35313808D01*
X54269866Y-35313813D01*
X54163331Y-35384998D01*
X54163327Y-35385001D01*
X54072726Y-35475602D01*
X54072723Y-35475606D01*
X54001538Y-35582141D01*
X54001533Y-35582150D01*
X53952499Y-35700530D01*
X53952497Y-35700536D01*
X53927500Y-35826203D01*
X53927500Y-35826206D01*
X53927500Y-35954344D01*
X53927500Y-35954346D01*
X53927499Y-35954346D01*
X30902500Y-35954346D01*
X30902500Y-33134742D01*
X188822730Y-33134742D01*
X188822730Y-33454913D01*
X188858575Y-33773044D01*
X188858577Y-33773056D01*
X188929819Y-34085190D01*
X188929820Y-34085192D01*
X189035562Y-34387387D01*
X189174473Y-34675838D01*
X189174475Y-34675841D01*
X189344811Y-34946929D01*
X189544428Y-35197241D01*
X189770817Y-35423630D01*
X190021129Y-35623247D01*
X190292217Y-35793583D01*
X190580672Y-35932496D01*
X190882867Y-36038238D01*
X191195001Y-36109481D01*
X191513145Y-36145327D01*
X191513146Y-36145328D01*
X191513149Y-36145328D01*
X191833314Y-36145328D01*
X191833314Y-36145327D01*
X192151459Y-36109481D01*
X192463593Y-36038238D01*
X192765788Y-35932496D01*
X193054243Y-35793583D01*
X193325331Y-35623247D01*
X193575643Y-35423630D01*
X193802032Y-35197241D01*
X193968042Y-34989071D01*
X218900499Y-34989071D01*
X218925497Y-35114738D01*
X218925499Y-35114744D01*
X218974533Y-35233124D01*
X218974538Y-35233133D01*
X219045723Y-35339668D01*
X219045726Y-35339672D01*
X219136327Y-35430273D01*
X219136331Y-35430276D01*
X219242866Y-35501461D01*
X219242872Y-35501464D01*
X219242873Y-35501465D01*
X219361256Y-35550501D01*
X219361260Y-35550501D01*
X219361261Y-35550502D01*
X219486928Y-35575500D01*
X219486931Y-35575500D01*
X219615071Y-35575500D01*
X219699615Y-35558682D01*
X219740744Y-35550501D01*
X219859127Y-35501465D01*
X219965669Y-35430276D01*
X220056276Y-35339669D01*
X220127465Y-35233127D01*
X220176501Y-35114744D01*
X220201500Y-34989069D01*
X220201500Y-34860931D01*
X220201500Y-34860928D01*
X220189528Y-34800742D01*
X228171499Y-34800742D01*
X228196497Y-34926409D01*
X228196499Y-34926415D01*
X228245533Y-35044795D01*
X228245538Y-35044804D01*
X228316723Y-35151339D01*
X228316726Y-35151343D01*
X228407327Y-35241944D01*
X228407331Y-35241947D01*
X228513866Y-35313132D01*
X228513872Y-35313135D01*
X228513873Y-35313136D01*
X228632256Y-35362172D01*
X228632260Y-35362172D01*
X228632261Y-35362173D01*
X228757928Y-35387171D01*
X228757931Y-35387171D01*
X228886071Y-35387171D01*
X228970615Y-35370353D01*
X229011744Y-35362172D01*
X229130127Y-35313136D01*
X229236669Y-35241947D01*
X229327276Y-35151340D01*
X229398465Y-35044798D01*
X229447501Y-34926415D01*
X229472500Y-34800740D01*
X229472500Y-34672602D01*
X229472500Y-34672599D01*
X229447502Y-34546932D01*
X229447501Y-34546931D01*
X229447501Y-34546927D01*
X229398465Y-34428544D01*
X229398464Y-34428543D01*
X229398461Y-34428537D01*
X229327276Y-34322002D01*
X229327273Y-34321998D01*
X229236672Y-34231397D01*
X229236668Y-34231394D01*
X229130133Y-34160209D01*
X229130124Y-34160204D01*
X229011744Y-34111170D01*
X229011738Y-34111168D01*
X228886071Y-34086171D01*
X228886069Y-34086171D01*
X228757931Y-34086171D01*
X228757929Y-34086171D01*
X228632261Y-34111168D01*
X228632255Y-34111170D01*
X228513875Y-34160204D01*
X228513866Y-34160209D01*
X228407331Y-34231394D01*
X228407327Y-34231397D01*
X228316726Y-34321998D01*
X228316723Y-34322002D01*
X228245538Y-34428537D01*
X228245533Y-34428546D01*
X228196499Y-34546926D01*
X228196497Y-34546932D01*
X228171500Y-34672599D01*
X228171500Y-34672602D01*
X228171500Y-34800740D01*
X228171500Y-34800742D01*
X228171499Y-34800742D01*
X220189528Y-34800742D01*
X220176502Y-34735261D01*
X220176501Y-34735260D01*
X220176501Y-34735256D01*
X220127465Y-34616873D01*
X220127464Y-34616872D01*
X220127461Y-34616866D01*
X220056276Y-34510331D01*
X220056273Y-34510327D01*
X219965672Y-34419726D01*
X219965668Y-34419723D01*
X219859133Y-34348538D01*
X219859124Y-34348533D01*
X219740744Y-34299499D01*
X219740738Y-34299497D01*
X219615071Y-34274500D01*
X219615069Y-34274500D01*
X219486931Y-34274500D01*
X219486929Y-34274500D01*
X219361261Y-34299497D01*
X219361255Y-34299499D01*
X219242875Y-34348533D01*
X219242866Y-34348538D01*
X219136331Y-34419723D01*
X219136327Y-34419726D01*
X219045726Y-34510327D01*
X219045723Y-34510331D01*
X218974538Y-34616866D01*
X218974533Y-34616875D01*
X218925499Y-34735255D01*
X218925497Y-34735261D01*
X218900500Y-34860928D01*
X218900500Y-34860931D01*
X218900500Y-34989069D01*
X218900500Y-34989071D01*
X218900499Y-34989071D01*
X193968042Y-34989071D01*
X194001649Y-34946929D01*
X194171985Y-34675841D01*
X194310898Y-34387386D01*
X194416640Y-34085191D01*
X194487883Y-33773057D01*
X194523730Y-33454909D01*
X194523730Y-33134747D01*
X194487883Y-32816599D01*
X194432984Y-32576071D01*
X217376499Y-32576071D01*
X217401497Y-32701738D01*
X217401499Y-32701744D01*
X217450533Y-32820124D01*
X217450538Y-32820133D01*
X217521723Y-32926668D01*
X217521726Y-32926672D01*
X217612327Y-33017273D01*
X217612331Y-33017276D01*
X217718866Y-33088461D01*
X217718872Y-33088464D01*
X217718873Y-33088465D01*
X217837256Y-33137501D01*
X217837260Y-33137501D01*
X217837261Y-33137502D01*
X217962928Y-33162500D01*
X217962931Y-33162500D01*
X218091071Y-33162500D01*
X218175615Y-33145682D01*
X218216744Y-33137501D01*
X218223405Y-33134742D01*
X236823650Y-33134742D01*
X236823650Y-33454913D01*
X236859495Y-33773044D01*
X236859497Y-33773056D01*
X236930739Y-34085190D01*
X236930740Y-34085192D01*
X237036482Y-34387387D01*
X237175393Y-34675838D01*
X237175395Y-34675841D01*
X237345731Y-34946929D01*
X237545348Y-35197241D01*
X237771737Y-35423630D01*
X238022049Y-35623247D01*
X238293137Y-35793583D01*
X238581592Y-35932496D01*
X238883787Y-36038238D01*
X239195921Y-36109481D01*
X239514065Y-36145327D01*
X239514066Y-36145328D01*
X239514069Y-36145328D01*
X239834234Y-36145328D01*
X239834234Y-36145327D01*
X240152379Y-36109481D01*
X240464513Y-36038238D01*
X240766708Y-35932496D01*
X241055163Y-35793583D01*
X241326251Y-35623247D01*
X241576563Y-35423630D01*
X241802952Y-35197241D01*
X242002569Y-34946929D01*
X242172905Y-34675841D01*
X242311818Y-34387386D01*
X242417560Y-34085191D01*
X242488803Y-33773057D01*
X242524650Y-33454909D01*
X242524650Y-33134747D01*
X242488803Y-32816599D01*
X242417560Y-32504465D01*
X242311818Y-32202270D01*
X242186031Y-31941071D01*
X247856499Y-31941071D01*
X247881497Y-32066738D01*
X247881499Y-32066744D01*
X247930533Y-32185124D01*
X247930538Y-32185133D01*
X248001723Y-32291668D01*
X248001726Y-32291672D01*
X248092327Y-32382273D01*
X248092331Y-32382276D01*
X248198866Y-32453461D01*
X248198872Y-32453464D01*
X248198873Y-32453465D01*
X248317256Y-32502501D01*
X248317260Y-32502501D01*
X248317261Y-32502502D01*
X248442928Y-32527500D01*
X248442931Y-32527500D01*
X248571071Y-32527500D01*
X248655615Y-32510682D01*
X248696744Y-32502501D01*
X248815127Y-32453465D01*
X248921669Y-32382276D01*
X249012276Y-32291669D01*
X249083465Y-32185127D01*
X249132501Y-32066744D01*
X249157500Y-31941069D01*
X249157500Y-31812931D01*
X249157500Y-31812928D01*
X249132502Y-31687261D01*
X249132501Y-31687260D01*
X249132501Y-31687256D01*
X249083465Y-31568873D01*
X249083464Y-31568872D01*
X249083461Y-31568866D01*
X249012276Y-31462331D01*
X249012273Y-31462327D01*
X248921672Y-31371726D01*
X248921668Y-31371723D01*
X248815133Y-31300538D01*
X248815124Y-31300533D01*
X248696744Y-31251499D01*
X248696738Y-31251497D01*
X248571071Y-31226500D01*
X248571069Y-31226500D01*
X248442931Y-31226500D01*
X248442929Y-31226500D01*
X248317261Y-31251497D01*
X248317255Y-31251499D01*
X248198875Y-31300533D01*
X248198866Y-31300538D01*
X248092331Y-31371723D01*
X248092327Y-31371726D01*
X248001726Y-31462327D01*
X248001723Y-31462331D01*
X247930538Y-31568866D01*
X247930533Y-31568875D01*
X247881499Y-31687255D01*
X247881497Y-31687261D01*
X247856500Y-31812928D01*
X247856500Y-31812931D01*
X247856500Y-31941069D01*
X247856500Y-31941071D01*
X247856499Y-31941071D01*
X242186031Y-31941071D01*
X242172905Y-31913815D01*
X242002569Y-31642727D01*
X241802952Y-31392415D01*
X241576563Y-31166026D01*
X241326251Y-30966409D01*
X241139022Y-30848765D01*
X241055160Y-30796071D01*
X240766709Y-30657160D01*
X240464514Y-30551418D01*
X240464512Y-30551417D01*
X240223621Y-30496435D01*
X240152379Y-30480175D01*
X240152375Y-30480174D01*
X240152366Y-30480173D01*
X239834235Y-30444328D01*
X239834231Y-30444328D01*
X239514069Y-30444328D01*
X239514064Y-30444328D01*
X239195933Y-30480173D01*
X239195921Y-30480175D01*
X238883787Y-30551417D01*
X238883785Y-30551418D01*
X238581590Y-30657160D01*
X238293139Y-30796071D01*
X238022050Y-30966408D01*
X237771737Y-31166025D01*
X237545347Y-31392415D01*
X237345730Y-31642728D01*
X237175393Y-31913817D01*
X237036482Y-32202268D01*
X236930740Y-32504463D01*
X236930739Y-32504465D01*
X236859497Y-32816599D01*
X236859495Y-32816611D01*
X236823650Y-33134742D01*
X218223405Y-33134742D01*
X218335127Y-33088465D01*
X218335133Y-33088461D01*
X218425372Y-33028166D01*
X218425372Y-33028165D01*
X218441666Y-33017278D01*
X218441665Y-33017278D01*
X218441669Y-33017276D01*
X218532276Y-32926669D01*
X218603465Y-32820127D01*
X218652501Y-32701744D01*
X218677500Y-32576069D01*
X218677500Y-32447931D01*
X218677500Y-32447928D01*
X218652502Y-32322261D01*
X218652501Y-32322260D01*
X218652501Y-32322256D01*
X218603465Y-32203873D01*
X218603464Y-32203872D01*
X218603461Y-32203866D01*
X218532276Y-32097331D01*
X218532273Y-32097327D01*
X218441672Y-32006726D01*
X218441668Y-32006723D01*
X218343414Y-31941071D01*
X218900499Y-31941071D01*
X218925497Y-32066738D01*
X218925499Y-32066744D01*
X218974533Y-32185124D01*
X218974538Y-32185133D01*
X219045723Y-32291668D01*
X219045726Y-32291672D01*
X219136327Y-32382273D01*
X219136331Y-32382276D01*
X219242866Y-32453461D01*
X219242872Y-32453464D01*
X219242873Y-32453465D01*
X219361256Y-32502501D01*
X219361260Y-32502501D01*
X219361261Y-32502502D01*
X219486928Y-32527500D01*
X219486931Y-32527500D01*
X219615071Y-32527500D01*
X219699615Y-32510682D01*
X219740744Y-32502501D01*
X219859127Y-32453465D01*
X219965669Y-32382276D01*
X220056276Y-32291669D01*
X220127465Y-32185127D01*
X220176501Y-32066744D01*
X220201500Y-31941069D01*
X220201500Y-31812931D01*
X220201500Y-31812928D01*
X220176502Y-31687261D01*
X220176501Y-31687260D01*
X220176501Y-31687256D01*
X220127465Y-31568873D01*
X220127464Y-31568872D01*
X220127461Y-31568866D01*
X220056276Y-31462331D01*
X220056273Y-31462327D01*
X219965672Y-31371726D01*
X219965668Y-31371723D01*
X219859133Y-31300538D01*
X219859124Y-31300533D01*
X219740744Y-31251499D01*
X219740738Y-31251497D01*
X219615071Y-31226500D01*
X219615069Y-31226500D01*
X219486931Y-31226500D01*
X219486929Y-31226500D01*
X219361261Y-31251497D01*
X219361255Y-31251499D01*
X219242875Y-31300533D01*
X219242866Y-31300538D01*
X219136331Y-31371723D01*
X219136327Y-31371726D01*
X219045726Y-31462327D01*
X219045723Y-31462331D01*
X218974538Y-31568866D01*
X218974533Y-31568875D01*
X218925499Y-31687255D01*
X218925497Y-31687261D01*
X218900500Y-31812928D01*
X218900500Y-31812931D01*
X218900500Y-31941069D01*
X218900500Y-31941071D01*
X218900499Y-31941071D01*
X218343414Y-31941071D01*
X218335133Y-31935538D01*
X218335120Y-31935531D01*
X218301003Y-31921400D01*
X218301002Y-31921400D01*
X218216744Y-31886499D01*
X218216738Y-31886497D01*
X218091071Y-31861500D01*
X218091069Y-31861500D01*
X217962931Y-31861500D01*
X217962929Y-31861500D01*
X217837261Y-31886497D01*
X217837255Y-31886499D01*
X217718875Y-31935533D01*
X217718866Y-31935538D01*
X217612331Y-32006723D01*
X217612327Y-32006726D01*
X217521726Y-32097327D01*
X217521723Y-32097331D01*
X217450538Y-32203866D01*
X217450533Y-32203875D01*
X217401499Y-32322255D01*
X217401497Y-32322261D01*
X217376500Y-32447928D01*
X217376500Y-32447931D01*
X217376500Y-32576069D01*
X217376500Y-32576071D01*
X217376499Y-32576071D01*
X194432984Y-32576071D01*
X194416640Y-32504465D01*
X194398794Y-32453465D01*
X194342180Y-32291669D01*
X194310898Y-32202270D01*
X194171985Y-31913815D01*
X194001649Y-31642727D01*
X193802032Y-31392415D01*
X193575643Y-31166026D01*
X193325331Y-30966409D01*
X193259542Y-30925071D01*
X227917499Y-30925071D01*
X227942497Y-31050738D01*
X227942499Y-31050744D01*
X227991533Y-31169124D01*
X227991538Y-31169133D01*
X228062723Y-31275668D01*
X228062726Y-31275672D01*
X228153327Y-31366273D01*
X228153331Y-31366276D01*
X228259866Y-31437461D01*
X228259872Y-31437464D01*
X228259873Y-31437465D01*
X228378256Y-31486501D01*
X228378260Y-31486501D01*
X228378261Y-31486502D01*
X228503928Y-31511500D01*
X228503931Y-31511500D01*
X228632071Y-31511500D01*
X228716615Y-31494682D01*
X228757744Y-31486501D01*
X228876127Y-31437465D01*
X228982669Y-31366276D01*
X229073276Y-31275669D01*
X229144465Y-31169127D01*
X229193501Y-31050744D01*
X229218500Y-30925069D01*
X229218500Y-30796931D01*
X229218500Y-30796928D01*
X229193502Y-30671261D01*
X229193501Y-30671260D01*
X229193501Y-30671256D01*
X229144465Y-30552873D01*
X229144464Y-30552872D01*
X229144461Y-30552866D01*
X229073276Y-30446331D01*
X229073273Y-30446327D01*
X228982672Y-30355726D01*
X228982668Y-30355723D01*
X228876133Y-30284538D01*
X228876124Y-30284533D01*
X228757744Y-30235499D01*
X228757738Y-30235497D01*
X228632071Y-30210500D01*
X228632069Y-30210500D01*
X228503931Y-30210500D01*
X228503929Y-30210500D01*
X228378261Y-30235497D01*
X228378255Y-30235499D01*
X228259875Y-30284533D01*
X228259866Y-30284538D01*
X228153331Y-30355723D01*
X228153327Y-30355726D01*
X228062726Y-30446327D01*
X228062723Y-30446331D01*
X227991538Y-30552866D01*
X227991533Y-30552875D01*
X227942499Y-30671255D01*
X227942497Y-30671261D01*
X227917500Y-30796928D01*
X227917500Y-30796931D01*
X227917500Y-30925069D01*
X227917500Y-30925071D01*
X227917499Y-30925071D01*
X193259542Y-30925071D01*
X193198361Y-30886628D01*
X193054240Y-30796071D01*
X192765789Y-30657160D01*
X192463594Y-30551418D01*
X192463592Y-30551417D01*
X192222701Y-30496435D01*
X192151459Y-30480175D01*
X192151455Y-30480174D01*
X192151446Y-30480173D01*
X191833315Y-30444328D01*
X191833311Y-30444328D01*
X191513149Y-30444328D01*
X191513144Y-30444328D01*
X191195013Y-30480173D01*
X191195001Y-30480175D01*
X190882867Y-30551417D01*
X190882865Y-30551418D01*
X190580670Y-30657160D01*
X190292219Y-30796071D01*
X190021130Y-30966408D01*
X189770817Y-31166025D01*
X189544427Y-31392415D01*
X189344810Y-31642728D01*
X189174473Y-31913817D01*
X189035562Y-32202268D01*
X188929820Y-32504463D01*
X188929819Y-32504465D01*
X188858577Y-32816599D01*
X188858575Y-32816611D01*
X188822730Y-33134742D01*
X30902500Y-33134742D01*
X30902500Y-28477511D01*
X30922185Y-28410472D01*
X30974989Y-28364717D01*
X31026501Y-28353511D01*
X271367015Y-28362717D01*
G37*
%TD.AperFunction*%
%TD*%
M02*
