M48
; DRILL file {KiCad 9.0.2} date 2025-06-03T00:46:46+0600
; FORMAT={-:-/ absolute / metric / decimal}
; #@! TF.CreationDate,2025-06-03T00:46:46+06:00
; #@! TF.GenerationSoftware,Kicad,Pcbnew,9.0.2
; #@! TF.FileFunction,Plated,1,4,PTH
FMAT,2
METRIC
; #@! TA.AperFunction,Plated,PTH,ViaDrill
T1C0.100
; #@! TA.AperFunction,Plated,PTH,ViaDrill
T2C0.300
; #@! TA.AperFunction,Plated,PTH,ComponentDrill
T3C2.700
; #@! TA.AperFunction,Plated,PTH,ComponentDrill
T4C4.400
%
G90
G05
T1
X166.465Y-55.245
X166.465Y-56.769
X167.608Y-56.007
X185.769Y-48.768
X185.769Y-50.292
X185.769Y-51.816
X185.769Y-53.34
X185.769Y-55.118
X185.769Y-56.769
X186.912Y-48.006
X186.912Y-49.53
X186.912Y-51.054
X186.912Y-52.578
X186.912Y-54.229
X186.912Y-56.007
X195.548Y-46.482
X195.548Y-48.768
X195.548Y-51.054
X196.437Y-47.625
X196.437Y-49.784
X196.437Y-52.197
X217.646Y-67.187
X219.234Y-67.187
X225.52Y-67.183
X226.409Y-64.389
X227.171Y-67.183
X228.695Y-67.183
T2
X38.195Y-32.004
X38.195Y-35.306
X38.195Y-38.608
X38.195Y-41.91
X38.957Y-43.434
X38.957Y-52.832
X38.957Y-57.531
X39.084Y-48.133
X41.624Y-48.133
X41.624Y-64.516
X41.751Y-43.434
X41.751Y-52.832
X41.751Y-57.531
X42.64Y-64.516
X45.18Y-43.307
X45.18Y-48.006
X45.18Y-52.705
X45.18Y-57.404
X46.577Y-68.58
X46.704Y-43.307
X46.704Y-48.006
X46.704Y-52.705
X46.704Y-57.404
X48.355Y-33.655
X48.355Y-36.957
X48.355Y-40.259
X48.99Y-68.707
X50.133Y-59.309
X51.149Y-57.404
X52.165Y-59.309
X53.181Y-57.404
X54.578Y-35.89
X54.578Y-39.243
X54.705Y-64.643
X56.61Y-64.008
X133.572Y-39.37
X137.657Y-32.385
X138.017Y-60.452
X141.631Y-39.482
X142.124Y-50.8
X145.637Y-36.195
X145.637Y-56.896
X146.399Y-37.719
X146.907Y-37.211
X146.907Y-39.243
X146.907Y-40.64
X146.907Y-42.164
X146.907Y-43.688
X146.907Y-45.212
X146.907Y-46.755
X146.907Y-48.26
X146.907Y-49.784
X146.907Y-51.181
X147.415Y-35.179
X147.415Y-57.785
X149.066Y-36.195
X149.193Y-56.896
X149.32Y-54.229
X149.32Y-55.245
X149.828Y-54.737
X149.828Y-55.753
X155.289Y-47.205
X156.94Y-48.26
X157.067Y-46.228
X160.496Y-35.433
X160.496Y-40.132
X161.893Y-42.545
X161.893Y-43.434
X161.893Y-44.323
X162.274Y-36.449
X162.274Y-39.243
X162.909Y-42.545
X162.909Y-43.434
X162.909Y-44.323
X163.925Y-42.545
X163.925Y-43.434
X163.925Y-44.323
X164.941Y-44.323
X166.084Y-43.942
X169.259Y-42.418
X169.894Y-36.449
X171.291Y-40.132
X172.434Y-36.449
X173.323Y-40.132
X189.831Y-41.04
X189.96Y-42.183
X189.96Y-43.326
X189.96Y-44.596
X189.96Y-45.739
X189.96Y-46.863
X189.96Y-48.133
X189.96Y-48.895
X189.96Y-50.8
X189.96Y-52.686
X189.96Y-54.737
X189.96Y-57.277
X189.96Y-59.182
X191.087Y-50.125
X191.103Y-48.733
X191.103Y-52.451
X191.103Y-54.483
X191.103Y-55.499
X191.103Y-56.896
X191.103Y-57.912
X191.103Y-59.182
X191.23Y-41.04
X191.357Y-43.326
X191.357Y-46.101
X191.375Y-42.183
X208.502Y-65.913
X208.502Y-67.31
X209.518Y-65.913
X209.58Y-30.349
X209.58Y-33.429
X209.645Y-67.31
X210.78Y-33.429
X210.785Y-30.344
X210.788Y-65.913
X210.788Y-67.31
X211.98Y-33.429
X211.98Y-30.349
X212.312Y-65.913
X212.693Y-67.31
X213.18Y-30.349
X213.18Y-33.429
X214.38Y-30.349
X214.38Y-33.429
X214.434Y-64.349
X214.852Y-67.31
X215.58Y-30.349
X215.58Y-33.429
X216.152Y-66.705
X216.434Y-64.349
X216.757Y-33.401
X216.78Y-30.349
X217.265Y-32.512
X218.027Y-32.512
X218.434Y-64.349
X218.789Y-68.961
X219.177Y-30.346
X219.551Y-31.877
X219.551Y-34.925
X220.034Y-64.349
X220.059Y-68.961
X220.38Y-31.657
X220.38Y-33.429
X221.202Y-68.961
X221.234Y-64.349
X221.558Y-33.409
X221.58Y-31.657
X222.345Y-68.961
X222.78Y-33.429
X222.834Y-64.349
X223.107Y-30.226
X223.829Y-30.223
X223.98Y-34.737
X225.063Y-31.779
X225.18Y-34.737
X226.38Y-30.349
X226.38Y-34.737
X227.58Y-30.349
X227.58Y-34.737
X227.637Y-64.346
X228.187Y-54.483
X228.187Y-56.134
X228.568Y-30.861
X228.822Y-34.737
X229.584Y-30.861
X229.584Y-55.245
X229.838Y-34.737
X232.378Y-54.483
X232.378Y-56.134
X233.883Y-55.245
X247.237Y-31.877
X248.507Y-31.877
X250.539Y-60.833
X250.92Y-68.961
X250.92Y-69.723
X251.682Y-66.548
X251.682Y-68.961
X251.682Y-69.723
X252.317Y-61.414
X252.444Y-68.961
X252.444Y-69.723
X253.206Y-68.961
X253.206Y-69.723
X253.968Y-68.961
X253.968Y-69.723
X261.334Y-67.996
X262.35Y-61.414
X262.985Y-61.414
X263.112Y-65.964
X265.017Y-65.913
X268.446Y-54.483
X270.986Y-50.8
X272.251Y-47.832
X272.383Y-50.837
X272.383Y-57.837
X272.383Y-59.837
X272.383Y-62.832
X272.383Y-63.881
X272.383Y-64.897
X272.383Y-65.786
X273.267Y-47.832
X273.399Y-50.837
X273.399Y-57.837
X273.399Y-59.837
X273.399Y-62.832
X273.399Y-63.881
X273.399Y-64.897
X273.399Y-65.786
X274.283Y-47.832
X274.415Y-50.837
X274.415Y-57.837
X274.415Y-59.837
X274.415Y-62.832
X274.415Y-63.881
X274.415Y-64.897
X274.415Y-65.786
T3
X191.673Y-33.295
X191.673Y-66.295
X239.674Y-33.295
X239.674Y-66.295
T4
X64.636Y-46.482
M30
