%TF.GenerationSoftware,KiCad,Pcbnew,9.0.2*%
%TF.CreationDate,2025-06-03T00:46:39+06:00*%
%TF.ProjectId,OPI CM5 Blade board,4f504920-434d-4352-9042-6c6164652062,rev?*%
%TF.SameCoordinates,Original*%
%TF.FileFunction,Copper,L1,Top*%
%TF.FilePolarity,Positive*%
%FSLAX46Y46*%
G04 Gerber Fmt 4.6, Leading zero omitted, Abs format (unit mm)*
G04 Created by KiCad (PCBNEW 9.0.2) date 2025-06-03 00:46:39*
%MOMM*%
%LPD*%
G01*
G04 APERTURE LIST*
G04 Aperture macros list*
%AMRoundRect*
0 Rectangle with rounded corners*
0 $1 Rounding radius*
0 $2 $3 $4 $5 $6 $7 $8 $9 X,Y pos of 4 corners*
0 Add a 4 corners polygon primitive as box body*
4,1,4,$2,$3,$4,$5,$6,$7,$8,$9,$2,$3,0*
0 Add four circle primitives for the rounded corners*
1,1,$1+$1,$2,$3*
1,1,$1+$1,$4,$5*
1,1,$1+$1,$6,$7*
1,1,$1+$1,$8,$9*
0 Add four rect primitives between the rounded corners*
20,1,$1+$1,$2,$3,$4,$5,0*
20,1,$1+$1,$4,$5,$6,$7,0*
20,1,$1+$1,$6,$7,$8,$9,0*
20,1,$1+$1,$8,$9,$2,$3,0*%
G04 Aperture macros list end*
%TA.AperFunction,SMDPad,CuDef*%
%ADD10RoundRect,0.100000X0.217500X0.100000X-0.217500X0.100000X-0.217500X-0.100000X0.217500X-0.100000X0*%
%TD*%
%TA.AperFunction,SMDPad,CuDef*%
%ADD11RoundRect,0.100000X-0.100000X0.217500X-0.100000X-0.217500X0.100000X-0.217500X0.100000X0.217500X0*%
%TD*%
%TA.AperFunction,ComponentPad*%
%ADD12C,4.700000*%
%TD*%
%TA.AperFunction,SMDPad,CuDef*%
%ADD13RoundRect,0.100000X0.100000X-0.217500X0.100000X0.217500X-0.100000X0.217500X-0.100000X-0.217500X0*%
%TD*%
%TA.AperFunction,SMDPad,CuDef*%
%ADD14RoundRect,0.050000X0.150000X0.300000X-0.150000X0.300000X-0.150000X-0.300000X0.150000X-0.300000X0*%
%TD*%
%TA.AperFunction,SMDPad,CuDef*%
%ADD15R,0.990600X0.711200*%
%TD*%
%TA.AperFunction,SMDPad,CuDef*%
%ADD16RoundRect,0.100000X-0.217500X-0.100000X0.217500X-0.100000X0.217500X0.100000X-0.217500X0.100000X0*%
%TD*%
%TA.AperFunction,SMDPad,CuDef*%
%ADD17RoundRect,0.050000X-0.300000X0.150000X-0.300000X-0.150000X0.300000X-0.150000X0.300000X0.150000X0*%
%TD*%
%TA.AperFunction,SMDPad,CuDef*%
%ADD18R,3.606800X1.803400*%
%TD*%
%TA.AperFunction,SMDPad,CuDef*%
%ADD19R,0.200000X0.700000*%
%TD*%
%TA.AperFunction,SMDPad,CuDef*%
%ADD20R,1.550000X0.300000*%
%TD*%
%TA.AperFunction,ComponentPad*%
%ADD21C,7.400000*%
%TD*%
%TA.AperFunction,SMDPad,CuDef*%
%ADD22R,2.750000X1.200000*%
%TD*%
%TA.AperFunction,SMDPad,CuDef*%
%ADD23RoundRect,0.250000X-0.475000X0.337500X-0.475000X-0.337500X0.475000X-0.337500X0.475000X0.337500X0*%
%TD*%
%TA.AperFunction,SMDPad,CuDef*%
%ADD24RoundRect,0.250000X0.337500X0.475000X-0.337500X0.475000X-0.337500X-0.475000X0.337500X-0.475000X0*%
%TD*%
%TA.AperFunction,SMDPad,CuDef*%
%ADD25R,0.700000X0.200000*%
%TD*%
%TA.AperFunction,SMDPad,CuDef*%
%ADD26R,1.750000X0.600000*%
%TD*%
%TA.AperFunction,SMDPad,CuDef*%
%ADD27RoundRect,0.237500X0.287500X0.237500X-0.287500X0.237500X-0.287500X-0.237500X0.287500X-0.237500X0*%
%TD*%
%TA.AperFunction,SMDPad,CuDef*%
%ADD28RoundRect,0.250000X0.475000X-0.337500X0.475000X0.337500X-0.475000X0.337500X-0.475000X-0.337500X0*%
%TD*%
%TA.AperFunction,SMDPad,CuDef*%
%ADD29RoundRect,0.162500X0.162500X-0.617500X0.162500X0.617500X-0.162500X0.617500X-0.162500X-0.617500X0*%
%TD*%
%TA.AperFunction,ConnectorPad*%
%ADD30R,4.300000X0.700000*%
%TD*%
%TA.AperFunction,ConnectorPad*%
%ADD31R,3.200000X0.700000*%
%TD*%
%TA.AperFunction,SMDPad,CuDef*%
%ADD32R,0.500000X0.300000*%
%TD*%
%TA.AperFunction,ViaPad*%
%ADD33C,0.600000*%
%TD*%
%TA.AperFunction,ViaPad*%
%ADD34C,0.300000*%
%TD*%
%TA.AperFunction,Conductor*%
%ADD35C,1.000000*%
%TD*%
%TA.AperFunction,Conductor*%
%ADD36C,0.200000*%
%TD*%
%TA.AperFunction,Conductor*%
%ADD37C,0.250000*%
%TD*%
%TA.AperFunction,Conductor*%
%ADD38C,1.150000*%
%TD*%
%TA.AperFunction,Conductor*%
%ADD39C,0.500000*%
%TD*%
%TA.AperFunction,Conductor*%
%ADD40C,2.000000*%
%TD*%
G04 APERTURE END LIST*
D10*
%TO.P,R13,1*%
%TO.N,/M.2_ACT*%
X42539500Y-30988000D03*
%TO.P,R13,2*%
%TO.N,Net-(D11-K)*%
X41724500Y-30988000D03*
%TD*%
D11*
%TO.P,R2,1*%
%TO.N,/PWRON_L*%
X47974000Y-58139500D03*
%TO.P,R2,2*%
%TO.N,Net-(D2-A2)*%
X47974000Y-58954500D03*
%TD*%
D12*
%TO.P,H2,1,1*%
%TO.N,unconnected-(H2-Pad1)*%
X191673230Y-66294508D03*
%TD*%
D11*
%TO.P,CC2,1*%
%TO.N,+3.3V_3A*%
X160496000Y-33882500D03*
%TO.P,CC2,2*%
%TO.N,GND*%
X160496000Y-34697500D03*
%TD*%
D13*
%TO.P,R4,1*%
%TO.N,Net-(U4-FB)*%
X170656000Y-43206500D03*
%TO.P,R4,2*%
%TO.N,+3.3V_3A*%
X170656000Y-42391500D03*
%TD*%
D14*
%TO.P,ED5,1,A1*%
%TO.N,GND*%
X39829000Y-62331875D03*
%TO.P,ED5,2,A2*%
%TO.N,Net-(ED5-A2)*%
X39129000Y-62331875D03*
%TD*%
D13*
%TO.P,CC4,1*%
%TO.N,+12V*%
X160496000Y-41682500D03*
%TO.P,CC4,2*%
%TO.N,GND*%
X160496000Y-40867500D03*
%TD*%
D11*
%TO.P,R14,1*%
%TO.N,/PMIC_RESET_L*%
X47974000Y-44042500D03*
%TO.P,R14,2*%
%TO.N,Net-(D17-A2)*%
X47974000Y-44857500D03*
%TD*%
D10*
%TO.P,R3,1*%
%TO.N,+5V_3A*%
X52713500Y-35890275D03*
%TO.P,R3,2*%
%TO.N,Net-(D3-K)*%
X51898500Y-35890275D03*
%TD*%
D15*
%TO.P,SW4,1,1*%
%TO.N,GND*%
X38103999Y-57472001D03*
%TO.P,SW4,2,2*%
X42604001Y-57472001D03*
%TO.P,SW4,3,3*%
%TO.N,Net-(D2-A2)*%
X38103999Y-59621999D03*
%TO.P,SW4,4,4*%
X42604001Y-59621999D03*
%TD*%
D16*
%TO.P,C11,1*%
%TO.N,Net-(J5-SATA_A-{slash}PETN0)*%
X152087500Y-48514000D03*
%TO.P,C11,2*%
%TO.N,/PCIE20_0_TXN*%
X152902500Y-48514000D03*
%TD*%
D13*
%TO.P,CC5,1*%
%TO.N,+12V*%
X251174000Y-67387300D03*
%TO.P,CC5,2*%
%TO.N,GND*%
X251174000Y-66572300D03*
%TD*%
D17*
%TO.P,ED6,1,A1*%
%TO.N,GND*%
X42654000Y-65156875D03*
%TO.P,ED6,2,A2*%
%TO.N,Net-(ED6-A2)*%
X42654000Y-65856875D03*
%TD*%
D11*
%TO.P,CC6,1*%
%TO.N,Net-(U5-EN)*%
X262604000Y-65048300D03*
%TO.P,CC6,2*%
%TO.N,GND*%
X262604000Y-65863300D03*
%TD*%
D13*
%TO.P,CC1,1*%
%TO.N,Net-(D2-A2)*%
X46704000Y-58954500D03*
%TO.P,CC1,2*%
%TO.N,GND*%
X46704000Y-58139500D03*
%TD*%
D18*
%TO.P,L1,1*%
%TO.N,Net-(U4-VIN)*%
X166084000Y-35636200D03*
%TO.P,L1,2*%
%TO.N,+3.3V_3A*%
X166084000Y-32943800D03*
%TD*%
D11*
%TO.P,C17,1*%
%TO.N,+5V_3A*%
X264382000Y-68096300D03*
%TO.P,C17,2*%
%TO.N,Net-(U5-FB)*%
X264382000Y-68911300D03*
%TD*%
D10*
%TO.P,R7,1*%
%TO.N,/USER_LED*%
X42539500Y-34290000D03*
%TO.P,R7,2*%
%TO.N,Net-(D8-K)*%
X41724500Y-34290000D03*
%TD*%
D19*
%TO.P,J2,1,Pin_1*%
%TO.N,/TYPEC0_USB20_OTG_ID*%
X208379527Y-34082790D03*
%TO.P,J2,2,Pin_2*%
%TO.N,/GPIO1_A0*%
X208379527Y-31002790D03*
%TO.P,J2,3,Pin_3*%
%TO.N,/TYPEC0_USB20_OTG_DM*%
X208779527Y-34082790D03*
%TO.P,J2,4,Pin_4*%
%TO.N,/GPIO1_A1*%
X208779527Y-31002790D03*
%TO.P,J2,5,Pin_5*%
%TO.N,/TYPEC0_USB20_OTG_DP*%
X209179527Y-34082790D03*
%TO.P,J2,6,Pin_6*%
%TO.N,/GPIO4_A6*%
X209179527Y-31002790D03*
%TO.P,J2,7,Pin_7*%
%TO.N,GND*%
X209579527Y-34082790D03*
%TO.P,J2,8,Pin_8*%
X209579527Y-31002790D03*
%TO.P,J2,9,Pin_9*%
%TO.N,/GPIO4_A2*%
X209979527Y-34082790D03*
%TO.P,J2,10,Pin_10*%
%TO.N,/PCIE20_2_REFCLKP*%
X209979527Y-31002790D03*
%TO.P,J2,11,Pin_11*%
%TO.N,/Reserved*%
X210379527Y-34082790D03*
%TO.P,J2,12,Pin_12*%
%TO.N,/PCIE20_2_REFCLKN*%
X210379527Y-31002790D03*
%TO.P,J2,13,Pin_13*%
%TO.N,GND*%
X210779527Y-34082790D03*
%TO.P,J2,14,Pin_14*%
X210779527Y-31002790D03*
%TO.P,J2,15,Pin_15*%
%TO.N,/MIPI_CSI0_D0N*%
X211179527Y-34082790D03*
%TO.P,J2,16,Pin_16*%
%TO.N,/PCIE20_2_RXP{slash}SATA30_2_RXP*%
X211179527Y-31002790D03*
%TO.P,J2,17,Pin_17*%
%TO.N,/MIPI_CSI0_D0P*%
X211579527Y-34082790D03*
%TO.P,J2,18,Pin_18*%
%TO.N,/PCIE20_2_RXN{slash}SATA30_2_RXN*%
X211579527Y-31002790D03*
%TO.P,J2,19,Pin_19*%
%TO.N,GND*%
X211979527Y-34082790D03*
%TO.P,J2,20,Pin_20*%
X211979527Y-31002790D03*
%TO.P,J2,21,Pin_21*%
%TO.N,/MIPI_CSI0_D1N*%
X212379527Y-34082790D03*
%TO.P,J2,22,Pin_22*%
%TO.N,/PCIE20_2_TXP{slash}SATA30_2_TXP*%
X212379527Y-31002790D03*
%TO.P,J2,23,Pin_23*%
%TO.N,/MIPI_CSI0_D1P*%
X212779527Y-34082790D03*
%TO.P,J2,24,Pin_24*%
%TO.N,/PCIE20_2_TXN{slash}SATA30_2_TXN*%
X212779527Y-31002790D03*
%TO.P,J2,25,Pin_25*%
%TO.N,GND*%
X213179527Y-34082790D03*
%TO.P,J2,26,Pin_26*%
X213179527Y-31002790D03*
%TO.P,J2,27,Pin_27*%
%TO.N,/MIPI_CSI0_CLK0N*%
X213579527Y-34082790D03*
%TO.P,J2,28,Pin_28*%
%TO.N,/MIPI_DPHY0_RX_D0N*%
X213579527Y-31002790D03*
%TO.P,J2,29,Pin_29*%
%TO.N,/MIPI_CSI0_CLK0P*%
X213979527Y-34082790D03*
%TO.P,J2,30,Pin_30*%
%TO.N,/MIPI_DPHY0_RX_D0P*%
X213979527Y-31002790D03*
%TO.P,J2,31,Pin_31*%
%TO.N,GND*%
X214379527Y-34082790D03*
%TO.P,J2,32,Pin_32*%
X214379527Y-31002790D03*
%TO.P,J2,33,Pin_33*%
%TO.N,/MIPI_CSI0_D2N*%
X214779527Y-34082790D03*
%TO.P,J2,34,Pin_34*%
%TO.N,/MIPI_DPHY0_RX_D1N*%
X214779527Y-31002790D03*
%TO.P,J2,35,Pin_35*%
%TO.N,/MIPI_CSI0_D2N*%
X215179527Y-34082790D03*
%TO.P,J2,36,Pin_36*%
%TO.N,/MIPI_DPHY0_RX_D1P*%
X215179527Y-31002790D03*
%TO.P,J2,37,Pin_37*%
%TO.N,GND*%
X215579527Y-34082790D03*
%TO.P,J2,38,Pin_38*%
X215579527Y-31002790D03*
%TO.P,J2,39,Pin_39*%
%TO.N,/MIPI_CSI0_D3N*%
X215979527Y-34082790D03*
%TO.P,J2,40,Pin_40*%
%TO.N,/MIPI_DPHY0_RX_CLKN*%
X215979527Y-31002790D03*
%TO.P,J2,41,Pin_41*%
%TO.N,/MIPI_CSI0_D3P*%
X216379527Y-34082790D03*
%TO.P,J2,42,Pin_42*%
%TO.N,/MIPI_DPHY0_RX_CLKP*%
X216379527Y-31002790D03*
%TO.P,J2,43,Pin_43*%
%TO.N,GND*%
X216779527Y-34082790D03*
%TO.P,J2,44,Pin_44*%
X216779527Y-31002790D03*
%TO.P,J2,45,Pin_45*%
%TO.N,/MIPI_CSI0_CLK1N*%
X217179527Y-34082790D03*
%TO.P,J2,46,Pin_46*%
%TO.N,/Reserved*%
X217179527Y-31002790D03*
%TO.P,J2,47,Pin_47*%
%TO.N,/MIPI_CSI0_CLK1P*%
X217579527Y-34082790D03*
%TO.P,J2,48,Pin_48*%
%TO.N,/Reserved*%
X217579527Y-31002790D03*
%TO.P,J2,49,Pin_49*%
%TO.N,/HDMI0_TX_ON_H*%
X217979527Y-34082790D03*
%TO.P,J2,50,Pin_50*%
%TO.N,GND*%
X217979527Y-31002790D03*
%TO.P,J2,51,Pin_51*%
%TO.N,/HDMI0_TX_CEC_M0*%
X218379527Y-34082790D03*
%TO.P,J2,52,Pin_52*%
%TO.N,/Reserved*%
X218379527Y-31002790D03*
%TO.P,J2,53,Pin_53*%
%TO.N,/HDMI0_SBDN*%
X218779527Y-34082790D03*
%TO.P,J2,54,Pin_54*%
%TO.N,/Reserved*%
X218779527Y-31002790D03*
%TO.P,J2,55,Pin_55*%
%TO.N,GND*%
X219179527Y-34082790D03*
%TO.P,J2,56,Pin_56*%
X219179527Y-31002790D03*
%TO.P,J2,57,Pin_57*%
%TO.N,/MIPI_DPHY0_TX_D0N*%
X219579527Y-34082790D03*
%TO.P,J2,58,Pin_58*%
%TO.N,/HDMI0_SBDP*%
X219579527Y-31002790D03*
%TO.P,J2,59,Pin_59*%
%TO.N,/MIPI_DPHY0_TX_D0P*%
X219979527Y-34082790D03*
%TO.P,J2,60,Pin_60*%
%TO.N,/Reserved*%
X219979527Y-31002790D03*
%TO.P,J2,61,Pin_61*%
%TO.N,GND*%
X220379527Y-34082790D03*
%TO.P,J2,62,Pin_62*%
X220379527Y-31002790D03*
%TO.P,J2,63,Pin_63*%
%TO.N,/MIPI_DPHY0_TX_D1N*%
X220779527Y-34082790D03*
%TO.P,J2,64,Pin_64*%
%TO.N,/Reserved*%
X220779527Y-31002790D03*
%TO.P,J2,65,Pin_65*%
%TO.N,/MIPI_DPHY0_TX_D1P*%
X221179527Y-34082790D03*
%TO.P,J2,66,Pin_66*%
%TO.N,/Reserved*%
X221179527Y-31002790D03*
%TO.P,J2,67,Pin_67*%
%TO.N,GND*%
X221579527Y-34082790D03*
%TO.P,J2,68,Pin_68*%
X221579527Y-31002790D03*
%TO.P,J2,69,Pin_69*%
%TO.N,/MIPI_DPHY0_TX_CLKN*%
X221979527Y-34082790D03*
%TO.P,J2,70,Pin_70*%
%TO.N,/HDMI0_TX2P*%
X221979527Y-31002790D03*
%TO.P,J2,71,Pin_71*%
%TO.N,/MIPI_DPHY0_TX_CLKP*%
X222379527Y-34082790D03*
%TO.P,J2,72,Pin_72*%
%TO.N,/HDMI0_TX2N*%
X222379527Y-31002790D03*
%TO.P,J2,73,Pin_73*%
%TO.N,GND*%
X222779527Y-34082790D03*
%TO.P,J2,74,Pin_74*%
X222779527Y-31002790D03*
%TO.P,J2,75,Pin_75*%
%TO.N,/MIPI_DPHY1_TX_D0N*%
X223179527Y-34082790D03*
%TO.P,J2,76,Pin_76*%
%TO.N,/HDMI0_TX1P*%
X223179527Y-31002790D03*
%TO.P,J2,77,Pin_77*%
%TO.N,/MIPI_DPHY1_TX_D0P*%
X223579527Y-34082790D03*
%TO.P,J2,78,Pin_78*%
%TO.N,/HDMI0_TX1N*%
X223579527Y-31002790D03*
%TO.P,J2,79,Pin_79*%
%TO.N,GND*%
X223979527Y-34082790D03*
%TO.P,J2,80,Pin_80*%
X223979527Y-31002790D03*
%TO.P,J2,81,Pin_81*%
%TO.N,/MIPI_DPHY1_TX_D1N*%
X224379527Y-34082790D03*
%TO.P,J2,82,Pin_82*%
%TO.N,/HDMI0_TX0P*%
X224379527Y-31002790D03*
%TO.P,J2,83,Pin_83*%
%TO.N,/MIPI_DPHY1_TX_D1P*%
X224779527Y-34082790D03*
%TO.P,J2,84,Pin_84*%
%TO.N,/HDMI0_TX0N*%
X224779527Y-31002790D03*
%TO.P,J2,85,Pin_85*%
%TO.N,GND*%
X225179527Y-34082790D03*
%TO.P,J2,86,Pin_86*%
X225179527Y-31002790D03*
%TO.P,J2,87,Pin_87*%
%TO.N,/MIPI_DPHY1_TX_CLKN*%
X225579527Y-34082790D03*
%TO.P,J2,88,Pin_88*%
%TO.N,/HDMI0_TX3P*%
X225579527Y-31002790D03*
%TO.P,J2,89,Pin_89*%
%TO.N,/MIPI_DPHY1_TX_CLKP*%
X225979527Y-34082790D03*
%TO.P,J2,90,Pin_90*%
%TO.N,/HDMI0_TX3N*%
X225979527Y-31002790D03*
%TO.P,J2,91,Pin_91*%
%TO.N,GND*%
X226379527Y-34082790D03*
%TO.P,J2,92,Pin_92*%
X226379527Y-31002790D03*
%TO.P,J2,93,Pin_93*%
%TO.N,/MIPI_DPHY1_TX_D2N*%
X226779527Y-34082790D03*
%TO.P,J2,94,Pin_94*%
%TO.N,/MIPI_DPHY1_TX_D3N*%
X226779527Y-31002790D03*
%TO.P,J2,95,Pin_95*%
%TO.N,/MIPI_DPHY1_TX_D2P*%
X227179527Y-34082790D03*
%TO.P,J2,96,Pin_96*%
%TO.N,/MIPI_DPHY1_TX_D3P*%
X227179527Y-31002790D03*
%TO.P,J2,97,Pin_97*%
%TO.N,GND*%
X227579527Y-34082790D03*
%TO.P,J2,98,Pin_98*%
X227579527Y-31002790D03*
%TO.P,J2,99,Pin_99*%
%TO.N,/HDMI0_TX_SDA_M0*%
X227979527Y-34082790D03*
%TO.P,J2,100,Pin_100*%
%TO.N,/HDMI0_TX_SCL_M0*%
X227979527Y-31002790D03*
%TD*%
D20*
%TO.P,J5,1,CONFIG_3*%
%TO.N,GND*%
X148161500Y-37232000D03*
%TO.P,J5,2,VCC_3.3*%
%TO.N,+3.3V_3A*%
X140611500Y-37482000D03*
%TO.P,J5,3,GND*%
%TO.N,GND*%
X148161500Y-37732000D03*
%TO.P,J5,4,VCC_3.3*%
%TO.N,+3.3V_3A*%
X140611500Y-37982000D03*
%TO.P,J5,5,PERN3*%
%TO.N,unconnected-(J5-PERN3-Pad5)*%
X148161500Y-38232000D03*
%TO.P,J5,6,N/A*%
%TO.N,unconnected-(J5-N{slash}A-Pad20)_2*%
X140611500Y-38482000D03*
%TO.P,J5,7,PERP3*%
%TO.N,unconnected-(J5-PERP3-Pad7)*%
X148161500Y-38732000D03*
%TO.P,J5,8,N/A*%
%TO.N,unconnected-(J5-N{slash}A-Pad20)_15*%
X140611500Y-38982000D03*
%TO.P,J5,9,GND*%
%TO.N,GND*%
X148161500Y-39232000D03*
%TO.P,J5,10,DAS/DSS*%
%TO.N,/M.2_ACT*%
X140611500Y-39482000D03*
%TO.P,J5,11,PETN3*%
%TO.N,unconnected-(J5-PETN3-Pad11)*%
X148161500Y-39732000D03*
%TO.P,J5,12,VCC_3.3*%
%TO.N,+3.3V_3A*%
X140611500Y-39982000D03*
%TO.P,J5,13,PETP3*%
%TO.N,unconnected-(J5-PETP3-Pad13)*%
X148161500Y-40232000D03*
%TO.P,J5,14,VCC_3.3*%
%TO.N,+3.3V_3A*%
X140611500Y-40482000D03*
%TO.P,J5,15,GND*%
%TO.N,GND*%
X148161500Y-40732000D03*
%TO.P,J5,16,VCC_3.3*%
%TO.N,+3.3V_3A*%
X140611500Y-40982000D03*
%TO.P,J5,17,PERN2*%
%TO.N,unconnected-(J5-PERN2-Pad17)*%
X148161500Y-41232000D03*
%TO.P,J5,18,VCC_3.3*%
%TO.N,+3.3V_3A*%
X140611500Y-41482000D03*
%TO.P,J5,19,PERP2*%
%TO.N,unconnected-(J5-PERP2-Pad19)*%
X148161500Y-41732000D03*
%TO.P,J5,20,N/A*%
%TO.N,unconnected-(J5-N{slash}A-Pad20)_11*%
X140611500Y-41982000D03*
%TO.P,J5,21,CONFIG_0*%
%TO.N,GND*%
X148161500Y-42232000D03*
%TO.P,J5,22,N/A*%
%TO.N,unconnected-(J5-N{slash}A-Pad20)*%
X140611500Y-42482000D03*
%TO.P,J5,23,PETN2*%
%TO.N,unconnected-(J5-PETN2-Pad23)*%
X148161500Y-42732000D03*
%TO.P,J5,24,N/A*%
%TO.N,unconnected-(J5-N{slash}A-Pad20)_1*%
X140611500Y-42982000D03*
%TO.P,J5,25,PETP2*%
%TO.N,unconnected-(J5-PETP2-Pad25)*%
X148161500Y-43232000D03*
%TO.P,J5,26,N/A*%
%TO.N,unconnected-(J5-N{slash}A-Pad20)_12*%
X140611500Y-43482000D03*
%TO.P,J5,27,GND*%
%TO.N,GND*%
X148161500Y-43732000D03*
%TO.P,J5,28,N/A*%
%TO.N,unconnected-(J5-N{slash}A-Pad20)_5*%
X140611500Y-43982000D03*
%TO.P,J5,29,PERN1*%
%TO.N,unconnected-(J5-PERN1-Pad29)*%
X148161500Y-44232000D03*
%TO.P,J5,30,N/A*%
%TO.N,unconnected-(J5-N{slash}A-Pad20)_9*%
X140611500Y-44482000D03*
%TO.P,J5,31,PERP1*%
%TO.N,unconnected-(J5-PERP1-Pad31)*%
X148161500Y-44732000D03*
%TO.P,J5,32,N/A*%
%TO.N,unconnected-(J5-N{slash}A-Pad20)_3*%
X140611500Y-44982000D03*
%TO.P,J5,33,GND*%
%TO.N,GND*%
X148161500Y-45232000D03*
%TO.P,J5,34,N/A*%
%TO.N,unconnected-(J5-N{slash}A-Pad20)_8*%
X140611500Y-45482000D03*
%TO.P,J5,35,PETN1*%
%TO.N,unconnected-(J5-PETN1-Pad35)*%
X148161500Y-45732000D03*
%TO.P,J5,36,N/A*%
%TO.N,unconnected-(J5-N{slash}A-Pad20)_14*%
X140611500Y-45982000D03*
%TO.P,J5,37,PETP1*%
%TO.N,unconnected-(J5-PETP1-Pad37)*%
X148161500Y-46232000D03*
%TO.P,J5,38,DEVSLP*%
%TO.N,unconnected-(J5-DEVSLP-Pad38)*%
X140611500Y-46482000D03*
%TO.P,J5,39,GND*%
%TO.N,GND*%
X148161500Y-46732000D03*
%TO.P,J5,40,N/A*%
%TO.N,unconnected-(J5-N{slash}A-Pad20)_13*%
X140611500Y-46982000D03*
%TO.P,J5,41,SATA_B+/PERN0*%
%TO.N,/PCIE20_0_RXN*%
X148161500Y-47232000D03*
%TO.P,J5,42,N/A*%
%TO.N,unconnected-(J5-N{slash}A-Pad20)_6*%
X140611500Y-47482000D03*
%TO.P,J5,43,SATA_B-/PERP0*%
%TO.N,/PCIE20_0_RXP*%
X148161500Y-47732000D03*
%TO.P,J5,44,N/A*%
%TO.N,unconnected-(J5-N{slash}A-Pad20)_10*%
X140611500Y-47982000D03*
%TO.P,J5,45,GND*%
%TO.N,GND*%
X148161500Y-48232000D03*
%TO.P,J5,46,N/A*%
%TO.N,unconnected-(J5-N{slash}A-Pad20)_16*%
X140611500Y-48482000D03*
%TO.P,J5,47,SATA_A-/PETN0*%
%TO.N,Net-(J5-SATA_A-{slash}PETN0)*%
X148161500Y-48732000D03*
%TO.P,J5,48,N/A*%
%TO.N,unconnected-(J5-N{slash}A-Pad20)_7*%
X140611500Y-48982000D03*
%TO.P,J5,49,SATA_A+/PETP0*%
%TO.N,Net-(J5-SATA_A+{slash}PETP0)*%
X148161500Y-49232000D03*
%TO.P,J5,50,~{PERST}*%
%TO.N,/PCIE20x1_2_PERSTn_M0*%
X140611500Y-49482000D03*
%TO.P,J5,51,GND*%
%TO.N,GND*%
X148161500Y-49732000D03*
%TO.P,J5,52,~{CLKREQ}*%
%TO.N,/PCIE20x1_2_CLKREQn_M0*%
X140611500Y-49982000D03*
%TO.P,J5,53,REFCLKN*%
%TO.N,/PCIE20_0_REFCLKN*%
X148161500Y-50232000D03*
%TO.P,J5,54,~{PEWAKE}*%
%TO.N,/PCIE20x1_2_WAKEn_M0*%
X140611500Y-50482000D03*
%TO.P,J5,55,REFCLKP*%
%TO.N,/PCIE20_0_REFCLKP*%
X148161500Y-50732000D03*
%TO.P,J5,56,MFG1*%
%TO.N,unconnected-(J5-MFG1-Pad56)*%
X140611500Y-50982000D03*
%TO.P,J5,57,GND*%
%TO.N,GND*%
X148161500Y-51232000D03*
%TO.P,J5,58,MFG2*%
%TO.N,unconnected-(J5-MFG2-Pad58)*%
X140611500Y-51482000D03*
%TO.P,J5,67,N/A*%
%TO.N,unconnected-(J5-N{slash}A-Pad20)_4*%
X148161500Y-53732000D03*
%TO.P,J5,68,SUSCLK*%
%TO.N,unconnected-(J5-SUSCLK-Pad68)*%
X140611500Y-53982000D03*
%TO.P,J5,69,CONFIG_1*%
%TO.N,GND*%
X148161500Y-54232000D03*
%TO.P,J5,70,VCC_3.3*%
%TO.N,+3.3V_3A*%
X140611500Y-54482000D03*
%TO.P,J5,71,GND*%
%TO.N,GND*%
X148161500Y-54732000D03*
%TO.P,J5,72,VCC_3.3*%
%TO.N,+3.3V_3A*%
X140611500Y-54982000D03*
%TO.P,J5,73,GND*%
%TO.N,GND*%
X148161500Y-55232000D03*
%TO.P,J5,74,VCC_3.3*%
%TO.N,+3.3V_3A*%
X140611500Y-55482000D03*
%TO.P,J5,75,CONFIG_2*%
%TO.N,GND*%
X148161500Y-55732000D03*
D21*
%TO.P,J5,80,GND*%
X64636500Y-46482000D03*
D22*
%TO.P,J5,S1,GND*%
X147386500Y-36132000D03*
%TO.P,J5,S2,GND*%
X147386500Y-56832000D03*
%TD*%
D11*
%TO.P,R22,1*%
%TO.N,Net-(U5-EN)*%
X264382000Y-65048300D03*
%TO.P,R22,2*%
%TO.N,GND*%
X264382000Y-65863300D03*
%TD*%
D10*
%TO.P,R12,1*%
%TO.N,/UART2_RX*%
X39886500Y-69469000D03*
%TO.P,R12,2*%
%TO.N,Net-(ED5-A2)*%
X39071500Y-69469000D03*
%TD*%
D23*
%TO.P,C9,1*%
%TO.N,+3.3V_3A*%
X162274000Y-33252500D03*
%TO.P,C9,2*%
%TO.N,GND*%
X162274000Y-35327500D03*
%TD*%
D24*
%TO.P,C43,1*%
%TO.N,+3.3V_3A*%
X140832500Y-32385000D03*
%TO.P,C43,2*%
%TO.N,GND*%
X138757500Y-32385000D03*
%TD*%
D10*
%TO.P,R8,1*%
%TO.N,/TMP_SN1_LED*%
X42539500Y-40894000D03*
%TO.P,R8,2*%
%TO.N,Net-(D9-K)*%
X41724500Y-40894000D03*
%TD*%
%TO.P,R6,1*%
%TO.N,/DEBUG_LED*%
X42539500Y-37592000D03*
%TO.P,R6,2*%
%TO.N,Net-(D7-K)*%
X41724500Y-37592000D03*
%TD*%
D25*
%TO.P,J3,1,Pin_1*%
%TO.N,/USB20_HOST1_DN*%
X189057484Y-39994541D03*
%TO.P,J3,2,Pin_2*%
%TO.N,/TYPEC0_SSTX2P*%
X192137484Y-39994541D03*
%TO.P,J3,3,Pin_3*%
%TO.N,/USB20_HOST1_DP*%
X189057484Y-40394541D03*
%TO.P,J3,4,Pin_4*%
%TO.N,/TYPEC0_SSTX2N*%
X192137484Y-40394541D03*
%TO.P,J3,5,Pin_5*%
%TO.N,GND*%
X189057484Y-40794541D03*
%TO.P,J3,6,Pin_6*%
X192137484Y-40794541D03*
%TO.P,J3,7,Pin_7*%
%TO.N,/TYPEC0_SBU1*%
X189057484Y-41194541D03*
%TO.P,J3,8,Pin_8*%
%TO.N,/TYPEC0_SSRX2P*%
X192137484Y-41194541D03*
%TO.P,J3,9,Pin_9*%
%TO.N,/TYPEC0_SBU2*%
X189057484Y-41594541D03*
%TO.P,J3,10,Pin_10*%
%TO.N,/TYPEC0_SSRX2N*%
X192137484Y-41594541D03*
%TO.P,J3,11,Pin_11*%
%TO.N,GND*%
X189057484Y-41994541D03*
%TO.P,J3,12,Pin_12*%
X192137484Y-41994541D03*
%TO.P,J3,13,Pin_13*%
%TO.N,/USB20_HOST0_DP*%
X189057484Y-42394541D03*
%TO.P,J3,14,Pin_14*%
%TO.N,/TYPEC0_SSTX1N*%
X192137484Y-42394541D03*
%TO.P,J3,15,Pin_15*%
%TO.N,/USB20_HOST0_DM*%
X189057484Y-42794541D03*
%TO.P,J3,16,Pin_16*%
%TO.N,/TYPEC0_SSTX1P*%
X192137484Y-42794541D03*
%TO.P,J3,17,Pin_17*%
%TO.N,GND*%
X189057484Y-43194541D03*
%TO.P,J3,18,Pin_18*%
X192137484Y-43194541D03*
%TO.P,J3,19,Pin_19*%
%TO.N,/TYPEC0_SSRX1P*%
X189057484Y-43594541D03*
%TO.P,J3,20,Pin_20*%
%TO.N,/GPIO3_C6*%
X192137484Y-43594541D03*
%TO.P,J3,21,Pin_21*%
%TO.N,/TYPEC0_SSRX1P*%
X189057484Y-43994541D03*
%TO.P,J3,22,Pin_22*%
%TO.N,/PCIE20x1_2_CLKREQn_M0*%
X192137484Y-43994541D03*
%TO.P,J3,23,Pin_23*%
%TO.N,GND*%
X189057484Y-44394541D03*
%TO.P,J3,24,Pin_24*%
%TO.N,/PCIE20x1_2_PERSTn_M0*%
X192137484Y-44394541D03*
%TO.P,J3,25,Pin_25*%
%TO.N,/MIPI_DPHY1_RX_CLKP*%
X189057484Y-44794541D03*
%TO.P,J3,26,Pin_26*%
%TO.N,/GPIO3_D5*%
X192137484Y-44794541D03*
%TO.P,J3,27,Pin_27*%
%TO.N,/MIPI_DPHY1_RX_CLKN*%
X189057484Y-45194541D03*
%TO.P,J3,28,Pin_28*%
%TO.N,/GPIO3_D2*%
X192137484Y-45194541D03*
%TO.P,J3,29,Pin_29*%
%TO.N,GND*%
X189057484Y-45594541D03*
%TO.P,J3,30,Pin_30*%
%TO.N,/GPIO3_D4*%
X192137484Y-45594541D03*
%TO.P,J3,31,Pin_31*%
%TO.N,/MIPI_DPHY1_RX_D1P*%
X189057484Y-45994541D03*
%TO.P,J3,32,Pin_32*%
%TO.N,GND*%
X192137484Y-45994541D03*
%TO.P,J3,33,Pin_33*%
%TO.N,/MIPI_DPHY1_RX_D1N*%
X189057484Y-46394541D03*
%TO.P,J3,34,Pin_34*%
%TO.N,/GPIO3_B7*%
X192137484Y-46394541D03*
%TO.P,J3,35,Pin_35*%
%TO.N,GND*%
X189057484Y-46794541D03*
%TO.P,J3,36,Pin_36*%
%TO.N,/GPIO3_C5*%
X192137484Y-46794541D03*
%TO.P,J3,37,Pin_37*%
%TO.N,/MIPI_DPHY1_RX_D0P*%
X189057484Y-47194541D03*
%TO.P,J3,38,Pin_38*%
%TO.N,/GPIO3_C4*%
X192137484Y-47194541D03*
%TO.P,J3,39,Pin_39*%
%TO.N,/MIPI_DPHY1_RX_D0N*%
X189057484Y-47594541D03*
%TO.P,J3,40,Pin_40*%
%TO.N,/GPIO3_D3*%
X192137484Y-47594541D03*
%TO.P,J3,41,Pin_41*%
%TO.N,GND*%
X189057484Y-47994541D03*
%TO.P,J3,42,Pin_42*%
%TO.N,/GMAC_TXD3*%
X192137484Y-47994541D03*
%TO.P,J3,43,Pin_43*%
%TO.N,/PCIE20x1_2_WAKEn_M0*%
X189057484Y-48394541D03*
%TO.P,J3,44,Pin_44*%
%TO.N,GND*%
X192137484Y-48394541D03*
%TO.P,J3,45,Pin_45*%
X189057484Y-48794541D03*
%TO.P,J3,46,Pin_46*%
%TO.N,/GMAC_TXD0*%
X192137484Y-48794541D03*
%TO.P,J3,47,Pin_47*%
%TO.N,/GMAC_TXD2*%
X189057484Y-49194541D03*
%TO.P,J3,48,Pin_48*%
%TO.N,/GPIO3_B2*%
X192137484Y-49194541D03*
%TO.P,J3,49,Pin_49*%
%TO.N,/GMAC_TXD1*%
X189057484Y-49594541D03*
%TO.P,J3,50,Pin_50*%
%TO.N,/GPIO3_C1*%
X192137484Y-49594541D03*
%TO.P,J3,51,Pin_51*%
%TO.N,/GMAC_TXEN*%
X189057484Y-49994541D03*
%TO.P,J3,52,Pin_52*%
%TO.N,/GPIO3_A6*%
X192137484Y-49994541D03*
%TO.P,J3,53,Pin_53*%
%TO.N,/GMAC_MDIO*%
X189057484Y-50394541D03*
%TO.P,J3,54,Pin_54*%
%TO.N,GND*%
X192137484Y-50394541D03*
%TO.P,J3,55,Pin_55*%
X189057484Y-50794541D03*
%TO.P,J3,56,Pin_56*%
%TO.N,/GMAC_RXD1*%
X192137484Y-50794541D03*
%TO.P,J3,57,Pin_57*%
%TO.N,/GMAC_MCLK*%
X189057484Y-51194541D03*
%TO.P,J3,58,Pin_58*%
%TO.N,/GMAC_RXCLK*%
X192137484Y-51194541D03*
%TO.P,J3,59,Pin_59*%
%TO.N,/GMAC_RXDV*%
X189057484Y-51594541D03*
%TO.P,J3,60,Pin_60*%
%TO.N,/GMAC_RXD0*%
X192137484Y-51594541D03*
%TO.P,J3,61,Pin_61*%
%TO.N,/GMAC_RXD2*%
X189057484Y-51994541D03*
%TO.P,J3,62,Pin_62*%
%TO.N,/GMAC_TXCLK*%
X192137484Y-51994541D03*
%TO.P,J3,63,Pin_63*%
%TO.N,/GMAC_RXD3*%
X189057484Y-52394541D03*
%TO.P,J3,64,Pin_64*%
%TO.N,GND*%
X192137484Y-52394541D03*
%TO.P,J3,65,Pin_65*%
X189057484Y-52794541D03*
%TO.P,J3,66,Pin_66*%
%TO.N,/GPIO0_B0*%
X192137484Y-52794541D03*
%TO.P,J3,67,Pin_67*%
%TO.N,/GPIO0_A0*%
X189057484Y-53194541D03*
%TO.P,J3,68,Pin_68*%
%TO.N,/I2S0_MCLK*%
X192137484Y-53194541D03*
%TO.P,J3,69,Pin_69*%
%TO.N,/GPIO1_C2*%
X189057484Y-53594541D03*
%TO.P,J3,70,Pin_70*%
%TO.N,/I2S0_SDO0*%
X192137484Y-53594541D03*
%TO.P,J3,71,Pin_71*%
%TO.N,/GPIO1_C5*%
X189057484Y-53994541D03*
%TO.P,J3,72,Pin_72*%
%TO.N,/GPIO3_C0*%
X192137484Y-53994541D03*
%TO.P,J3,73,Pin_73*%
%TO.N,/GPIO1_D4*%
X189057484Y-54394541D03*
%TO.P,J3,74,Pin_74*%
%TO.N,GND*%
X192137484Y-54394541D03*
%TO.P,J3,75,Pin_75*%
X189057484Y-54794541D03*
%TO.P,J3,76,Pin_76*%
%TO.N,/PCIE20_0_REFCLKP*%
X192137484Y-54794541D03*
%TO.P,J3,77,Pin_77*%
%TO.N,/USER_LED*%
X189057484Y-55194541D03*
%TO.P,J3,78,Pin_78*%
%TO.N,/PCIE20_0_REFCLKN*%
X192137484Y-55194541D03*
%TO.P,J3,79,Pin_79*%
%TO.N,/DEBUG_LED*%
X189057484Y-55594541D03*
%TO.P,J3,80,Pin_80*%
%TO.N,GND*%
X192137484Y-55594541D03*
%TO.P,J3,81,Pin_81*%
%TO.N,/POWER_KEY*%
X189057484Y-55994541D03*
%TO.P,J3,82,Pin_82*%
%TO.N,/PCIE20_0_TXP*%
X192137484Y-55994541D03*
%TO.P,J3,83,Pin_83*%
%TO.N,/TMP_SN1_LED*%
X189057484Y-56394541D03*
%TO.P,J3,84,Pin_84*%
%TO.N,/PCIE20_0_TXN*%
X192137484Y-56394541D03*
%TO.P,J3,85,Pin_85*%
%TO.N,/TMP_SN2_LED*%
X189057484Y-56794541D03*
%TO.P,J3,86,Pin_86*%
%TO.N,GND*%
X192137484Y-56794541D03*
%TO.P,J3,87,Pin_87*%
X189057484Y-57194541D03*
%TO.P,J3,88,Pin_88*%
%TO.N,/PCIE20_0_RXN*%
X192137484Y-57194541D03*
%TO.P,J3,89,Pin_89*%
%TO.N,/GPIO0_D0*%
X189057484Y-57594541D03*
%TO.P,J3,90,Pin_90*%
%TO.N,/PCIE20_0_RXP*%
X192137484Y-57594541D03*
%TO.P,J3,91,Pin_91*%
%TO.N,/GMAC_MDC*%
X189057484Y-57994541D03*
%TO.P,J3,92,Pin_92*%
%TO.N,GND*%
X192137484Y-57994541D03*
%TO.P,J3,93,Pin_93*%
%TO.N,/GPIO4_A3*%
X189057484Y-58394541D03*
%TO.P,J3,94,Pin_94*%
%TO.N,/GPIO0_C5*%
X192137484Y-58394541D03*
%TO.P,J3,95,Pin_95*%
%TO.N,/GPIO4_B3*%
X189057484Y-58794541D03*
%TO.P,J3,96,Pin_96*%
%TO.N,/GPIO0_B2*%
X192137484Y-58794541D03*
%TO.P,J3,97,Pin_97*%
%TO.N,/GPIO4_B2*%
X189057484Y-59194541D03*
%TO.P,J3,98,Pin_98*%
%TO.N,/GPIO0_C6*%
X192137484Y-59194541D03*
%TO.P,J3,99,Pin_99*%
%TO.N,GND*%
X189057484Y-59594541D03*
%TO.P,J3,100,Pin_100*%
X192137484Y-59594541D03*
%TD*%
D17*
%TO.P,D17,1,A1*%
%TO.N,GND*%
X45180000Y-44122500D03*
%TO.P,D17,2,A2*%
%TO.N,Net-(D17-A2)*%
X45180000Y-44822500D03*
%TD*%
D16*
%TO.P,C10,1*%
%TO.N,Net-(J5-SATA_A+{slash}PETP0)*%
X152087500Y-49530000D03*
%TO.P,C10,2*%
%TO.N,/PCIE20_0_TXP*%
X152902500Y-49530000D03*
%TD*%
D13*
%TO.P,R26,1*%
%TO.N,Net-(U5-FB)*%
X262604000Y-68911300D03*
%TO.P,R26,2*%
%TO.N,+5V_3A*%
X262604000Y-68096300D03*
%TD*%
D23*
%TO.P,C20,1*%
%TO.N,+5V_3A*%
X261372000Y-59339000D03*
%TO.P,C20,2*%
%TO.N,GND*%
X261372000Y-61414000D03*
%TD*%
D26*
%TO.P,NC/SIP1X3,1,Pin_1*%
%TO.N,GND*%
X40354000Y-64506875D03*
%TO.P,NC/SIP1X3,2,Pin_2*%
%TO.N,Net-(ED5-A2)*%
X38604000Y-65506875D03*
%TO.P,NC/SIP1X3,3,Pin_3*%
%TO.N,Net-(ED6-A2)*%
X40354000Y-66506875D03*
%TD*%
D13*
%TO.P,R21,1*%
%TO.N,+12V*%
X260826000Y-65863300D03*
%TO.P,R21,2*%
%TO.N,Net-(U5-EN)*%
X260826000Y-65048300D03*
%TD*%
D10*
%TO.P,R10,1*%
%TO.N,+12V*%
X52713500Y-39192275D03*
%TO.P,R10,2*%
%TO.N,Net-(D10-K)*%
X51898500Y-39192275D03*
%TD*%
D23*
%TO.P,C18,1*%
%TO.N,+5V_3A*%
X253460000Y-59339000D03*
%TO.P,C18,2*%
%TO.N,GND*%
X253460000Y-61414000D03*
%TD*%
%TO.P,C19,1*%
%TO.N,+5V_3A*%
X263874000Y-59339000D03*
%TO.P,C19,2*%
%TO.N,GND*%
X263874000Y-61414000D03*
%TD*%
D27*
%TO.P,D10,1,K*%
%TO.N,Net-(D10-K)*%
X50133000Y-39192275D03*
%TO.P,D10,2,A*%
%TO.N,GND*%
X48383000Y-39192275D03*
%TD*%
D12*
%TO.P,H3,1,1*%
%TO.N,unconnected-(H3-Pad1)*%
X191673230Y-33294828D03*
%TD*%
D13*
%TO.P,C3,1*%
%TO.N,Net-(D33-A2)*%
X46704000Y-49556500D03*
%TO.P,C3,2*%
%TO.N,GND*%
X46704000Y-48741500D03*
%TD*%
D24*
%TO.P,C40,1*%
%TO.N,+3.3V_3A*%
X140832500Y-60452000D03*
%TO.P,C40,2*%
%TO.N,GND*%
X138757500Y-60452000D03*
%TD*%
D15*
%TO.P,SW2,1,1*%
%TO.N,GND*%
X38103999Y-43375001D03*
%TO.P,SW2,2,2*%
X42604001Y-43375001D03*
%TO.P,SW2,3,3*%
%TO.N,Net-(D17-A2)*%
X38103999Y-45524999D03*
%TO.P,SW2,4,4*%
X42604001Y-45524999D03*
%TD*%
D13*
%TO.P,C6,1*%
%TO.N,Net-(D17-A2)*%
X46704000Y-44857500D03*
%TO.P,C6,2*%
%TO.N,GND*%
X46704000Y-44042500D03*
%TD*%
D16*
%TO.P,C16,1*%
%TO.N,Net-(U5-LX)*%
X256608500Y-63881000D03*
%TO.P,C16,2*%
%TO.N,Net-(U5-VIN)*%
X257423500Y-63881000D03*
%TD*%
D28*
%TO.P,C14,1*%
%TO.N,+12V*%
X162274000Y-42312500D03*
%TO.P,C14,2*%
%TO.N,GND*%
X162274000Y-40237500D03*
%TD*%
D17*
%TO.P,D2,1,A1*%
%TO.N,GND*%
X45180000Y-58197000D03*
%TO.P,D2,2,A2*%
%TO.N,Net-(D2-A2)*%
X45180000Y-58897000D03*
%TD*%
D10*
%TO.P,R1,1*%
%TO.N,+3.3V_3A*%
X52713500Y-32588275D03*
%TO.P,R1,2*%
%TO.N,Net-(D1-K)*%
X51898500Y-32588275D03*
%TD*%
%TO.P,R11,1*%
%TO.N,/UART2_TX*%
X39886500Y-68199000D03*
%TO.P,R11,2*%
%TO.N,Net-(ED6-A2)*%
X39071500Y-68199000D03*
%TD*%
D11*
%TO.P,R144,1*%
%TO.N,/USER_KEY*%
X47974000Y-53440500D03*
%TO.P,R144,2*%
%TO.N,Net-(D4-A2)*%
X47974000Y-54255500D03*
%TD*%
D23*
%TO.P,C13,1*%
%TO.N,+3.3V_3A*%
X169894000Y-33252500D03*
%TO.P,C13,2*%
%TO.N,GND*%
X169894000Y-35327500D03*
%TD*%
D29*
%TO.P,U4,1,BS*%
%TO.N,+12V*%
X165134000Y-42625000D03*
%TO.P,U4,2,GND*%
%TO.N,GND*%
X166084000Y-42625000D03*
%TO.P,U4,3,FB*%
%TO.N,Net-(U4-FB)*%
X167034000Y-42625000D03*
%TO.P,U4,4,EN*%
%TO.N,Net-(U4-EN)*%
X167034000Y-39925000D03*
%TO.P,U4,5,VIN*%
%TO.N,Net-(U4-VIN)*%
X166084000Y-39925000D03*
%TO.P,U4,6,LX*%
%TO.N,Net-(U4-LX)*%
X165134000Y-39925000D03*
%TD*%
D27*
%TO.P,D3,1,K*%
%TO.N,Net-(D3-K)*%
X50133000Y-35890275D03*
%TO.P,D3,2,A*%
%TO.N,GND*%
X48383000Y-35890275D03*
%TD*%
D15*
%TO.P,SW1,1,1*%
%TO.N,GND*%
X38103999Y-52773001D03*
%TO.P,SW1,2,2*%
X42604001Y-52773001D03*
%TO.P,SW1,3,3*%
%TO.N,Net-(D4-A2)*%
X38103999Y-54922999D03*
%TO.P,SW1,4,4*%
X42604001Y-54922999D03*
%TD*%
D12*
%TO.P,H4,1,1*%
%TO.N,unconnected-(H4-Pad1)*%
X239674150Y-33294828D03*
%TD*%
D11*
%TO.P,R20,1*%
%TO.N,Net-(U4-EN)*%
X172688000Y-39343500D03*
%TO.P,R20,2*%
%TO.N,GND*%
X172688000Y-40158500D03*
%TD*%
%TO.P,C8,1*%
%TO.N,+3.3V_3A*%
X172688000Y-42391500D03*
%TO.P,C8,2*%
%TO.N,Net-(U4-FB)*%
X172688000Y-43206500D03*
%TD*%
D15*
%TO.P,SW3,1,1*%
%TO.N,GND*%
X38103999Y-48074001D03*
%TO.P,SW3,2,2*%
X42604001Y-48074001D03*
%TO.P,SW3,3,3*%
%TO.N,Net-(D33-A2)*%
X38103999Y-50223999D03*
%TO.P,SW3,4,4*%
X42604001Y-50223999D03*
%TD*%
D27*
%TO.P,D7,1,K*%
%TO.N,Net-(D7-K)*%
X39959000Y-37592000D03*
%TO.P,D7,2,A*%
%TO.N,GND*%
X38209000Y-37592000D03*
%TD*%
D12*
%TO.P,H1,1,1*%
%TO.N,unconnected-(H1-Pad1)*%
X239674150Y-66294508D03*
%TD*%
D11*
%TO.P,R25,1*%
%TO.N,/PCIE20x1_2_WAKEn_M0*%
X145764000Y-59917500D03*
%TO.P,R25,2*%
%TO.N,+3.3V_3A*%
X145764000Y-60732500D03*
%TD*%
D30*
%TO.P,J4,B1,B1*%
%TO.N,+12V*%
X277209000Y-65832000D03*
%TO.P,J4,B2,B2*%
X277209000Y-64832000D03*
%TO.P,J4,B3,B3*%
X277209000Y-63832000D03*
%TO.P,J4,B4,B4*%
%TO.N,GND*%
X277209000Y-62832000D03*
%TO.P,J4,B5,B5*%
%TO.N,/+5V*%
X277209000Y-61832000D03*
%TO.P,J4,B6,B6*%
X277209000Y-60832000D03*
%TO.P,J4,B7,B7*%
%TO.N,GND*%
X277209000Y-59832000D03*
%TO.P,J4,B8,B8*%
%TO.N,/+3.3V*%
X277209000Y-58832000D03*
%TO.P,J4,B9,B9*%
%TO.N,GND*%
X277209000Y-57832000D03*
%TO.P,J4,B10,B10*%
%TO.N,/+1.8V*%
X277209000Y-56832000D03*
%TO.P,J4,B11,B11*%
%TO.N,/PWRON_L*%
X277209000Y-55832000D03*
%TO.P,J4,B12,B12*%
%TO.N,/UART2_TX*%
X277209000Y-52832000D03*
%TO.P,J4,B13,B13*%
%TO.N,/UART2_RX*%
X277209000Y-51832000D03*
%TO.P,J4,B14,B14*%
%TO.N,GND*%
X277209000Y-50832000D03*
%TO.P,J4,B15,B15*%
%TO.N,/USB20_HOST1_DN*%
X277209000Y-49832000D03*
%TO.P,J4,B16,B16*%
%TO.N,/USB20_HOST1_DP*%
X277209000Y-48832000D03*
%TO.P,J4,B17,B17*%
%TO.N,GND*%
X277209000Y-47832000D03*
%TO.P,J4,B18,B18*%
%TO.N,/HDMI0_TX_CEC_M0*%
X277209000Y-46832000D03*
%TO.P,J4,B19,B19*%
%TO.N,/HDMI0_SBDN*%
X277209000Y-45832000D03*
%TO.P,J4,B20,B20*%
%TO.N,/HDMI0_SBDP*%
X277209000Y-44832000D03*
%TO.P,J4,B21,B21*%
%TO.N,/HDMI0_TX_SDA_M0*%
X277209000Y-43832000D03*
%TO.P,J4,B22,B22*%
%TO.N,/HDMI0_TX_SCL_M0*%
X277209000Y-42832000D03*
%TO.P,J4,B23,B23*%
%TO.N,/HDMI0_TX1P*%
X277209000Y-41832000D03*
%TO.P,J4,B24,B24*%
%TO.N,/HDMI0_TX1N*%
X277209000Y-40832000D03*
%TO.P,J4,B25,B25*%
%TO.N,/HDMI0_TX3P*%
X277209000Y-39832000D03*
%TO.P,J4,B26,B26*%
%TO.N,/HDMI0_TX3N*%
X277209000Y-38832000D03*
%TO.P,J4,B27,B27*%
%TO.N,/HDMI0_TX0N*%
X277209000Y-37832000D03*
%TO.P,J4,B28,B28*%
%TO.N,/HDMI0_TX0P*%
X277209000Y-36832000D03*
%TO.P,J4,B29,B29*%
%TO.N,/HDMI0_TX2N*%
X277209000Y-35832000D03*
%TO.P,J4,B30,B30*%
%TO.N,/HDMI0_TX2P*%
X277209000Y-34832000D03*
D31*
%TO.P,J4,B31,B31*%
%TO.N,unconnected-(J4-PadB31)*%
X276659000Y-33832000D03*
D30*
%TO.P,J4,B32,B32*%
%TO.N,/HDMI0_TX_ON_H*%
X277209000Y-32832000D03*
%TD*%
D11*
%TO.P,R24,1*%
%TO.N,/PCIE20x1_2_CLKREQn_M0*%
X144674000Y-59917500D03*
%TO.P,R24,2*%
%TO.N,+3.3V_3A*%
X144674000Y-60732500D03*
%TD*%
D13*
%TO.P,C27,1*%
%TO.N,Net-(D4-A2)*%
X46704000Y-54255500D03*
%TO.P,C27,2*%
%TO.N,GND*%
X46704000Y-53440500D03*
%TD*%
D27*
%TO.P,D11,1,K*%
%TO.N,Net-(D11-K)*%
X39959000Y-30988000D03*
%TO.P,D11,2,A*%
%TO.N,GND*%
X38209000Y-30988000D03*
%TD*%
%TO.P,D1,1,K*%
%TO.N,Net-(D1-K)*%
X50133000Y-32588275D03*
%TO.P,D1,2,A*%
%TO.N,GND*%
X48383000Y-32588275D03*
%TD*%
D11*
%TO.P,R23,1*%
%TO.N,/PCIE20x1_2_PERSTn_M0*%
X143605000Y-59917500D03*
%TO.P,R23,2*%
%TO.N,+3.3V_3A*%
X143605000Y-60732500D03*
%TD*%
%TO.P,R139,1*%
%TO.N,/BOOT_KEY*%
X47974000Y-48741500D03*
%TO.P,R139,2*%
%TO.N,Net-(D33-A2)*%
X47974000Y-49556500D03*
%TD*%
D32*
%TO.P,U2,1,SDA*%
%TO.N,/I2C3_SDA_M0*%
X266349000Y-54464000D03*
%TO.P,U2,2,SCL*%
%TO.N,/I2C3_SCL_M0*%
X266349000Y-55264000D03*
%TO.P,U2,3,VDD*%
%TO.N,/VCC_3V3_S3*%
X267749000Y-55264000D03*
%TO.P,U2,4,VSS*%
%TO.N,GND*%
X267749000Y-54464000D03*
%TD*%
D19*
%TO.P,J1,1,Pin_1*%
%TO.N,GND*%
X208433985Y-68082722D03*
%TO.P,J1,2,Pin_2*%
X208433985Y-65002722D03*
%TO.P,J1,3,Pin_3*%
%TO.N,/Reserved*%
X208833985Y-68082722D03*
%TO.P,J1,4,Pin_4*%
X208833985Y-65002722D03*
%TO.P,J1,5,Pin_5*%
X209233985Y-68082722D03*
%TO.P,J1,6,Pin_6*%
X209233985Y-65002722D03*
%TO.P,J1,7,Pin_7*%
%TO.N,GND*%
X209633985Y-68082722D03*
%TO.P,J1,8,Pin_8*%
X209633985Y-65002722D03*
%TO.P,J1,9,Pin_9*%
%TO.N,/Reserved*%
X210033985Y-68082722D03*
%TO.P,J1,10,Pin_10*%
X210033985Y-65002722D03*
%TO.P,J1,11,Pin_11*%
X210433985Y-68082722D03*
%TO.P,J1,12,Pin_12*%
X210433985Y-65002722D03*
%TO.P,J1,13,Pin_13*%
%TO.N,GND*%
X210833985Y-68082722D03*
%TO.P,J1,14,Pin_14*%
X210833985Y-65002722D03*
%TO.P,J1,15,Pin_15*%
%TO.N,/Reserved*%
X211233985Y-68082722D03*
%TO.P,J1,16,Pin_16*%
X211233985Y-65002722D03*
%TO.P,J1,17,Pin_17*%
X211633985Y-68082722D03*
%TO.P,J1,18,Pin_18*%
X211633985Y-65002722D03*
%TO.P,J1,19,Pin_19*%
X212033985Y-68082722D03*
%TO.P,J1,20,Pin_20*%
X212033985Y-65002722D03*
%TO.P,J1,21,Pin_21*%
%TO.N,/GPIO4_A4*%
X212433985Y-68082722D03*
%TO.P,J1,22,Pin_22*%
%TO.N,GND*%
X212433985Y-65002722D03*
%TO.P,J1,23,Pin_23*%
X212833985Y-68082722D03*
%TO.P,J1,24,Pin_24*%
%TO.N,/I2C3_SDA_M0*%
X212833985Y-65002722D03*
%TO.P,J1,25,Pin_25*%
%TO.N,/GPIO1_B0*%
X213233985Y-68082722D03*
%TO.P,J1,26,Pin_26*%
%TO.N,/I2C3_SCL_M0*%
X213233985Y-65002722D03*
%TO.P,J1,27,Pin_27*%
%TO.N,/GPIO1_B1*%
X213633985Y-68082722D03*
%TO.P,J1,28,Pin_28*%
%TO.N,/GPIO1_A2*%
X213633985Y-65002722D03*
%TO.P,J1,29,Pin_29*%
%TO.N,/GPIO1_B2*%
X214033985Y-68082722D03*
%TO.P,J1,30,Pin_30*%
%TO.N,/GPIO1_A3*%
X214033985Y-65002722D03*
%TO.P,J1,31,Pin_31*%
%TO.N,/GPIO1_B3*%
X214433985Y-68082722D03*
%TO.P,J1,32,Pin_32*%
%TO.N,GND*%
X214433985Y-65002722D03*
%TO.P,J1,33,Pin_33*%
X214833985Y-68082722D03*
%TO.P,J1,34,Pin_34*%
%TO.N,/GPIO1_A4*%
X214833985Y-65002722D03*
%TO.P,J1,35,Pin_35*%
%TO.N,/GPIO1_D6*%
X215233985Y-68082722D03*
%TO.P,J1,36,Pin_36*%
%TO.N,/GPIO1_D7*%
X215233985Y-65002722D03*
%TO.P,J1,37,Pin_37*%
%TO.N,/GPIO1_B4*%
X215633985Y-68082722D03*
%TO.P,J1,38,Pin_38*%
%TO.N,/GPIO1_A5*%
X215633985Y-65002722D03*
%TO.P,J1,39,Pin_39*%
%TO.N,/GPIO1_B5*%
X216033985Y-68082722D03*
%TO.P,J1,40,Pin_40*%
%TO.N,/GPIO1_A6*%
X216033985Y-65002722D03*
%TO.P,J1,41,Pin_41*%
%TO.N,/I2C5_SCL_M3*%
X216433985Y-68082722D03*
%TO.P,J1,42,Pin_42*%
%TO.N,GND*%
X216433985Y-65002722D03*
%TO.P,J1,43,Pin_43*%
X216833985Y-68082722D03*
%TO.P,J1,44,Pin_44*%
%TO.N,/GPIO1_A7*%
X216833985Y-65002722D03*
%TO.P,J1,45,Pin_45*%
%TO.N,/I2C5_SDA_M3*%
X217233985Y-68082722D03*
%TO.P,J1,46,Pin_46*%
%TO.N,/GPIO1_C4*%
X217233985Y-65002722D03*
%TO.P,J1,47,Pin_47*%
%TO.N,/GPIO0_C2*%
X217633985Y-68082722D03*
%TO.P,J1,48,Pin_48*%
%TO.N,/GPIO1_C6*%
X217633985Y-65002722D03*
%TO.P,J1,49,Pin_49*%
%TO.N,/GPIO1_D5*%
X218033985Y-68082722D03*
%TO.P,J1,50,Pin_50*%
%TO.N,/GPIO1_D0*%
X218033985Y-65002722D03*
%TO.P,J1,51,Pin_51*%
%TO.N,/UART2_RX*%
X218433985Y-68082722D03*
%TO.P,J1,52,Pin_52*%
%TO.N,GND*%
X218433985Y-65002722D03*
%TO.P,J1,53,Pin_53*%
X218833985Y-68082722D03*
%TO.P,J1,54,Pin_54*%
%TO.N,/GPIO1_D1*%
X218833985Y-65002722D03*
%TO.P,J1,55,Pin_55*%
%TO.N,/UART2_TX*%
X219233985Y-68082722D03*
%TO.P,J1,56,Pin_56*%
%TO.N,/GPIO1_D2*%
X219233985Y-65002722D03*
%TO.P,J1,57,Pin_57*%
%TO.N,/SDMMC_CLK*%
X219633985Y-68082722D03*
%TO.P,J1,58,Pin_58*%
%TO.N,/GPIO1_D3*%
X219633985Y-65002722D03*
%TO.P,J1,59,Pin_59*%
%TO.N,GND*%
X220033985Y-68082722D03*
%TO.P,J1,60,Pin_60*%
X220033985Y-65002722D03*
%TO.P,J1,61,Pin_61*%
%TO.N,/SDMMC_D3*%
X220433985Y-68082722D03*
%TO.P,J1,62,Pin_62*%
%TO.N,/SDMMC_CMD*%
X220433985Y-65002722D03*
%TO.P,J1,63,Pin_63*%
%TO.N,/SDMMC_D0*%
X220833985Y-68082722D03*
%TO.P,J1,64,Pin_64*%
%TO.N,/Reserved*%
X220833985Y-65002722D03*
%TO.P,J1,65,Pin_65*%
%TO.N,GND*%
X221233985Y-68082722D03*
%TO.P,J1,66,Pin_66*%
X221233985Y-65002722D03*
%TO.P,J1,67,Pin_67*%
%TO.N,/SDMMC_D1*%
X221633985Y-68082722D03*
%TO.P,J1,68,Pin_68*%
%TO.N,/SARADC_IN1*%
X221633985Y-65002722D03*
%TO.P,J1,69,Pin_69*%
%TO.N,/SDMMC_D2*%
X222033985Y-68082722D03*
%TO.P,J1,70,Pin_70*%
%TO.N,/Reserved*%
X222033985Y-65002722D03*
%TO.P,J1,71,Pin_71*%
%TO.N,GND*%
X222433985Y-68082722D03*
%TO.P,J1,72,Pin_72*%
%TO.N,/Reserved*%
X222433985Y-65002722D03*
%TO.P,J1,73,Pin_73*%
X222833985Y-68082722D03*
%TO.P,J1,74,Pin_74*%
%TO.N,GND*%
X222833985Y-65002722D03*
%TO.P,J1,75,Pin_75*%
%TO.N,/SDMMC_PWREN*%
X223233985Y-68082722D03*
%TO.P,J1,76,Pin_76*%
%TO.N,/GPIO0_A4*%
X223233985Y-65002722D03*
%TO.P,J1,77,Pin_77*%
%TO.N,+5V_3A*%
X223633985Y-68082722D03*
%TO.P,J1,78,Pin_78*%
%TO.N,/VCC_3V3_S3*%
X223633985Y-65002722D03*
%TO.P,J1,79,Pin_79*%
%TO.N,+5V_3A*%
X224033985Y-68082722D03*
%TO.P,J1,80,Pin_80*%
%TO.N,/I2C6_SCL_M3*%
X224033985Y-65002722D03*
%TO.P,J1,81,Pin_81*%
%TO.N,+5V_3A*%
X224433985Y-68082722D03*
%TO.P,J1,82,Pin_82*%
%TO.N,/I2C6_SDA_M3*%
X224433985Y-65002722D03*
%TO.P,J1,83,Pin_83*%
%TO.N,+5V_3A*%
X224833985Y-68082722D03*
%TO.P,J1,84,Pin_84*%
%TO.N,/VCC_3V3_S3*%
X224833985Y-65002722D03*
%TO.P,J1,85,Pin_85*%
%TO.N,+5V_3A*%
X225233985Y-68082722D03*
%TO.P,J1,86,Pin_86*%
%TO.N,/VCC_3V3_S3*%
X225233985Y-65002722D03*
%TO.P,J1,87,Pin_87*%
%TO.N,+5V_3A*%
X225633985Y-68082722D03*
%TO.P,J1,88,Pin_88*%
%TO.N,/VCC_1V8_S3*%
X225633985Y-65002722D03*
%TO.P,J1,89,Pin_89*%
%TO.N,/Reserved*%
X226033985Y-68082722D03*
%TO.P,J1,90,Pin_90*%
%TO.N,/VCC_1V8_S3*%
X226033985Y-65002722D03*
%TO.P,J1,91,Pin_91*%
%TO.N,/Reserved*%
X226433985Y-68082722D03*
%TO.P,J1,92,Pin_92*%
%TO.N,/PMIC_RESET_L*%
X226433985Y-65002722D03*
%TO.P,J1,93,Pin_93*%
%TO.N,/BOOT_KEY*%
X226833985Y-68082722D03*
%TO.P,J1,94,Pin_94*%
%TO.N,/SARADC_IN3*%
X226833985Y-65002722D03*
%TO.P,J1,95,Pin_95*%
%TO.N,/USER_KEY*%
X227233985Y-68082722D03*
%TO.P,J1,96,Pin_96*%
%TO.N,/SARADC_IN2*%
X227233985Y-65002722D03*
%TO.P,J1,97,Pin_97*%
%TO.N,/GPIO4_A7*%
X227633985Y-68082722D03*
%TO.P,J1,98,Pin_98*%
%TO.N,GND*%
X227633985Y-65002722D03*
%TO.P,J1,99,Pin_99*%
%TO.N,/PWRON_L*%
X228033985Y-68082722D03*
%TO.P,J1,100,Pin_100*%
%TO.N,/GPIO4_A5*%
X228033985Y-65002722D03*
%TD*%
D11*
%TO.P,R5,1*%
%TO.N,GND*%
X168624000Y-42391500D03*
%TO.P,R5,2*%
%TO.N,Net-(U4-FB)*%
X168624000Y-43206500D03*
%TD*%
D27*
%TO.P,D8,1,K*%
%TO.N,Net-(D8-K)*%
X39959000Y-34290000D03*
%TO.P,D8,2,A*%
%TO.N,GND*%
X38209000Y-34290000D03*
%TD*%
D11*
%TO.P,CC3,1*%
%TO.N,Net-(U4-EN)*%
X170656000Y-39343500D03*
%TO.P,CC3,2*%
%TO.N,GND*%
X170656000Y-40158500D03*
%TD*%
D32*
%TO.P,U1,1,SDA*%
%TO.N,/I2C5_SDA_M3*%
X48039000Y-67964000D03*
%TO.P,U1,2,SCL*%
%TO.N,/I2C5_SCL_M3*%
X48039000Y-67164000D03*
%TO.P,U1,3,VDD*%
%TO.N,+3.3V_3A*%
X46639000Y-67164000D03*
%TO.P,U1,4,VSS*%
%TO.N,GND*%
X46639000Y-67964000D03*
%TD*%
D11*
%TO.P,CC7,1*%
%TO.N,+5V_3A*%
X251174000Y-59969000D03*
%TO.P,CC7,2*%
%TO.N,GND*%
X251174000Y-60784000D03*
%TD*%
D23*
%TO.P,C12,1*%
%TO.N,+3.3V_3A*%
X172434000Y-33252500D03*
%TO.P,C12,2*%
%TO.N,GND*%
X172434000Y-35327500D03*
%TD*%
D17*
%TO.P,D4,1,A1*%
%TO.N,GND*%
X45180000Y-53498000D03*
%TO.P,D4,2,A2*%
%TO.N,Net-(D4-A2)*%
X45180000Y-54198000D03*
%TD*%
%TO.P,D33,1,A1*%
%TO.N,GND*%
X45180000Y-48799000D03*
%TO.P,D33,2,A2*%
%TO.N,Net-(D33-A2)*%
X45180000Y-49499000D03*
%TD*%
D27*
%TO.P,D9,1,K*%
%TO.N,Net-(D9-K)*%
X39959000Y-40894000D03*
%TO.P,D9,2,A*%
%TO.N,GND*%
X38209000Y-40894000D03*
%TD*%
D11*
%TO.P,R27,1*%
%TO.N,GND*%
X260826000Y-68096300D03*
%TO.P,R27,2*%
%TO.N,Net-(U5-FB)*%
X260826000Y-68911300D03*
%TD*%
D28*
%TO.P,C15,1*%
%TO.N,+12V*%
X253460000Y-68017300D03*
%TO.P,C15,2*%
%TO.N,GND*%
X253460000Y-65942300D03*
%TD*%
D29*
%TO.P,U5,1,BS*%
%TO.N,+12V*%
X256574000Y-68329800D03*
%TO.P,U5,2,GND*%
%TO.N,GND*%
X257524000Y-68329800D03*
%TO.P,U5,3,FB*%
%TO.N,Net-(U5-FB)*%
X258474000Y-68329800D03*
%TO.P,U5,4,EN*%
%TO.N,Net-(U5-EN)*%
X258474000Y-65629800D03*
%TO.P,U5,5,VIN*%
%TO.N,Net-(U5-VIN)*%
X257524000Y-65629800D03*
%TO.P,U5,6,LX*%
%TO.N,Net-(U5-LX)*%
X256574000Y-65629800D03*
%TD*%
D13*
%TO.P,R18,1*%
%TO.N,+12V*%
X168624000Y-40158500D03*
%TO.P,R18,2*%
%TO.N,Net-(U4-EN)*%
X168624000Y-39343500D03*
%TD*%
D16*
%TO.P,C7,1*%
%TO.N,Net-(U4-LX)*%
X165168500Y-37973000D03*
%TO.P,C7,2*%
%TO.N,Net-(U4-VIN)*%
X165983500Y-37973000D03*
%TD*%
D18*
%TO.P,L2,1*%
%TO.N,Net-(U5-VIN)*%
X257524000Y-61722700D03*
%TO.P,L2,2*%
%TO.N,+5V_3A*%
X257524000Y-59030300D03*
%TD*%
D33*
%TO.N,GND*%
X38957000Y-52832000D03*
X41751000Y-57531000D03*
X149828000Y-55753000D03*
X191103000Y-48733003D03*
X251682000Y-66548000D03*
X252317000Y-61414000D03*
X191103000Y-54483000D03*
X217265000Y-32512000D03*
X250539000Y-60833000D03*
X146907000Y-39243000D03*
X189960000Y-48133000D03*
X214852000Y-67310000D03*
X216779506Y-30348910D03*
X272383000Y-59837100D03*
X208502000Y-67310000D03*
X262350000Y-61414000D03*
X213179504Y-30348909D03*
X146907000Y-42164000D03*
X160496000Y-35433000D03*
X38957000Y-57531000D03*
X214379506Y-30348911D03*
X166084000Y-43942000D03*
X210785076Y-30343551D03*
X149320000Y-55245000D03*
X189960000Y-59182000D03*
X169894000Y-36449000D03*
X46704000Y-52705000D03*
X210788000Y-67310000D03*
X227579546Y-30348912D03*
X221234009Y-64348839D03*
X208502000Y-65913000D03*
X48355000Y-40259000D03*
X212693000Y-67310000D03*
X221558269Y-33409320D03*
X272383000Y-57837100D03*
X38195000Y-32004000D03*
X147415000Y-57785000D03*
X273399000Y-59837100D03*
X45180000Y-52705000D03*
X274415000Y-59837100D03*
X218789000Y-68961000D03*
X191375310Y-42183000D03*
X261334000Y-67995800D03*
X216433981Y-64348859D03*
X138017000Y-60452000D03*
X149320000Y-54229000D03*
X272383000Y-50837100D03*
X162274000Y-39243000D03*
X216757000Y-33401000D03*
X273266900Y-47832000D03*
X41751000Y-52832000D03*
X146907000Y-37211000D03*
X209518000Y-65913000D03*
X189960000Y-48895000D03*
X220379548Y-33428910D03*
X223828813Y-30223186D03*
X229838000Y-34736671D03*
X38195000Y-41910000D03*
X209579502Y-30348907D03*
X272383000Y-62832000D03*
X225179525Y-34736651D03*
X147415000Y-35179000D03*
X225063035Y-31779393D03*
X46704000Y-43307000D03*
X191103000Y-56896000D03*
X272250900Y-47832000D03*
X247237000Y-31877000D03*
X45180000Y-43307000D03*
X146907000Y-43688000D03*
X220059000Y-68961000D03*
X39084000Y-48133000D03*
X146907000Y-49784000D03*
X189960000Y-52686000D03*
X273399000Y-62832000D03*
X226379549Y-34736671D03*
X46577000Y-68580000D03*
X222833972Y-64348850D03*
X212312000Y-65913000D03*
X171291000Y-40132000D03*
X45180000Y-48006000D03*
X223107000Y-30225788D03*
X191103000Y-55499000D03*
X191103000Y-52451000D03*
X268446000Y-54483000D03*
X221202000Y-68961000D03*
X218433992Y-64348856D03*
X45180000Y-57404000D03*
X221579513Y-31656663D03*
X215579551Y-33428907D03*
X38195000Y-38608000D03*
X216152423Y-66705423D03*
X274415000Y-62832000D03*
X48355000Y-36957000D03*
X257524000Y-69723000D03*
X210779525Y-33428929D03*
X189960000Y-43326000D03*
X146399000Y-37719000D03*
X145637000Y-36195000D03*
X149828000Y-54737000D03*
X215579532Y-30348926D03*
X191357000Y-46101000D03*
X227579546Y-34736667D03*
X220034002Y-64348845D03*
X189960000Y-42183000D03*
X41751000Y-43434000D03*
X46704000Y-48006000D03*
X189960000Y-44596000D03*
X145637000Y-56896000D03*
X38195000Y-35306000D03*
X227637177Y-64345744D03*
X210788000Y-65913000D03*
X172434000Y-36449000D03*
X191103000Y-57912000D03*
X146907000Y-51181000D03*
X149193000Y-56896000D03*
X189830987Y-41040000D03*
X214433980Y-64348858D03*
X41624000Y-64516000D03*
X209645000Y-67310000D03*
X189960000Y-50800000D03*
X265017000Y-65913000D03*
X222345000Y-68961000D03*
X149066000Y-36195000D03*
X146907000Y-46755000D03*
X222779537Y-33428921D03*
X48355000Y-33655000D03*
X211979527Y-30348931D03*
X209579544Y-33428914D03*
X160496000Y-40132000D03*
X273399000Y-50837100D03*
X191103000Y-59182000D03*
X274282900Y-47832000D03*
X169259000Y-42418000D03*
X191086998Y-50124995D03*
X38957000Y-43434000D03*
X263112000Y-65963800D03*
X213179528Y-33428931D03*
X146907000Y-45212000D03*
X219176660Y-30346126D03*
X137657500Y-32385000D03*
X220379527Y-31656649D03*
X162274000Y-36449000D03*
X42640000Y-64516000D03*
X189960000Y-45739000D03*
X173323000Y-40132000D03*
X253460000Y-65024000D03*
X146907000Y-48260000D03*
X214379527Y-33428931D03*
X274415000Y-57837100D03*
X46704000Y-57404000D03*
X274415000Y-50837100D03*
X146907000Y-40640000D03*
X189960000Y-46863000D03*
X226379546Y-30348912D03*
X191230000Y-41040000D03*
X273399000Y-57837100D03*
X189960000Y-54737000D03*
X223979502Y-34736673D03*
X262985000Y-61414000D03*
X229584000Y-30861000D03*
X41624000Y-48133000D03*
X211979512Y-33428916D03*
X189960000Y-57277000D03*
X191357000Y-43326000D03*
%TO.N,+12V*%
X161893000Y-42545000D03*
X251682000Y-69723000D03*
X274415000Y-64897000D03*
X164941000Y-44323000D03*
X54578000Y-39243000D03*
X272383000Y-65786000D03*
X274415000Y-63881000D03*
X273399000Y-63881000D03*
X252444000Y-68961000D03*
X253206000Y-68961000D03*
X272383000Y-64897000D03*
X162909000Y-44323000D03*
X253968000Y-69723000D03*
X250920000Y-69723000D03*
X253206000Y-69723000D03*
X250920000Y-68961000D03*
X161893000Y-44323000D03*
X163925000Y-44323000D03*
X273399000Y-65786000D03*
X163925000Y-43434000D03*
X272383000Y-63881000D03*
X252444000Y-69723000D03*
X253968000Y-68961000D03*
X274415000Y-65786000D03*
X273399000Y-64897000D03*
X161893000Y-43434000D03*
X163925000Y-42545000D03*
X162909000Y-43434000D03*
X162909000Y-42545000D03*
X251682000Y-68961000D03*
%TO.N,/UART2_RX*%
X54705000Y-64643000D03*
D34*
X217646000Y-67187000D03*
D33*
%TO.N,+5V_3A*%
X54578000Y-35890275D03*
X48990000Y-68707000D03*
%TO.N,/PMIC_RESET_L*%
X53181000Y-57404000D03*
X270986000Y-50800000D03*
D34*
X226409000Y-64389000D03*
%TO.N,/UART2_TX*%
X219233985Y-67187000D03*
D33*
X56610000Y-64008000D03*
%TO.N,/PWRON_L*%
X50133000Y-59309000D03*
D34*
X228695000Y-67183000D03*
D33*
%TO.N,/HDMI0_TX_SCL_M0*%
X228568000Y-30861000D03*
X228822000Y-34736671D03*
%TO.N,/HDMI0_SBDP*%
X219551000Y-34925000D03*
X219551000Y-31877000D03*
%TO.N,/HDMI0_TX_ON_H*%
X218027000Y-32512000D03*
X248507000Y-31877000D03*
D34*
%TO.N,/GMAC_TXD2*%
X186912000Y-48006000D03*
%TO.N,/GMAC_TXCLK*%
X196437000Y-52197000D03*
%TO.N,/GMAC_RXD2*%
X186912000Y-52578000D03*
%TO.N,/GMAC_RXD1*%
X195548000Y-48768000D03*
%TO.N,/GMAC_TXD1*%
X185769000Y-48768000D03*
D33*
%TO.N,/I2C3_SCL_M0*%
X233883000Y-55245000D03*
X229584000Y-55245000D03*
D34*
%TO.N,/GMAC_TXEN*%
X186912000Y-49530000D03*
%TO.N,/GMAC_MDC*%
X186912000Y-54229000D03*
%TO.N,/GMAC_RXD0*%
X195548000Y-51054000D03*
%TO.N,/BOOT_KEY*%
X225520000Y-67183000D03*
D33*
X52165000Y-59309000D03*
D34*
%TO.N,/GMAC_MDIO*%
X185769000Y-50292000D03*
%TO.N,/GMAC_RXD3*%
X185769000Y-53340000D03*
D33*
%TO.N,/PCIE20_0_RXN*%
X156940000Y-48260000D03*
X155289000Y-47205000D03*
D34*
%TO.N,/GMAC_TXD0*%
X196437000Y-47625000D03*
%TO.N,/GMAC_RXCLK*%
X196437000Y-49784000D03*
%TO.N,/GMAC_TXD3*%
X195548000Y-46482000D03*
%TO.N,/GMAC_RXDV*%
X185769000Y-51816000D03*
%TO.N,/USER_KEY*%
X227171000Y-67183000D03*
D33*
X51149000Y-57404000D03*
%TO.N,/I2C3_SDA_M0*%
X232378000Y-54483000D03*
X228187000Y-54483000D03*
D34*
%TO.N,/TMP_SN1_LED*%
X185769000Y-56769000D03*
X166465000Y-56769000D03*
%TO.N,/GMAC_MCLK*%
X186912000Y-51054000D03*
%TO.N,/DEBUG_LED*%
X167608000Y-56007000D03*
X186912000Y-56007000D03*
%TO.N,/USER_LED*%
X166465000Y-55245000D03*
X185769000Y-55118000D03*
D33*
%TO.N,/M.2_ACT*%
X141631101Y-39482000D03*
X133572000Y-39370000D03*
%TO.N,/PCIE20x1_2_WAKEn_M0*%
X157067000Y-46228000D03*
X142124500Y-50800000D03*
%TO.N,/VCC_3V3_S3*%
X228187000Y-56134000D03*
X232378000Y-56134000D03*
%TD*%
D35*
%TO.N,+3.3V_3A*%
X140832500Y-32385000D02*
X140832500Y-34395500D01*
D36*
X139034000Y-54482000D02*
X140611500Y-54482000D01*
X138048000Y-40482000D02*
X138017000Y-40513000D01*
X138017000Y-37465000D02*
X138034000Y-37482000D01*
X138288000Y-55482000D02*
X140611500Y-55482000D01*
D35*
X169661500Y-33252500D02*
X169352800Y-32943800D01*
X169894000Y-33252500D02*
X169661500Y-33252500D01*
D36*
X44291000Y-32639000D02*
X34893000Y-32639000D01*
X52800000Y-31242000D02*
X129762000Y-31242000D01*
X34004000Y-33528000D02*
X34004000Y-69342000D01*
D35*
X140832500Y-59457500D02*
X138026000Y-56651000D01*
D36*
X140611500Y-40982000D02*
X138056000Y-40982000D01*
D37*
X173958000Y-33655000D02*
X173958000Y-41910000D01*
D38*
X140811000Y-34417000D02*
X138906000Y-34417000D01*
D36*
X140611500Y-37982000D02*
X138135000Y-37982000D01*
D37*
X141980500Y-60732500D02*
X141700000Y-60452000D01*
D36*
X52927000Y-31242000D02*
X45688000Y-31242000D01*
X139414000Y-54982000D02*
X138026000Y-54982000D01*
X140611500Y-41482000D02*
X138191000Y-41482000D01*
D38*
X160496000Y-32943800D02*
X147364200Y-32943800D01*
X138017000Y-54973000D02*
X138026000Y-54982000D01*
D36*
X138026000Y-55220000D02*
X138288000Y-55482000D01*
X140611500Y-39982000D02*
X138040000Y-39982000D01*
X129762000Y-31242000D02*
X131159000Y-32639000D01*
D37*
X140832500Y-34395500D02*
X140811000Y-34417000D01*
X145764000Y-60732500D02*
X141980500Y-60732500D01*
D36*
X34893000Y-32639000D02*
X34004000Y-33528000D01*
X138026000Y-54982000D02*
X138026000Y-55220000D01*
D37*
X172434000Y-33252500D02*
X173555500Y-33252500D01*
D36*
X138398000Y-54483000D02*
X139033000Y-54483000D01*
X138017000Y-54102000D02*
X138398000Y-54483000D01*
D38*
X138017000Y-37465000D02*
X138017000Y-40005000D01*
D36*
X137636000Y-41402000D02*
X138271000Y-41402000D01*
D35*
X172434000Y-33252500D02*
X169894000Y-33252500D01*
D37*
X172688000Y-42391500D02*
X173476500Y-42391500D01*
D36*
X138040000Y-39982000D02*
X138017000Y-40005000D01*
X52713500Y-31328500D02*
X52713500Y-32588275D01*
X45688000Y-31242000D02*
X44291000Y-32639000D01*
X138135000Y-37982000D02*
X138017000Y-38100000D01*
X139033000Y-54483000D02*
X139034000Y-54482000D01*
X140611500Y-37482000D02*
X138034000Y-37482000D01*
D37*
X173555500Y-33252500D02*
X173958000Y-33655000D01*
D36*
X34004000Y-69342000D02*
X34893000Y-70231000D01*
D38*
X145891000Y-34417000D02*
X140811000Y-34417000D01*
D36*
X131159000Y-37719000D02*
X133445000Y-40005000D01*
D38*
X138017000Y-41021000D02*
X138017000Y-41656000D01*
D36*
X165499800Y-32943800D02*
X165322000Y-32766000D01*
D37*
X141700000Y-60452000D02*
X140832500Y-60452000D01*
D38*
X138017000Y-40005000D02*
X138017000Y-40513000D01*
X138906000Y-34417000D02*
X138017000Y-35306000D01*
X138017000Y-40513000D02*
X138017000Y-41021000D01*
D36*
X131159000Y-32639000D02*
X131159000Y-37719000D01*
X46215000Y-67164000D02*
X46639000Y-67164000D01*
D35*
X138026000Y-56651000D02*
X138026000Y-54982000D01*
D38*
X138017000Y-35306000D02*
X138017000Y-37465000D01*
D36*
X138191000Y-41482000D02*
X138017000Y-41656000D01*
D38*
X138017000Y-41656000D02*
X138017000Y-54973000D01*
X147364200Y-32943800D02*
X145891000Y-34417000D01*
D35*
X169352800Y-32943800D02*
X166084000Y-32943800D01*
D37*
X173476500Y-42391500D02*
X173958000Y-41910000D01*
D36*
X138056000Y-40982000D02*
X138017000Y-41021000D01*
X34893000Y-70231000D02*
X43148000Y-70231000D01*
X138026000Y-54982000D02*
X138017000Y-54991000D01*
X140611500Y-40482000D02*
X138048000Y-40482000D01*
D37*
X170656000Y-42391500D02*
X172688000Y-42391500D01*
D35*
X140832500Y-60452000D02*
X140832500Y-59457500D01*
D38*
X166084000Y-32943800D02*
X160496000Y-32943800D01*
D36*
X43148000Y-70231000D02*
X46215000Y-67164000D01*
X133445000Y-40005000D02*
X138017000Y-40005000D01*
D37*
X160496000Y-33882500D02*
X160496000Y-32943800D01*
D36*
X140611500Y-54982000D02*
X139414000Y-54982000D01*
%TO.N,GND*%
X219179527Y-31002790D02*
X219179527Y-30348993D01*
X209579527Y-33428931D02*
X209579544Y-33428914D01*
X227579546Y-34736667D02*
X227579527Y-34736648D01*
X212433985Y-65002722D02*
X212433985Y-65791015D01*
X219179527Y-30348993D02*
X219176660Y-30346126D01*
X210779527Y-30349100D02*
X210785076Y-30343551D01*
X227633985Y-64348936D02*
X227637177Y-64345744D01*
X42654000Y-65156875D02*
X42654000Y-64530000D01*
X221233985Y-68929015D02*
X221202000Y-68961000D01*
X148161500Y-42232000D02*
X146975000Y-42232000D01*
X48383000Y-33627000D02*
X48355000Y-33655000D01*
X170656000Y-40158500D02*
X171264500Y-40158500D01*
X192137484Y-41994541D02*
X191563769Y-41994541D01*
X216833985Y-67386985D02*
X216152423Y-66705423D01*
X149807000Y-55732000D02*
X149828000Y-55753000D01*
X192137484Y-59594541D02*
X191134541Y-59594541D01*
X189851459Y-52794541D02*
X189960000Y-52686000D01*
X219179527Y-33518473D02*
X219297000Y-33401000D01*
X220379527Y-31002790D02*
X220379527Y-31656649D01*
X148161500Y-51232000D02*
X146958000Y-51232000D01*
X147386500Y-57756500D02*
X147415000Y-57785000D01*
X147386500Y-36132000D02*
X147386500Y-35207500D01*
X148161500Y-54732000D02*
X149823000Y-54732000D01*
X189057484Y-47994541D02*
X189821541Y-47994541D01*
X212833985Y-67450985D02*
X212693000Y-67310000D01*
X38898001Y-57472001D02*
X38957000Y-57531000D01*
X209633985Y-65797015D02*
X209518000Y-65913000D01*
X216779527Y-30348931D02*
X216779506Y-30348910D01*
D37*
X138757500Y-60452000D02*
X138017000Y-60452000D01*
D36*
X46639000Y-68518000D02*
X46577000Y-68580000D01*
X251174000Y-66572300D02*
X251657700Y-66572300D01*
D37*
X272383000Y-62832000D02*
X277209000Y-62832000D01*
X250588000Y-60784000D02*
X250539000Y-60833000D01*
D36*
X171264500Y-40158500D02*
X171291000Y-40132000D01*
X191461164Y-48394541D02*
X191122702Y-48733003D01*
X38898001Y-52773001D02*
X38957000Y-52832000D01*
X226379527Y-30348931D02*
X226379527Y-31002790D01*
X45180000Y-44122500D02*
X45180000Y-43307000D01*
X38103999Y-43375001D02*
X38898001Y-43375001D01*
X209633985Y-67321015D02*
X209645000Y-67310000D01*
X223979527Y-34082790D02*
X223979527Y-34736648D01*
X222433985Y-68082722D02*
X222433985Y-68872015D01*
X264967300Y-65863300D02*
X265017000Y-65913000D01*
X191122702Y-48733003D02*
X191103000Y-48733003D01*
X148161500Y-49732000D02*
X146959000Y-49732000D01*
D37*
X189954541Y-50794541D02*
X189960000Y-50800000D01*
D36*
X220033985Y-65002722D02*
X220033985Y-64348862D01*
X48383000Y-32588275D02*
X48383000Y-33627000D01*
X211979527Y-33428931D02*
X211979512Y-33428916D01*
X216433985Y-65002722D02*
X216433985Y-64348863D01*
X148161500Y-55232000D02*
X149307000Y-55232000D01*
X192137484Y-54394541D02*
X191191459Y-54394541D01*
X221579527Y-33430578D02*
X221558269Y-33409320D01*
X220351638Y-33401000D02*
X219297000Y-33401000D01*
X189057484Y-48794541D02*
X189859541Y-48794541D01*
X191428700Y-50124995D02*
X191086998Y-50124995D01*
X41682999Y-48074001D02*
X41624000Y-48133000D01*
X210833985Y-65002722D02*
X210833985Y-65867015D01*
X147386500Y-56832000D02*
X145701000Y-56832000D01*
D37*
X272388100Y-57832000D02*
X277209000Y-57832000D01*
D36*
X223979527Y-31002790D02*
X223979527Y-30373900D01*
X222779527Y-33428931D02*
X222779537Y-33428921D01*
X213179527Y-31002790D02*
X213179527Y-30348932D01*
X213179527Y-34082790D02*
X213179528Y-33428931D01*
X146975000Y-42232000D02*
X146907000Y-42164000D01*
X189057484Y-52794541D02*
X189851459Y-52794541D01*
X147386500Y-36132000D02*
X149003000Y-36132000D01*
X221579527Y-31656649D02*
X221579513Y-31656663D01*
X209633985Y-68082722D02*
X209633985Y-67321015D01*
X210833985Y-68082722D02*
X210833985Y-67355985D01*
X191204459Y-56794541D02*
X191103000Y-56896000D01*
X220379548Y-33428910D02*
X220351638Y-33401000D01*
X146928000Y-37232000D02*
X146907000Y-37211000D01*
X189057484Y-59594541D02*
X189864541Y-59594541D01*
X189057484Y-40794541D02*
X189585528Y-40794541D01*
X216779527Y-33423527D02*
X216757000Y-33401000D01*
X216779527Y-31002790D02*
X216779527Y-30348931D01*
X46704000Y-58139500D02*
X46704000Y-57404000D01*
X192137484Y-56794541D02*
X191204459Y-56794541D01*
X215579527Y-34082790D02*
X215579527Y-33428931D01*
X172688000Y-40158500D02*
X173296500Y-40158500D01*
X220379527Y-34082790D02*
X220379527Y-33428931D01*
X226379527Y-34082790D02*
X226379527Y-34736649D01*
X149823000Y-54732000D02*
X149828000Y-54737000D01*
X42604001Y-48074001D02*
X41682999Y-48074001D01*
X45180000Y-53498000D02*
X45180000Y-52705000D01*
X162274000Y-40237500D02*
X162274000Y-39243000D01*
X48383000Y-36929000D02*
X48355000Y-36957000D01*
X213179527Y-30348932D02*
X213179504Y-30348909D01*
X162274000Y-35327500D02*
X162274000Y-36449000D01*
X189758541Y-44394541D02*
X189960000Y-44596000D01*
X38209000Y-40894000D02*
X38209000Y-41896000D01*
X209579527Y-31002790D02*
X209579527Y-30348932D01*
X148161500Y-40732000D02*
X146999000Y-40732000D01*
X46639000Y-67964000D02*
X46639000Y-68518000D01*
D37*
X272388100Y-59832000D02*
X277209000Y-59832000D01*
D36*
X214433985Y-65002722D02*
X214433985Y-64348863D01*
X260826000Y-68096300D02*
X261233500Y-68096300D01*
X192137484Y-48394541D02*
X191461164Y-48394541D01*
X160496000Y-34697500D02*
X160496000Y-35433000D01*
X189864541Y-59277459D02*
X189960000Y-59182000D01*
X191563769Y-41994541D02*
X191375310Y-42183000D01*
X42604001Y-43375001D02*
X41809999Y-43375001D01*
X214379527Y-31002790D02*
X214379527Y-30348932D01*
X148161500Y-48232000D02*
X146935000Y-48232000D01*
X39025001Y-48074001D02*
X39084000Y-48133000D01*
X45180000Y-58197000D02*
X45180000Y-57404000D01*
X209579527Y-34082790D02*
X209579527Y-33428931D01*
X216833985Y-68082722D02*
X216833985Y-67386985D01*
X210833985Y-65867015D02*
X210788000Y-65913000D01*
X216433985Y-64348863D02*
X216433981Y-64348859D01*
X148161500Y-39232000D02*
X146918000Y-39232000D01*
X211979527Y-31002790D02*
X211979527Y-30348931D01*
X211979527Y-34082790D02*
X211979527Y-33428931D01*
X39829000Y-62331875D02*
X40201875Y-62331875D01*
X220033985Y-64348862D02*
X220034002Y-64348845D01*
X216779506Y-30348910D02*
X216782290Y-30346126D01*
X264382000Y-65863300D02*
X264967300Y-65863300D01*
X40354000Y-62484000D02*
X40354000Y-64506875D01*
X225179527Y-31002790D02*
X225179527Y-31662901D01*
D37*
X272388100Y-50832000D02*
X277209000Y-50832000D01*
D36*
X225179527Y-34736649D02*
X225179525Y-34736651D01*
X40354000Y-64506875D02*
X41614875Y-64506875D01*
D37*
X252317000Y-61414000D02*
X253460000Y-61414000D01*
D36*
X46704000Y-53440500D02*
X46704000Y-52705000D01*
X218833985Y-68082722D02*
X218833985Y-68916015D01*
X222833985Y-64348863D02*
X222833972Y-64348850D01*
X262604000Y-65863300D02*
X263011500Y-65863300D01*
X169894000Y-35327500D02*
X169894000Y-36449000D01*
X189902459Y-54794541D02*
X189960000Y-54737000D01*
X192137484Y-57994541D02*
X191185541Y-57994541D01*
X148161500Y-43732000D02*
X146951000Y-43732000D01*
X149129000Y-56832000D02*
X149193000Y-56896000D01*
X148161500Y-55732000D02*
X149807000Y-55732000D01*
D37*
X189057484Y-50794541D02*
X189954541Y-50794541D01*
D36*
X42654000Y-64530000D02*
X42640000Y-64516000D01*
X191185541Y-57994541D02*
X191103000Y-57912000D01*
X210779527Y-31002790D02*
X210779527Y-30349100D01*
X148161500Y-37732000D02*
X146412000Y-37732000D01*
X268427000Y-54464000D02*
X268446000Y-54483000D01*
X227633985Y-65002722D02*
X227633985Y-64348936D01*
X253460000Y-65024000D02*
X253460000Y-65942300D01*
X257524000Y-68329800D02*
X257524000Y-69723000D01*
X261372000Y-61414000D02*
X262350000Y-61414000D01*
X189821541Y-47994541D02*
X189960000Y-48133000D01*
X146935000Y-48232000D02*
X146907000Y-48260000D01*
X191191459Y-54394541D02*
X191103000Y-54483000D01*
X227579527Y-34736648D02*
X227579527Y-34082790D01*
X214833985Y-68082722D02*
X214833985Y-67328015D01*
X46704000Y-44042500D02*
X46704000Y-43307000D01*
X218833985Y-68916015D02*
X218789000Y-68961000D01*
X147386500Y-35207500D02*
X147415000Y-35179000D01*
X222779527Y-34082790D02*
X222779527Y-33428931D01*
D37*
X272383000Y-59837100D02*
X272388100Y-59832000D01*
D36*
X48383000Y-35890275D02*
X48383000Y-36929000D01*
X220033985Y-68935985D02*
X220059000Y-68961000D01*
X221579527Y-31002790D02*
X221579527Y-31656649D01*
X48383000Y-39192275D02*
X48383000Y-40231000D01*
X209579527Y-30348932D02*
X209579502Y-30348907D01*
X221579527Y-34082790D02*
X221579527Y-33430578D01*
X38209000Y-38594000D02*
X38195000Y-38608000D01*
X160496000Y-40867500D02*
X160496000Y-40132000D01*
X46704000Y-48741500D02*
X46704000Y-48006000D01*
X189057484Y-44394541D02*
X189758541Y-44394541D01*
X173296500Y-40158500D02*
X173323000Y-40132000D01*
X191103000Y-59563000D02*
X191103000Y-59182000D01*
X189585528Y-40794541D02*
X189830987Y-41040000D01*
X208433985Y-68082722D02*
X208433985Y-67378015D01*
X225179527Y-31662901D02*
X225063035Y-31779393D01*
X145700000Y-36132000D02*
X145637000Y-36195000D01*
X146958000Y-51232000D02*
X146907000Y-51181000D01*
X217979527Y-30393599D02*
X218027000Y-30346126D01*
X191134541Y-59594541D02*
X191103000Y-59563000D01*
X191475459Y-40794541D02*
X191230000Y-41040000D01*
X223979527Y-34736648D02*
X223979502Y-34736673D01*
X42604001Y-52773001D02*
X41809999Y-52773001D01*
X220379527Y-33428931D02*
X220379548Y-33428910D01*
X189057484Y-45594541D02*
X189815541Y-45594541D01*
X146412000Y-37732000D02*
X146399000Y-37719000D01*
D37*
X189891541Y-46794541D02*
X189960000Y-46863000D01*
D36*
X261233500Y-68096300D02*
X261334000Y-67995800D01*
X192137484Y-50394541D02*
X191698246Y-50394541D01*
X149317000Y-54232000D02*
X149320000Y-54229000D01*
X223979527Y-30373900D02*
X223828813Y-30223186D01*
X219179527Y-34082790D02*
X219179527Y-33518473D01*
X192137484Y-43194541D02*
X191488459Y-43194541D01*
X40201875Y-62331875D02*
X40354000Y-62484000D01*
X214379527Y-30348932D02*
X214379506Y-30348911D01*
X38209000Y-37592000D02*
X38209000Y-38594000D01*
X41809999Y-57472001D02*
X41751000Y-57531000D01*
X189057484Y-41994541D02*
X189771541Y-41994541D01*
X148161500Y-45232000D02*
X146927000Y-45232000D01*
X41809999Y-43375001D02*
X41751000Y-43434000D01*
X146959000Y-49732000D02*
X146907000Y-49784000D01*
X147386500Y-56832000D02*
X149129000Y-56832000D01*
X189859541Y-48794541D02*
X189960000Y-48895000D01*
X214833985Y-67328015D02*
X214852000Y-67310000D01*
X222833985Y-65002722D02*
X222833985Y-64348863D01*
X191488459Y-43194541D02*
X191357000Y-43326000D01*
X38209000Y-35292000D02*
X38195000Y-35306000D01*
D37*
X272383000Y-50837100D02*
X272388100Y-50832000D01*
D36*
X189877541Y-57194541D02*
X189960000Y-57277000D01*
D37*
X272256000Y-47832000D02*
X277076900Y-47832000D01*
D36*
X221233985Y-68082722D02*
X221233985Y-68929015D01*
X192137484Y-45994541D02*
X191463459Y-45994541D01*
X226379527Y-34736649D02*
X226379549Y-34736671D01*
X218027000Y-30346126D02*
X219176660Y-30346126D01*
X222433985Y-68872015D02*
X222345000Y-68961000D01*
X138652000Y-32385000D02*
X137657500Y-32385000D01*
X38103999Y-52773001D02*
X38898001Y-52773001D01*
X215579527Y-30348931D02*
X215579532Y-30348926D01*
X148161500Y-46732000D02*
X146930000Y-46732000D01*
X251657700Y-66572300D02*
X251682000Y-66548000D01*
X215579527Y-33428931D02*
X215579551Y-33428907D01*
X221233985Y-65002722D02*
X221233985Y-64348863D01*
X146999000Y-40732000D02*
X146907000Y-40640000D01*
X215579527Y-31002790D02*
X215579527Y-30348931D01*
X166084000Y-42625000D02*
X166084000Y-43942000D01*
X148161500Y-37232000D02*
X146928000Y-37232000D01*
X146930000Y-46732000D02*
X146907000Y-46755000D01*
X218433985Y-64348863D02*
X218433992Y-64348856D01*
X226379546Y-30348912D02*
X226379527Y-30348931D01*
X48383000Y-40231000D02*
X48355000Y-40259000D01*
X146951000Y-43732000D02*
X146907000Y-43688000D01*
X263011500Y-65863300D02*
X263112000Y-65963800D01*
D37*
X189057484Y-46794541D02*
X189891541Y-46794541D01*
D36*
X191698246Y-50394541D02*
X191428700Y-50124995D01*
X218433985Y-65002722D02*
X218433985Y-64348863D01*
X189057484Y-43194541D02*
X189828541Y-43194541D01*
X41809999Y-52773001D02*
X41751000Y-52832000D01*
X208433985Y-67378015D02*
X208502000Y-67310000D01*
X189057484Y-57194541D02*
X189877541Y-57194541D01*
X209633985Y-65002722D02*
X209633985Y-65797015D01*
D37*
X251174000Y-60784000D02*
X250588000Y-60784000D01*
D36*
X217979527Y-31002790D02*
X217979527Y-30393599D01*
X191198541Y-55594541D02*
X191103000Y-55499000D01*
X189815541Y-45594541D02*
X189960000Y-45739000D01*
X191159459Y-52394541D02*
X191103000Y-52451000D01*
X210779527Y-34082790D02*
X210779527Y-33428931D01*
X38209000Y-34290000D02*
X38209000Y-35292000D01*
X262350000Y-61414000D02*
X262985000Y-61414000D01*
X189864541Y-59594541D02*
X189864541Y-59277459D01*
X222779527Y-31002790D02*
X222779527Y-30553261D01*
X38898001Y-43375001D02*
X38957000Y-43434000D01*
X189771541Y-41994541D02*
X189960000Y-42183000D01*
X42604001Y-57472001D02*
X41809999Y-57472001D01*
X38209000Y-31990000D02*
X38195000Y-32004000D01*
X168624000Y-42391500D02*
X169232500Y-42391500D01*
X189828541Y-43194541D02*
X189960000Y-43326000D01*
X210833985Y-67355985D02*
X210788000Y-67310000D01*
X149003000Y-36132000D02*
X149066000Y-36195000D01*
X38103999Y-57472001D02*
X38898001Y-57472001D01*
X148161500Y-54232000D02*
X149317000Y-54232000D01*
X222779527Y-30553261D02*
X223107000Y-30225788D01*
X192137484Y-55594541D02*
X191198541Y-55594541D01*
X169232500Y-42391500D02*
X169259000Y-42418000D01*
X172434000Y-35327500D02*
X172434000Y-36449000D01*
X38103999Y-48074001D02*
X39025001Y-48074001D01*
X192137484Y-40794541D02*
X191475459Y-40794541D01*
X227579546Y-30348912D02*
X227579527Y-30348931D01*
X149307000Y-55232000D02*
X149320000Y-55245000D01*
X192137484Y-52394541D02*
X191159459Y-52394541D01*
X41614875Y-64506875D02*
X41624000Y-64516000D01*
X146927000Y-45232000D02*
X146907000Y-45212000D01*
X214433985Y-64348863D02*
X214433980Y-64348858D01*
X267749000Y-54464000D02*
X268427000Y-54464000D01*
X212833985Y-68082722D02*
X212833985Y-67450985D01*
X216779527Y-34082790D02*
X216779527Y-33423527D01*
X220033985Y-68082722D02*
X220033985Y-68935985D01*
X147386500Y-56832000D02*
X147386500Y-57756500D01*
X38209000Y-30988000D02*
X38209000Y-31990000D01*
X45180000Y-48799000D02*
X45180000Y-48006000D01*
X227579527Y-30348931D02*
X227579527Y-31002790D01*
X210779527Y-33428931D02*
X210779525Y-33428929D01*
X221233985Y-64348863D02*
X221234009Y-64348839D01*
X214379527Y-34082790D02*
X214379527Y-33428931D01*
X262985000Y-61414000D02*
X263874000Y-61414000D01*
X145701000Y-56832000D02*
X145637000Y-56896000D01*
X208433985Y-65002722D02*
X208433985Y-65844985D01*
X216782290Y-30346126D02*
X218027000Y-30346126D01*
X208433985Y-65844985D02*
X208502000Y-65913000D01*
X212433985Y-65791015D02*
X212312000Y-65913000D01*
X191463459Y-45994541D02*
X191357000Y-46101000D01*
X38209000Y-41896000D02*
X38195000Y-41910000D01*
X225179527Y-34082790D02*
X225179527Y-34736649D01*
X147386500Y-36132000D02*
X145700000Y-36132000D01*
X146918000Y-39232000D02*
X146907000Y-39243000D01*
D37*
X272383000Y-57837100D02*
X272388100Y-57832000D01*
D36*
X189057484Y-54794541D02*
X189902459Y-54794541D01*
%TO.N,Net-(D2-A2)*%
X47974000Y-58954500D02*
X46704000Y-58954500D01*
X44322000Y-58897000D02*
X43597001Y-59621999D01*
X45237500Y-58954500D02*
X45180000Y-58897000D01*
X38103999Y-59621999D02*
X42604001Y-59621999D01*
X43597001Y-59621999D02*
X42604001Y-59621999D01*
X46704000Y-58954500D02*
X45237500Y-58954500D01*
X45180000Y-58897000D02*
X44322000Y-58897000D01*
%TO.N,Net-(D4-A2)*%
X44322000Y-54198000D02*
X43597001Y-54922999D01*
X45180000Y-54198000D02*
X44322000Y-54198000D01*
X47974000Y-54255500D02*
X46704000Y-54255500D01*
X46704000Y-54255500D02*
X45237500Y-54255500D01*
X45237500Y-54255500D02*
X45180000Y-54198000D01*
X38103999Y-54922999D02*
X42604001Y-54922999D01*
X43597001Y-54922999D02*
X42604001Y-54922999D01*
%TO.N,Net-(D17-A2)*%
X43724001Y-45524999D02*
X42604001Y-45524999D01*
X46704000Y-44857500D02*
X45215000Y-44857500D01*
X44426500Y-44822500D02*
X43724001Y-45524999D01*
X45180000Y-44822500D02*
X44426500Y-44822500D01*
X38103999Y-45524999D02*
X42604001Y-45524999D01*
X47974000Y-44857500D02*
X46704000Y-44857500D01*
X45215000Y-44857500D02*
X45180000Y-44822500D01*
%TO.N,Net-(D33-A2)*%
X45180000Y-49499000D02*
X44449000Y-49499000D01*
X47974000Y-49556500D02*
X46704000Y-49556500D01*
X38103999Y-50223999D02*
X42604001Y-50223999D01*
X45237500Y-49556500D02*
X45180000Y-49499000D01*
X44449000Y-49499000D02*
X43724001Y-50223999D01*
X46704000Y-49556500D02*
X45237500Y-49556500D01*
X43724001Y-50223999D02*
X42604001Y-50223999D01*
%TO.N,Net-(ED5-A2)*%
X38195000Y-66802000D02*
X38604000Y-66393000D01*
X38604000Y-66393000D02*
X38604000Y-65506875D01*
X39129000Y-62331875D02*
X38855125Y-62331875D01*
X38195000Y-69215000D02*
X38195000Y-66802000D01*
X39071500Y-69469000D02*
X38449000Y-69469000D01*
X38604000Y-62583000D02*
X38604000Y-65506875D01*
X38449000Y-69469000D02*
X38195000Y-69215000D01*
X38855125Y-62331875D02*
X38604000Y-62583000D01*
%TO.N,Net-(ED6-A2)*%
X40354000Y-66506875D02*
X42427125Y-66506875D01*
X40354000Y-66506875D02*
X40354000Y-67183000D01*
X40354000Y-67183000D02*
X40100000Y-67437000D01*
X39325500Y-67437000D02*
X39071500Y-67691000D01*
X42654000Y-66280000D02*
X42654000Y-65856875D01*
X40100000Y-67437000D02*
X39325500Y-67437000D01*
X39071500Y-67691000D02*
X39071500Y-68199000D01*
X42427125Y-66506875D02*
X42654000Y-66280000D01*
%TO.N,Net-(U4-EN)*%
X170656000Y-39343500D02*
X172688000Y-39343500D01*
X167615500Y-39343500D02*
X168624000Y-39343500D01*
X168624000Y-39343500D02*
X170656000Y-39343500D01*
X167034000Y-39925000D02*
X167615500Y-39343500D01*
D37*
%TO.N,+12V*%
X272429000Y-65832000D02*
X277209000Y-65832000D01*
X162274000Y-42312500D02*
X160771500Y-42312500D01*
X168624000Y-40767000D02*
X168116000Y-41275000D01*
D36*
X260826000Y-65863300D02*
X260826000Y-66471800D01*
X252211500Y-68017300D02*
X253460000Y-68017300D01*
D37*
X272432000Y-63832000D02*
X277209000Y-63832000D01*
X165115000Y-42625000D02*
X164802500Y-42312500D01*
D36*
X251581500Y-67387300D02*
X252211500Y-68017300D01*
D39*
X277209000Y-65832000D02*
X277209000Y-64832000D01*
D37*
X272383000Y-63881000D02*
X272432000Y-63832000D01*
D36*
X52713500Y-39192275D02*
X54527275Y-39192275D01*
D37*
X168624000Y-40158500D02*
X168624000Y-40767000D01*
X165576000Y-41275000D02*
X165134000Y-41717000D01*
D36*
X260318000Y-66979800D02*
X257016000Y-66979800D01*
X255318000Y-68329800D02*
X255005500Y-68017300D01*
D40*
X162274000Y-42312500D02*
X162274000Y-43815000D01*
D37*
X160771500Y-42312500D02*
X160496000Y-42037000D01*
D36*
X255005500Y-68017300D02*
X253460000Y-68017300D01*
X260826000Y-66471800D02*
X260318000Y-66979800D01*
D37*
X272383000Y-64897000D02*
X272448000Y-64832000D01*
D39*
X277209000Y-64832000D02*
X277209000Y-63832000D01*
D37*
X164802500Y-42312500D02*
X162274000Y-42312500D01*
X272448000Y-64832000D02*
X277209000Y-64832000D01*
D36*
X54527275Y-39192275D02*
X54578000Y-39243000D01*
D37*
X160496000Y-41682500D02*
X160496000Y-42037000D01*
X272383000Y-65786000D02*
X272429000Y-65832000D01*
D36*
X251174000Y-67387300D02*
X251581500Y-67387300D01*
X256574000Y-68329800D02*
X255318000Y-68329800D01*
X253460000Y-68707000D02*
X253206000Y-68961000D01*
X256574000Y-67421800D02*
X256574000Y-68329800D01*
X257016000Y-66979800D02*
X256574000Y-67421800D01*
D37*
X168116000Y-41275000D02*
X165576000Y-41275000D01*
X165134000Y-42625000D02*
X165115000Y-42625000D01*
D36*
X253460000Y-68017300D02*
X253460000Y-68707000D01*
D37*
X165134000Y-41717000D02*
X165134000Y-42625000D01*
D36*
%TO.N,/UART2_RX*%
X232378000Y-52070000D02*
X273708999Y-52070000D01*
X218433985Y-67187000D02*
X218433985Y-68082722D01*
X42513000Y-69469000D02*
X40253500Y-69469000D01*
X230780000Y-53667998D02*
X232378000Y-52070000D01*
X273708999Y-52070000D02*
X273983999Y-51795000D01*
X217646000Y-67187000D02*
X218433985Y-67187000D01*
X47339000Y-64643000D02*
X42513000Y-69469000D01*
X230780000Y-65650140D02*
X230780000Y-53667998D01*
X273983999Y-51795000D02*
X277209000Y-51795000D01*
X218433985Y-68082722D02*
X218433985Y-66776015D01*
X218990000Y-66220000D02*
X230210140Y-66220000D01*
X54705000Y-64643000D02*
X47339000Y-64643000D01*
X218433985Y-66776015D02*
X218990000Y-66220000D01*
X230210140Y-66220000D02*
X230780000Y-65650140D01*
D37*
%TO.N,Net-(U5-EN)*%
X260039700Y-65048300D02*
X260826000Y-65048300D01*
X262604000Y-65048300D02*
X264382000Y-65048300D01*
X259458200Y-65629800D02*
X260039700Y-65048300D01*
X258474000Y-65629800D02*
X259458200Y-65629800D01*
X260826000Y-65048300D02*
X262604000Y-65048300D01*
D38*
%TO.N,+5V_3A*%
X225266000Y-69850000D02*
X225774000Y-69850000D01*
D36*
X224433985Y-68082722D02*
X224433985Y-69666015D01*
X264920000Y-59339000D02*
X263874000Y-59339000D01*
X58790000Y-70125000D02*
X216385174Y-70125000D01*
X224033985Y-69633985D02*
X224250000Y-69850000D01*
D39*
X261063300Y-59030300D02*
X261372000Y-59339000D01*
D36*
X223633985Y-69741985D02*
X223633985Y-68082722D01*
X224833985Y-69774015D02*
X224758000Y-69850000D01*
X224833985Y-68082722D02*
X224833985Y-69774015D01*
X223742000Y-69850000D02*
X223633985Y-69741985D01*
X54578000Y-35941000D02*
X54527275Y-35890275D01*
X265672000Y-60091000D02*
X264920000Y-59339000D01*
X225233985Y-69817985D02*
X225266000Y-69850000D01*
D38*
X224250000Y-69850000D02*
X224758000Y-69850000D01*
D36*
X216660175Y-69850000D02*
X223742000Y-69850000D01*
D38*
X251174000Y-59339000D02*
X253460000Y-59339000D01*
D36*
X48990000Y-68707000D02*
X57372000Y-68707000D01*
X224433985Y-69666015D02*
X224250000Y-69850000D01*
D38*
X247364000Y-60960000D02*
X248985000Y-59339000D01*
D36*
X57372000Y-68707000D02*
X58790000Y-70125000D01*
D38*
X248985000Y-59339000D02*
X251174000Y-59339000D01*
X224758000Y-69850000D02*
X225012000Y-69850000D01*
D36*
X264382000Y-68096300D02*
X264992700Y-68096300D01*
D38*
X223742000Y-69850000D02*
X224250000Y-69850000D01*
D39*
X257832700Y-59339000D02*
X257524000Y-59030300D01*
D37*
X251174000Y-59969000D02*
X251174000Y-59339000D01*
D38*
X247364000Y-67818000D02*
X247364000Y-60960000D01*
D36*
X225633985Y-68082722D02*
X225633985Y-69709985D01*
X54527275Y-35890275D02*
X52713500Y-35890275D01*
X264992700Y-68096300D02*
X265672000Y-67417000D01*
X224033985Y-68082722D02*
X224033985Y-69633985D01*
D38*
X253460000Y-59339000D02*
X257215300Y-59339000D01*
D36*
X265672000Y-67417000D02*
X265672000Y-60091000D01*
D39*
X257215300Y-59339000D02*
X257524000Y-59030300D01*
D36*
X225233985Y-68082722D02*
X225233985Y-69817985D01*
D38*
X225774000Y-69850000D02*
X245332000Y-69850000D01*
D36*
X262604000Y-68096300D02*
X264382000Y-68096300D01*
X225633985Y-69709985D02*
X225774000Y-69850000D01*
D38*
X225012000Y-69850000D02*
X225266000Y-69850000D01*
D35*
X261372000Y-59339000D02*
X263874000Y-59339000D01*
D36*
X216385174Y-70125000D02*
X216660175Y-69850000D01*
D35*
X261372000Y-59339000D02*
X257832700Y-59339000D01*
D38*
X245332000Y-69850000D02*
X247364000Y-67818000D01*
D36*
%TO.N,Net-(D3-K)*%
X50133000Y-35890275D02*
X51898500Y-35890275D01*
%TO.N,Net-(D7-K)*%
X39959000Y-37592000D02*
X41724500Y-37592000D01*
%TO.N,/PMIC_RESET_L*%
X230074278Y-65892000D02*
X226769000Y-65892000D01*
X270986000Y-50800000D02*
X270986000Y-51181000D01*
X226433985Y-65002722D02*
X226433985Y-64413985D01*
X230452000Y-53532138D02*
X230452000Y-65514278D01*
X226433985Y-65556985D02*
X226433985Y-65002722D01*
X53181000Y-57404000D02*
X53181000Y-45974000D01*
X226769000Y-65892000D02*
X226433985Y-65556985D01*
X51249500Y-44042500D02*
X47974000Y-44042500D01*
X226433985Y-64413985D02*
X226409000Y-64389000D01*
X53181000Y-45974000D02*
X51249500Y-44042500D01*
X230452000Y-65514278D02*
X230074278Y-65892000D01*
X270478000Y-51689000D02*
X232295138Y-51689000D01*
X232295138Y-51689000D02*
X230452000Y-53532138D01*
X270986000Y-51181000D02*
X270478000Y-51689000D01*
%TO.N,/UART2_TX*%
X231108000Y-53803860D02*
X232391860Y-52520000D01*
X273708999Y-52520000D02*
X273983999Y-52795000D01*
X273983999Y-52795000D02*
X277209000Y-52795000D01*
X42259000Y-68199000D02*
X40253500Y-68199000D01*
X232391860Y-52520000D02*
X273708999Y-52520000D01*
X46831000Y-63627000D02*
X42259000Y-68199000D01*
X231108000Y-65786000D02*
X231108000Y-53803860D01*
X219233985Y-68082722D02*
X219233985Y-67187000D01*
X230346000Y-66548000D02*
X231108000Y-65786000D01*
X219506000Y-66548000D02*
X230346000Y-66548000D01*
X219233985Y-68082722D02*
X219233985Y-66820015D01*
X56610000Y-64008000D02*
X56229000Y-63627000D01*
X56229000Y-63627000D02*
X46831000Y-63627000D01*
X219233985Y-66820015D02*
X219506000Y-66548000D01*
%TO.N,/PWRON_L*%
X229002000Y-66876000D02*
X230481862Y-66876000D01*
X228695000Y-67183000D02*
X229002000Y-66876000D01*
X270494000Y-52848000D02*
X270986000Y-53340000D01*
X49598500Y-58139500D02*
X47974000Y-58139500D01*
X231436000Y-65921862D02*
X231436000Y-53939722D01*
X270986000Y-55118000D02*
X271700000Y-55832000D01*
X50133000Y-59309000D02*
X50133000Y-58674000D01*
X230481862Y-66876000D02*
X231436000Y-65921862D01*
X231436000Y-53939722D02*
X232527722Y-52848000D01*
X50133000Y-58674000D02*
X49598500Y-58139500D01*
X228033985Y-67590015D02*
X228033985Y-68082722D01*
X271700000Y-55832000D02*
X277209000Y-55832000D01*
X228441000Y-67183000D02*
X228033985Y-67590015D01*
X270986000Y-53340000D02*
X270986000Y-55118000D01*
X228695000Y-67183000D02*
X228441000Y-67183000D01*
X232527722Y-52848000D02*
X270494000Y-52848000D01*
%TO.N,Net-(D8-K)*%
X39959000Y-34290000D02*
X41724500Y-34290000D01*
%TO.N,/MIPI_DPHY1_TX_D1P*%
X224779527Y-34082790D02*
X224804528Y-34107791D01*
%TO.N,/HDMI0_TX3N*%
X226004528Y-31402824D02*
X226004528Y-31027791D01*
X235862198Y-39107000D02*
X233873000Y-37117802D01*
X277209000Y-38832000D02*
X273983999Y-38832000D01*
X233873000Y-37117802D02*
X233873000Y-33180802D01*
X226004528Y-31027791D02*
X225979527Y-31002790D01*
X273708999Y-39107000D02*
X235862198Y-39107000D01*
X273983999Y-38832000D02*
X273708999Y-39107000D01*
X232344198Y-31652000D02*
X226253704Y-31652000D01*
X233873000Y-33180802D02*
X232344198Y-31652000D01*
X226253704Y-31652000D02*
X226004528Y-31402824D01*
%TO.N,/HDMI0_TX_SDA_M0*%
X228187000Y-40005000D02*
X228187000Y-34290263D01*
X273983999Y-43815000D02*
X273708999Y-43540000D01*
X277209000Y-43815000D02*
X273983999Y-43815000D01*
X231722000Y-43540000D02*
X228187000Y-40005000D01*
X273708999Y-43540000D02*
X231722000Y-43540000D01*
X228187000Y-34290263D02*
X227979527Y-34082790D01*
%TO.N,/MIPI_DPHY1_TX_D0N*%
X223179527Y-34082790D02*
X223154526Y-34107791D01*
%TO.N,/MIPI_DPHY1_TX_D2N*%
X226779527Y-34082790D02*
X226754526Y-34107791D01*
%TO.N,/HDMI0_TX2N*%
X277209000Y-35832000D02*
X273983999Y-35832000D01*
X273708999Y-35557000D02*
X247169802Y-35557000D01*
X247169802Y-35557000D02*
X245742000Y-34129198D01*
X245742000Y-30334198D02*
X244197979Y-28790177D01*
X222404528Y-30977789D02*
X222379527Y-31002790D01*
X245742000Y-34129198D02*
X245742000Y-30334198D01*
X244197979Y-28790177D02*
X223718805Y-28789393D01*
X273983999Y-35832000D02*
X273708999Y-35557000D01*
X223718805Y-28789393D02*
X222404528Y-30103670D01*
X222404528Y-30103670D02*
X222404528Y-30977789D01*
%TO.N,/HDMI0_TX2P*%
X273983999Y-34832000D02*
X273708999Y-35107000D01*
X221954526Y-30977789D02*
X221979527Y-31002790D01*
X244506387Y-28462189D02*
X223410421Y-28461381D01*
X277209000Y-34832000D02*
X273983999Y-34832000D01*
X221954526Y-29917276D02*
X221954526Y-30977789D01*
X246192000Y-30147802D02*
X244506387Y-28462189D01*
X273708999Y-35107000D02*
X247356198Y-35107000D01*
X223410421Y-28461381D02*
X221954526Y-29917276D01*
X247356198Y-35107000D02*
X246192000Y-33942802D01*
X246192000Y-33942802D02*
X246192000Y-30147802D01*
%TO.N,/HDMI0_TX_SCL_M0*%
X228426210Y-31002790D02*
X228568000Y-30861000D01*
X273983999Y-42815000D02*
X277209000Y-42815000D01*
X228822000Y-34671000D02*
X228822000Y-39878000D01*
X227979527Y-31002790D02*
X228426210Y-31002790D01*
X232034000Y-43090000D02*
X273708999Y-43090000D01*
X228822000Y-39878000D02*
X232034000Y-43090000D01*
X273708999Y-43090000D02*
X273983999Y-42815000D01*
%TO.N,/HDMI0_TX1P*%
X231645000Y-39019394D02*
X231645000Y-33875198D01*
X223154526Y-31027791D02*
X223179527Y-31002790D01*
X273983999Y-41832000D02*
X273708999Y-41557000D01*
X231645000Y-33875198D02*
X230887802Y-33118000D01*
X224537802Y-33118000D02*
X223154526Y-31734724D01*
X277209000Y-41832000D02*
X273983999Y-41832000D01*
X223154526Y-31734724D02*
X223154526Y-31027791D01*
X273708999Y-41557000D02*
X234182606Y-41557000D01*
X234182606Y-41557000D02*
X231645000Y-39019394D01*
X230887802Y-33118000D02*
X224537802Y-33118000D01*
%TO.N,/MIPI_DPHY1_TX_CLKN*%
X225579527Y-34082790D02*
X225554526Y-34107791D01*
%TO.N,/MIPI_DPHY1_TX_CLKP*%
X225979527Y-34082790D02*
X226004528Y-34107791D01*
%TO.N,/MIPI_DPHY1_TX_D0P*%
X223579527Y-34082790D02*
X223604528Y-34107791D01*
%TO.N,/HDMI0_TX0N*%
X273983999Y-37832000D02*
X273708999Y-37557000D01*
X235328000Y-36288198D02*
X235328000Y-31208198D01*
X225590924Y-29660000D02*
X224804528Y-30446396D01*
X273708999Y-37557000D02*
X236596802Y-37557000D01*
X233779802Y-29660000D02*
X225590924Y-29660000D01*
X224804528Y-30977789D02*
X224779527Y-31002790D01*
X235328000Y-31208198D02*
X233779802Y-29660000D01*
X224804528Y-30446396D02*
X224804528Y-30977789D01*
X236596802Y-37557000D02*
X235328000Y-36288198D01*
X277209000Y-37832000D02*
X273983999Y-37832000D01*
%TO.N,/HDMI0_TX0P*%
X273983999Y-36832000D02*
X273708999Y-37107000D01*
X233966198Y-29210000D02*
X225404528Y-29210000D01*
X277209000Y-36832000D02*
X273983999Y-36832000D01*
X224354526Y-30260002D02*
X224354526Y-30977789D01*
X273708999Y-37107000D02*
X236783198Y-37107000D01*
X236783198Y-37107000D02*
X235778000Y-36101802D01*
X235778000Y-31021802D02*
X233966198Y-29210000D01*
X224354526Y-30977789D02*
X224379527Y-31002790D01*
X235778000Y-36101802D02*
X235778000Y-31021802D01*
X225404528Y-29210000D02*
X224354526Y-30260002D01*
%TO.N,/MIPI_DPHY1_TX_D1N*%
X224379527Y-34082790D02*
X224354526Y-34107791D01*
%TO.N,/HDMI0_SBDN*%
X218779527Y-34082790D02*
X218779527Y-38471527D01*
X273983999Y-45832000D02*
X277209000Y-45832000D01*
X273708999Y-45557000D02*
X273983999Y-45832000D01*
X218779527Y-38471527D02*
X225865000Y-45557000D01*
X225865000Y-45557000D02*
X273708999Y-45557000D01*
%TO.N,/MIPI_DPHY1_TX_D2P*%
X227179527Y-34082790D02*
X227204528Y-34107791D01*
%TO.N,/HDMI0_TX3P*%
X277209000Y-39832000D02*
X273983999Y-39832000D01*
X233423000Y-33367198D02*
X232157802Y-32102000D01*
X233423000Y-37304198D02*
X233423000Y-33367198D01*
X232157802Y-32102000D02*
X226067308Y-32102000D01*
X235675802Y-39557000D02*
X233423000Y-37304198D01*
X225554526Y-31589218D02*
X225554526Y-31027791D01*
X273708999Y-39557000D02*
X235675802Y-39557000D01*
X273983999Y-39832000D02*
X273708999Y-39557000D01*
X225554526Y-31027791D02*
X225579527Y-31002790D01*
X226067308Y-32102000D02*
X225554526Y-31589218D01*
%TO.N,/HDMI0_TX_CEC_M0*%
X226124000Y-46832000D02*
X218379527Y-39087527D01*
X218379527Y-39087527D02*
X218379527Y-34082790D01*
X277209000Y-46832000D02*
X226124000Y-46832000D01*
%TO.N,/HDMI0_SBDP*%
X273983999Y-44832000D02*
X273708999Y-45107000D01*
X219551000Y-38606606D02*
X219551000Y-34925000D01*
X273708999Y-45107000D02*
X226051394Y-45107000D01*
X226051394Y-45107000D02*
X219551000Y-38606606D01*
X219579527Y-31002790D02*
X219579527Y-31848473D01*
X219579527Y-31848473D02*
X219551000Y-31877000D01*
X277209000Y-44832000D02*
X273983999Y-44832000D01*
%TO.N,/HDMI0_TX_ON_H*%
X217979527Y-34082790D02*
X217979527Y-32559473D01*
X249462000Y-32832000D02*
X248507000Y-31877000D01*
X217979527Y-32559473D02*
X218027000Y-32512000D01*
X277209000Y-32832000D02*
X249462000Y-32832000D01*
%TO.N,/USB20_HOST1_DP*%
X186814000Y-37563000D02*
X187518000Y-36859000D01*
X214501394Y-36859000D02*
X226749394Y-49107000D01*
X273983999Y-48832000D02*
X277209000Y-48832000D01*
X189057484Y-40394541D02*
X189032483Y-40419542D01*
X273708999Y-49107000D02*
X273983999Y-48832000D01*
X187518000Y-36859000D02*
X214501394Y-36859000D01*
X226749394Y-49107000D02*
X273708999Y-49107000D01*
X186814000Y-39780000D02*
X186814000Y-37563000D01*
X189032483Y-40419542D02*
X187453542Y-40419542D01*
X187453542Y-40419542D02*
X186814000Y-39780000D01*
%TO.N,/USB20_HOST1_DN*%
X189032483Y-39969540D02*
X187639934Y-39969540D01*
X187704394Y-37309000D02*
X214315000Y-37309000D01*
X273983999Y-49832000D02*
X277209000Y-49832000D01*
X187264000Y-37749394D02*
X187704394Y-37309000D01*
X189057484Y-39994541D02*
X189032483Y-39969540D01*
X187264000Y-39593606D02*
X187264000Y-37749394D01*
X214315000Y-37309000D02*
X226563000Y-49557000D01*
X226563000Y-49557000D02*
X273708999Y-49557000D01*
X187639934Y-39969540D02*
X187264000Y-39593606D01*
X273708999Y-49557000D02*
X273983999Y-49832000D01*
%TO.N,/GMAC_TXD2*%
X188481541Y-49194541D02*
X187293000Y-48006000D01*
X189057484Y-49194541D02*
X188481541Y-49194541D01*
X187293000Y-48006000D02*
X186912000Y-48006000D01*
%TO.N,/PCIE20_0_REFCLKN*%
X168116000Y-50232000D02*
X148161500Y-50232000D01*
X192137484Y-55194541D02*
X195370541Y-55194541D01*
X196490000Y-56314000D02*
X196490000Y-60443138D01*
X195370541Y-55194541D02*
X196490000Y-56314000D01*
X173746000Y-61891000D02*
X171672000Y-59817000D01*
X195042138Y-61891000D02*
X173746000Y-61891000D01*
X196490000Y-60443138D02*
X195042138Y-61891000D01*
X171672000Y-59817000D02*
X171672000Y-53788000D01*
X171672000Y-53788000D02*
X168116000Y-50232000D01*
%TO.N,/GMAC_TXCLK*%
X196437000Y-52197000D02*
X196234541Y-51994541D01*
X196234541Y-51994541D02*
X192137484Y-51994541D01*
%TO.N,/GMAC_RXD2*%
X188130459Y-51994541D02*
X189057484Y-51994541D01*
X187547000Y-52578000D02*
X188130459Y-51994541D01*
X186912000Y-52578000D02*
X187547000Y-52578000D01*
%TO.N,Net-(D9-K)*%
X39959000Y-40894000D02*
X41724500Y-40894000D01*
%TO.N,Net-(D10-K)*%
X50133000Y-39192275D02*
X51898500Y-39192275D01*
%TO.N,/PCIE20_0_RXP*%
X194776000Y-58365862D02*
X194776000Y-59827000D01*
X194776000Y-59827000D02*
X194024000Y-60579000D01*
X194024000Y-60579000D02*
X175990000Y-60579000D01*
X174339000Y-58928000D02*
X174339000Y-52070000D01*
X175990000Y-60579000D02*
X174339000Y-58928000D01*
X174339000Y-52070000D02*
X170001000Y-47732000D01*
X170001000Y-47732000D02*
X148161500Y-47732000D01*
X192137484Y-57594541D02*
X194004679Y-57594541D01*
X194004679Y-57594541D02*
X194776000Y-58365862D01*
%TO.N,Net-(D11-K)*%
X39959000Y-30988000D02*
X41724500Y-30988000D01*
%TO.N,/GMAC_RXD1*%
X195548000Y-48768000D02*
X193521459Y-50794541D01*
X193521459Y-50794541D02*
X192137484Y-50794541D01*
%TO.N,/GMAC_TXD1*%
X187992541Y-49594541D02*
X187166000Y-48768000D01*
X187166000Y-48768000D02*
X185769000Y-48768000D01*
X189057484Y-49594541D02*
X187992541Y-49594541D01*
%TO.N,/I2C3_SCL_M0*%
X215487000Y-55245000D02*
X229584000Y-55245000D01*
X233902000Y-55264000D02*
X266349000Y-55264000D01*
X213233985Y-57498015D02*
X215487000Y-55245000D01*
X233883000Y-55245000D02*
X233902000Y-55264000D01*
X213233985Y-65002722D02*
X213233985Y-57498015D01*
%TO.N,/GMAC_TXEN*%
X187293000Y-49530000D02*
X186912000Y-49530000D01*
X187757541Y-49994541D02*
X187293000Y-49530000D01*
X189057484Y-49994541D02*
X187757541Y-49994541D01*
%TO.N,/GMAC_MDC*%
X185007000Y-57531000D02*
X185470541Y-57994541D01*
X185007000Y-54673500D02*
X185007000Y-57531000D01*
X185470541Y-57994541D02*
X189057484Y-57994541D01*
X186912000Y-54229000D02*
X185451500Y-54229000D01*
X185451500Y-54229000D02*
X185007000Y-54673500D01*
%TO.N,/PCIE20_0_REFCLKP*%
X173312000Y-62219000D02*
X171164000Y-60071000D01*
X167794000Y-50732000D02*
X148161500Y-50732000D01*
X195178000Y-62219000D02*
X173312000Y-62219000D01*
X195478541Y-54794541D02*
X196818000Y-56134000D01*
X192137484Y-54794541D02*
X195478541Y-54794541D01*
X171164000Y-60071000D02*
X171164000Y-54102000D01*
X171164000Y-54102000D02*
X167794000Y-50732000D01*
X196818000Y-60579000D02*
X195178000Y-62219000D01*
X196818000Y-56134000D02*
X196818000Y-60579000D01*
%TO.N,/PCIE20_0_TXP*%
X194024000Y-55994541D02*
X194646541Y-55994541D01*
X172434000Y-59436000D02*
X172434000Y-53467000D01*
X168243000Y-49276000D02*
X154163000Y-49276000D01*
X194773541Y-55994541D02*
X195929000Y-57150000D01*
X194646862Y-61563000D02*
X174561000Y-61563000D01*
X153909000Y-49530000D02*
X152876000Y-49530000D01*
X194024000Y-55994541D02*
X194773541Y-55994541D01*
X154163000Y-49276000D02*
X153909000Y-49530000D01*
X195929000Y-57150000D02*
X195929000Y-60280862D01*
X174561000Y-61563000D02*
X172434000Y-59436000D01*
X172434000Y-53467000D02*
X168243000Y-49276000D01*
X192137484Y-55994541D02*
X194024000Y-55994541D01*
X195929000Y-60280862D02*
X194646862Y-61563000D01*
%TO.N,/GMAC_RXD0*%
X195548000Y-51054000D02*
X195007463Y-51594537D01*
X195007463Y-51594537D02*
X192137488Y-51594537D01*
X192137488Y-51594537D02*
X192137484Y-51594541D01*
%TO.N,/BOOT_KEY*%
X52165000Y-59309000D02*
X52165000Y-50546000D01*
X225520000Y-67183000D02*
X226409000Y-67183000D01*
X52165000Y-50546000D02*
X50360500Y-48741500D01*
X226833985Y-67607985D02*
X226833985Y-68082722D01*
X48863000Y-48741500D02*
X47974000Y-48741500D01*
X50360500Y-48741500D02*
X48863000Y-48741500D01*
X226409000Y-67183000D02*
X226833985Y-67607985D01*
X49244000Y-48741500D02*
X48863000Y-48741500D01*
%TO.N,/GMAC_MDIO*%
X187166000Y-50292000D02*
X185769000Y-50292000D01*
X187268541Y-50394541D02*
X187166000Y-50292000D01*
X189057484Y-50394541D02*
X187268541Y-50394541D01*
%TO.N,/GMAC_RXD3*%
X187674000Y-53340000D02*
X188619459Y-52394541D01*
X188619459Y-52394541D02*
X189057484Y-52394541D01*
X185769000Y-53340000D02*
X187674000Y-53340000D01*
%TO.N,/PCIE20_0_RXN*%
X173704000Y-59055000D02*
X173704000Y-52451000D01*
X194159862Y-60907000D02*
X175556000Y-60907000D01*
X169513000Y-48260000D02*
X156940000Y-48260000D01*
X195104000Y-58230000D02*
X195104000Y-59962862D01*
X195104000Y-59962862D02*
X194159862Y-60907000D01*
X148161500Y-47232000D02*
X155262000Y-47232000D01*
X175556000Y-60907000D02*
X173704000Y-59055000D01*
X192137484Y-57194541D02*
X194068541Y-57194541D01*
X194068541Y-57194541D02*
X195104000Y-58230000D01*
X155262000Y-47232000D02*
X155289000Y-47205000D01*
X173704000Y-52451000D02*
X169513000Y-48260000D01*
%TO.N,/PCIE20_0_TXN*%
X153909000Y-48514000D02*
X152876000Y-48514000D01*
X173069000Y-59309000D02*
X173069000Y-53086000D01*
X168771000Y-48788000D02*
X154183000Y-48788000D01*
X194511000Y-61235000D02*
X174995000Y-61235000D01*
X174995000Y-61235000D02*
X173069000Y-59309000D01*
X194665541Y-56394541D02*
X195601000Y-57330000D01*
X195601000Y-60145000D02*
X194511000Y-61235000D01*
X195601000Y-57330000D02*
X195601000Y-60145000D01*
X154183000Y-48788000D02*
X153909000Y-48514000D01*
X192137484Y-56394541D02*
X194665541Y-56394541D01*
X173069000Y-53086000D02*
X168771000Y-48788000D01*
%TO.N,/GMAC_TXD0*%
X196437000Y-47625000D02*
X195548000Y-47625000D01*
X194378459Y-48794541D02*
X192137484Y-48794541D01*
X195548000Y-47625000D02*
X194378459Y-48794541D01*
%TO.N,/GMAC_RXCLK*%
X195548000Y-49784000D02*
X196437000Y-49784000D01*
X192137484Y-51194541D02*
X194137459Y-51194541D01*
X194137459Y-51194541D02*
X195548000Y-49784000D01*
%TO.N,/GMAC_TXD3*%
X195452750Y-46482000D02*
X193940209Y-47994541D01*
X193940209Y-47994541D02*
X192137484Y-47994541D01*
X195548000Y-46482000D02*
X195452750Y-46482000D01*
%TO.N,/GMAC_RXDV*%
X185769000Y-51816000D02*
X187674000Y-51816000D01*
X187674000Y-51816000D02*
X187895459Y-51594541D01*
X187895459Y-51594541D02*
X189057484Y-51594541D01*
%TO.N,/I2C5_SDA_M3*%
X57772000Y-67964000D02*
X59173000Y-69365000D01*
X216196707Y-69670000D02*
X217233985Y-68632722D01*
X161967000Y-69670000D02*
X216196707Y-69670000D01*
X161662000Y-69365000D02*
X161967000Y-69670000D01*
X217233985Y-68632722D02*
X217233985Y-68082722D01*
X48039000Y-67964000D02*
X57772000Y-67964000D01*
X59173000Y-69365000D02*
X161662000Y-69365000D01*
%TO.N,/USER_KEY*%
X51149000Y-54356000D02*
X50233500Y-53440500D01*
X227233985Y-67245985D02*
X227171000Y-67183000D01*
X50233500Y-53440500D02*
X47974000Y-53440500D01*
X51149000Y-57404000D02*
X51149000Y-54356000D01*
X227233985Y-68082722D02*
X227233985Y-67245985D01*
%TO.N,/I2C5_SCL_M3*%
X59556000Y-68605000D02*
X161664000Y-68605000D01*
X216433985Y-68776015D02*
X216433985Y-68082722D01*
X161664000Y-68605000D02*
X162401000Y-69342000D01*
X162401000Y-69342000D02*
X215868000Y-69342000D01*
X215868000Y-69342000D02*
X216433985Y-68776015D01*
X48039000Y-67164000D02*
X58115000Y-67164000D01*
X58115000Y-67164000D02*
X59556000Y-68605000D01*
%TO.N,/I2C3_SDA_M0*%
X212833985Y-57263015D02*
X212833985Y-65002722D01*
X228187000Y-54483000D02*
X215614000Y-54483000D01*
X232397000Y-54464000D02*
X232378000Y-54483000D01*
X215614000Y-54483000D02*
X212833985Y-57263015D01*
X266349000Y-54464000D02*
X232397000Y-54464000D01*
%TO.N,/TMP_SN1_LED*%
X57658000Y-65564000D02*
X57658000Y-42958000D01*
X163798000Y-65643665D02*
X161623665Y-67818000D01*
X163798000Y-57658000D02*
X163798000Y-65643665D01*
X161623665Y-67818000D02*
X59912000Y-67818000D01*
X187928000Y-56394541D02*
X189057484Y-56394541D01*
X55594000Y-40894000D02*
X42539500Y-40894000D01*
X185769000Y-56769000D02*
X187553541Y-56769000D01*
X59912000Y-67818000D02*
X57658000Y-65564000D01*
X187553541Y-56769000D02*
X187928000Y-56394541D01*
X57658000Y-42958000D02*
X55594000Y-40894000D01*
X164687000Y-56769000D02*
X163798000Y-57658000D01*
X166465000Y-56769000D02*
X164687000Y-56769000D01*
%TO.N,/GMAC_MCLK*%
X187052541Y-51194541D02*
X189057484Y-51194541D01*
X186912000Y-51054000D02*
X187052541Y-51194541D01*
%TO.N,/DEBUG_LED*%
X164052000Y-56007000D02*
X162782000Y-57277000D01*
X58642000Y-65405000D02*
X58642000Y-40513000D01*
X58642000Y-40513000D02*
X55721000Y-37592000D01*
X162782000Y-65405000D02*
X161131000Y-67056000D01*
X187896541Y-55594541D02*
X189057484Y-55594541D01*
X167608000Y-56007000D02*
X164052000Y-56007000D01*
X186912000Y-56007000D02*
X187484082Y-56007000D01*
X60293000Y-67056000D02*
X58642000Y-65405000D01*
X161131000Y-67056000D02*
X60293000Y-67056000D01*
X55721000Y-37592000D02*
X42539500Y-37592000D01*
X187484082Y-56007000D02*
X187896541Y-55594541D01*
X162782000Y-57277000D02*
X162782000Y-65405000D01*
%TO.N,/USER_LED*%
X166465000Y-55118000D02*
X163544000Y-55118000D01*
X163544000Y-55118000D02*
X161766000Y-56896000D01*
X188436000Y-55118000D02*
X188512541Y-55194541D01*
X55848000Y-34290000D02*
X42539500Y-34290000D01*
X161766000Y-65151000D02*
X160623000Y-66294000D01*
X59531000Y-65182750D02*
X59531000Y-37973000D01*
X59531000Y-37973000D02*
X55848000Y-34290000D01*
X161766000Y-56896000D02*
X161766000Y-65151000D01*
X185769000Y-55118000D02*
X188436000Y-55118000D01*
X160623000Y-66294000D02*
X60642250Y-66294000D01*
X60642250Y-66294000D02*
X59531000Y-65182750D01*
X188512541Y-55194541D02*
X189057484Y-55194541D01*
%TO.N,/HDMI0_TX1N*%
X224724198Y-32668000D02*
X223604528Y-31548330D01*
X234369000Y-41107000D02*
X232095000Y-38833000D01*
X231074198Y-32668000D02*
X224724198Y-32668000D01*
X223604528Y-31027791D02*
X223579527Y-31002790D01*
X273983999Y-40832000D02*
X273708999Y-41107000D01*
X232095000Y-38833000D02*
X232095000Y-33688802D01*
X223604528Y-31548330D02*
X223604528Y-31027791D01*
X277209000Y-40832000D02*
X273983999Y-40832000D01*
X273708999Y-41107000D02*
X234369000Y-41107000D01*
X232095000Y-33688802D02*
X231074198Y-32668000D01*
%TO.N,Net-(J5-SATA_A+{slash}PETP0)*%
X150843500Y-49232000D02*
X151141500Y-49530000D01*
X148161500Y-49232000D02*
X150843500Y-49232000D01*
X151141500Y-49530000D02*
X152087500Y-49530000D01*
%TO.N,Net-(J5-SATA_A-{slash}PETN0)*%
X148161500Y-48732000D02*
X150923500Y-48732000D01*
X150923500Y-48732000D02*
X151141500Y-48514000D01*
X151141500Y-48514000D02*
X152087500Y-48514000D01*
%TO.N,/M.2_ACT*%
X131667000Y-37465000D02*
X133572000Y-39370000D01*
X130016000Y-30861000D02*
X131667000Y-32512000D01*
X43066500Y-30861000D02*
X130016000Y-30861000D01*
X131667000Y-32512000D02*
X131667000Y-37465000D01*
X133572000Y-39370000D02*
X133684000Y-39482000D01*
X140611500Y-39482000D02*
X141631101Y-39482000D01*
X42539500Y-30988000D02*
X42939500Y-30988000D01*
X42939500Y-30988000D02*
X43066500Y-30861000D01*
%TO.N,Net-(U4-VIN)*%
X165983500Y-37819500D02*
X166084000Y-37719000D01*
X166084000Y-38073500D02*
X165983500Y-37973000D01*
X165983500Y-37973000D02*
X165983500Y-37819500D01*
X166084000Y-37719000D02*
X166084000Y-35636200D01*
X166084000Y-39925000D02*
X166084000Y-38073500D01*
D39*
%TO.N,Net-(U5-VIN)*%
X257524000Y-65629800D02*
X257524000Y-61722700D01*
D36*
%TO.N,Net-(U4-FB)*%
X168142500Y-43206500D02*
X167561000Y-42625000D01*
X168624000Y-43206500D02*
X168142500Y-43206500D01*
X171063500Y-43206500D02*
X172688000Y-43206500D01*
X171037000Y-43180000D02*
X171063500Y-43206500D01*
X167561000Y-42625000D02*
X167034000Y-42625000D01*
X168624000Y-43206500D02*
X171010500Y-43206500D01*
X171010500Y-43206500D02*
X171037000Y-43180000D01*
%TO.N,Net-(U4-LX)*%
X165134000Y-38007500D02*
X165168500Y-37973000D01*
X165134000Y-39925000D02*
X165134000Y-38007500D01*
%TO.N,Net-(U5-FB)*%
X259963500Y-68911300D02*
X260826000Y-68911300D01*
X259382000Y-68329800D02*
X259963500Y-68911300D01*
X258474000Y-68329800D02*
X259382000Y-68329800D01*
X262604000Y-68911300D02*
X260826000Y-68911300D01*
X264382000Y-68911300D02*
X262604000Y-68911300D01*
%TO.N,Net-(U5-LX)*%
X256608500Y-65595300D02*
X256574000Y-65629800D01*
X256608500Y-63881000D02*
X256608500Y-65595300D01*
%TO.N,/PCIE20x1_2_CLKREQn_M0*%
X144113000Y-52070000D02*
X144674000Y-52631000D01*
X144674000Y-52631000D02*
X144674000Y-59917500D01*
X167100000Y-52324000D02*
X146399000Y-52324000D01*
X197707000Y-60889569D02*
X195721569Y-62875000D01*
X145510000Y-50419000D02*
X145073000Y-49982000D01*
X139541000Y-52070000D02*
X144113000Y-52070000D01*
X195981541Y-43994541D02*
X197707000Y-45720000D01*
X170021000Y-55245000D02*
X167100000Y-52324000D01*
X145073000Y-49982000D02*
X140611500Y-49982000D01*
X140611500Y-49982000D02*
X139470000Y-49982000D01*
X146399000Y-52324000D02*
X145510000Y-51435000D01*
X192137484Y-43994541D02*
X195981541Y-43994541D01*
X170021000Y-60706000D02*
X170021000Y-55245000D01*
X139470000Y-49982000D02*
X139287000Y-50165000D01*
X139287000Y-51816000D02*
X139541000Y-52070000D01*
X197707000Y-45720000D02*
X197707000Y-60889569D01*
X145510000Y-51435000D02*
X145510000Y-50419000D01*
X195721569Y-62875000D02*
X172190000Y-62875000D01*
X139287000Y-50165000D02*
X139287000Y-51816000D01*
X172190000Y-62875000D02*
X170021000Y-60706000D01*
%TO.N,/PCIE20x1_2_WAKEn_M0*%
X189057484Y-48394541D02*
X188443541Y-48394541D01*
X187166000Y-47117000D02*
X157956000Y-47117000D01*
X188443541Y-48394541D02*
X187166000Y-47117000D01*
X142124500Y-50800000D02*
X144367000Y-50800000D01*
X140611500Y-50482000D02*
X141806500Y-50482000D01*
X145002000Y-51435000D02*
X145002000Y-58166000D01*
X141806500Y-50482000D02*
X142124500Y-50800000D01*
X145764000Y-58928000D02*
X145764000Y-59917500D01*
X144367000Y-50800000D02*
X145002000Y-51435000D01*
X157956000Y-47117000D02*
X157067000Y-46228000D01*
X145002000Y-58166000D02*
X145764000Y-58928000D01*
%TO.N,/PCIE20x1_2_PERSTn_M0*%
X195873541Y-44394541D02*
X197379000Y-45900000D01*
X146018000Y-51181000D02*
X146018000Y-50038000D01*
X146653000Y-51816000D02*
X146018000Y-51181000D01*
X144346000Y-58187000D02*
X143605000Y-58928000D01*
X172624000Y-62547000D02*
X170529000Y-60452000D01*
X145462000Y-49482000D02*
X140611500Y-49482000D01*
X138959000Y-51996000D02*
X139361000Y-52398000D01*
X170529000Y-60452000D02*
X170529000Y-54991000D01*
X143977138Y-52398000D02*
X144346000Y-52766862D01*
X144346000Y-52766862D02*
X144346000Y-58187000D01*
X146018000Y-50038000D02*
X145462000Y-49482000D01*
X138959000Y-49937000D02*
X138959000Y-51996000D01*
X139361000Y-52398000D02*
X143977138Y-52398000D01*
X192137484Y-44394541D02*
X195873541Y-44394541D01*
X197379000Y-45900000D02*
X197379000Y-60753707D01*
X170529000Y-54991000D02*
X167354000Y-51816000D01*
X139414000Y-49482000D02*
X138959000Y-49937000D01*
X195585707Y-62547000D02*
X172624000Y-62547000D01*
X143605000Y-58928000D02*
X143605000Y-59917500D01*
X167354000Y-51816000D02*
X146653000Y-51816000D01*
X140611500Y-49482000D02*
X139414000Y-49482000D01*
X197379000Y-60753707D02*
X195585707Y-62547000D01*
%TO.N,/VCC_3V3_S3*%
X226028000Y-56134000D02*
X225233985Y-56928015D01*
X228187000Y-56134000D02*
X226028000Y-56134000D01*
X267430000Y-56134000D02*
X232378000Y-56134000D01*
X267749000Y-55815000D02*
X267430000Y-56134000D01*
X225233985Y-56928015D02*
X225233985Y-65002722D01*
X267749000Y-55264000D02*
X267749000Y-55815000D01*
%TO.N,Net-(D1-K)*%
X50133000Y-32588275D02*
X51898500Y-32588275D01*
%TD*%
%TA.AperFunction,Conductor*%
%TO.N,+12V*%
G36*
X256578039Y-67583685D02*
G01*
X256623794Y-67636489D01*
X256635000Y-67688000D01*
X256635000Y-70234000D01*
X256615315Y-70301039D01*
X256562511Y-70346794D01*
X256511000Y-70358000D01*
X249828362Y-70358000D01*
X249761323Y-70338315D01*
X249740681Y-70321681D01*
X249559319Y-70140319D01*
X249525834Y-70078996D01*
X249523000Y-70052638D01*
X249523000Y-67869362D01*
X249542685Y-67802323D01*
X249559319Y-67781681D01*
X249740681Y-67600319D01*
X249802004Y-67566834D01*
X249828362Y-67564000D01*
X256511000Y-67564000D01*
X256578039Y-67583685D01*
G37*
%TD.AperFunction*%
%TD*%
%TA.AperFunction,Conductor*%
%TO.N,GND*%
G36*
X279285639Y-57508785D02*
G01*
X279331394Y-57561589D01*
X279342600Y-57613100D01*
X279342600Y-58050900D01*
X279322915Y-58117939D01*
X279270111Y-58163694D01*
X279218600Y-58174900D01*
X271999000Y-58174900D01*
X271931961Y-58155215D01*
X271886206Y-58102411D01*
X271875000Y-58050900D01*
X271875000Y-57613100D01*
X271894685Y-57546061D01*
X271947489Y-57500306D01*
X271999000Y-57489100D01*
X279218600Y-57489100D01*
X279285639Y-57508785D01*
G37*
%TD.AperFunction*%
%TD*%
%TA.AperFunction,Conductor*%
%TO.N,Net-(U5-VIN)*%
G36*
X259190677Y-62503685D02*
G01*
X259211319Y-62520319D01*
X259265681Y-62574681D01*
X259299166Y-62636004D01*
X259302000Y-62662362D01*
X259302000Y-63829638D01*
X259282315Y-63896677D01*
X259265681Y-63917319D01*
X258703319Y-64479681D01*
X258641996Y-64513166D01*
X258615638Y-64516000D01*
X257904999Y-64516000D01*
X257778000Y-64642999D01*
X257778000Y-64900000D01*
X257758315Y-64967039D01*
X257705511Y-65012794D01*
X257654000Y-65024000D01*
X257394000Y-65024000D01*
X257326961Y-65004315D01*
X257281206Y-64951511D01*
X257270000Y-64900000D01*
X257270000Y-62662362D01*
X257278644Y-62632921D01*
X257285168Y-62602935D01*
X257288922Y-62597919D01*
X257289685Y-62595323D01*
X257306319Y-62574681D01*
X257360681Y-62520319D01*
X257422004Y-62486834D01*
X257448362Y-62484000D01*
X259123638Y-62484000D01*
X259190677Y-62503685D01*
G37*
%TD.AperFunction*%
%TD*%
%TA.AperFunction,Conductor*%
%TO.N,GND*%
G36*
X279285639Y-62503685D02*
G01*
X279331394Y-62556489D01*
X279342600Y-62608000D01*
X279342600Y-63045800D01*
X279322915Y-63112839D01*
X279270111Y-63158594D01*
X279218600Y-63169800D01*
X271999000Y-63169800D01*
X271931961Y-63150115D01*
X271886206Y-63097311D01*
X271875000Y-63045800D01*
X271875000Y-62608000D01*
X271894685Y-62540961D01*
X271947489Y-62495206D01*
X271999000Y-62484000D01*
X279218600Y-62484000D01*
X279285639Y-62503685D01*
G37*
%TD.AperFunction*%
%TD*%
%TA.AperFunction,Conductor*%
%TO.N,Net-(U4-VIN)*%
G36*
X167805039Y-36468685D02*
G01*
X167850794Y-36521489D01*
X167862000Y-36573000D01*
X167862000Y-38556638D01*
X167842315Y-38623677D01*
X167825681Y-38644319D01*
X167644319Y-38825681D01*
X167582996Y-38859166D01*
X167556638Y-38862000D01*
X166464999Y-38862000D01*
X166338000Y-38988999D01*
X166338000Y-39119000D01*
X166318315Y-39186039D01*
X166265511Y-39231794D01*
X166214000Y-39243000D01*
X165954000Y-39243000D01*
X165886961Y-39223315D01*
X165841206Y-39170511D01*
X165830000Y-39119000D01*
X165830000Y-38989000D01*
X165739319Y-38898319D01*
X165705834Y-38836996D01*
X165703000Y-38810638D01*
X165703000Y-38260409D01*
X165715599Y-38205950D01*
X165730461Y-38175550D01*
X165740500Y-38106646D01*
X165740500Y-37839354D01*
X165730461Y-37770450D01*
X165729619Y-37768728D01*
X165715599Y-37740047D01*
X165703000Y-37685589D01*
X165703000Y-36573000D01*
X165722685Y-36505961D01*
X165775489Y-36460206D01*
X165827000Y-36449000D01*
X167738000Y-36449000D01*
X167805039Y-36468685D01*
G37*
%TD.AperFunction*%
%TD*%
%TA.AperFunction,Conductor*%
%TO.N,GND*%
G36*
X279285639Y-59508785D02*
G01*
X279331394Y-59561589D01*
X279342600Y-59613100D01*
X279342600Y-60050900D01*
X279322915Y-60117939D01*
X279270111Y-60163694D01*
X279218600Y-60174900D01*
X271999000Y-60174900D01*
X271931961Y-60155215D01*
X271886206Y-60102411D01*
X271875000Y-60050900D01*
X271875000Y-59613100D01*
X271894685Y-59546061D01*
X271947489Y-59500306D01*
X271999000Y-59489100D01*
X279218600Y-59489100D01*
X279285639Y-59508785D01*
G37*
%TD.AperFunction*%
%TD*%
%TA.AperFunction,Conductor*%
%TO.N,GND*%
G36*
X279285639Y-50508785D02*
G01*
X279331394Y-50561589D01*
X279342600Y-50613100D01*
X279342600Y-51050900D01*
X279322915Y-51117939D01*
X279270111Y-51163694D01*
X279218600Y-51174900D01*
X271999000Y-51174900D01*
X271931961Y-51155215D01*
X271886206Y-51102411D01*
X271875000Y-51050900D01*
X271875000Y-50613100D01*
X271894685Y-50546061D01*
X271947489Y-50500306D01*
X271999000Y-50489100D01*
X279218600Y-50489100D01*
X279285639Y-50508785D01*
G37*
%TD.AperFunction*%
%TD*%
%TA.AperFunction,Conductor*%
%TO.N,GND*%
G36*
X279285639Y-47508785D02*
G01*
X279331394Y-47561589D01*
X279342600Y-47613100D01*
X279342600Y-48050900D01*
X279322915Y-48117939D01*
X279270111Y-48163694D01*
X279218600Y-48174900D01*
X271999000Y-48174900D01*
X271931961Y-48155215D01*
X271886206Y-48102411D01*
X271875000Y-48050900D01*
X271875000Y-47613100D01*
X271894685Y-47546061D01*
X271947489Y-47500306D01*
X271999000Y-47489100D01*
X279218600Y-47489100D01*
X279285639Y-47508785D01*
G37*
%TD.AperFunction*%
%TD*%
%TA.AperFunction,Conductor*%
%TO.N,+12V*%
G36*
X279311039Y-63519685D02*
G01*
X279356794Y-63572489D01*
X279368000Y-63624000D01*
X279368000Y-66043000D01*
X279348315Y-66110039D01*
X279295511Y-66155794D01*
X279244000Y-66167000D01*
X271999000Y-66167000D01*
X271931961Y-66147315D01*
X271886206Y-66094511D01*
X271875000Y-66043000D01*
X271875000Y-63624000D01*
X271894685Y-63556961D01*
X271947489Y-63511206D01*
X271999000Y-63500000D01*
X279244000Y-63500000D01*
X279311039Y-63519685D01*
G37*
%TD.AperFunction*%
%TD*%
%TA.AperFunction,Conductor*%
%TO.N,+12V*%
G36*
X165337677Y-41929685D02*
G01*
X165358319Y-41946319D01*
X165412681Y-42000681D01*
X165446166Y-42062004D01*
X165449000Y-42088362D01*
X165449000Y-44652638D01*
X165429315Y-44719677D01*
X165412681Y-44740319D01*
X165231319Y-44921681D01*
X165169996Y-44955166D01*
X165143638Y-44958000D01*
X161563362Y-44958000D01*
X161496323Y-44938315D01*
X161475681Y-44921681D01*
X161294319Y-44740319D01*
X161260834Y-44678996D01*
X161258000Y-44652638D01*
X161258000Y-42034000D01*
X161277685Y-41966961D01*
X161330489Y-41921206D01*
X161382000Y-41910000D01*
X165270638Y-41910000D01*
X165337677Y-41929685D01*
G37*
%TD.AperFunction*%
%TD*%
M02*
