%TF.GenerationSoftware,KiCad,Pcbnew,9.0.2*%
%TF.CreationDate,2025-06-03T00:46:39+06:00*%
%TF.ProjectId,OPI CM5 Blade board,4f504920-434d-4352-9042-6c6164652062,rev?*%
%TF.SameCoordinates,Original*%
%TF.FileFunction,Soldermask,Top*%
%TF.FilePolarity,Negative*%
%FSLAX46Y46*%
G04 Gerber Fmt 4.6, Leading zero omitted, Abs format (unit mm)*
G04 Created by KiCad (PCBNEW 9.0.2) date 2025-06-03 00:46:39*
%MOMM*%
%LPD*%
G01*
G04 APERTURE LIST*
G04 Aperture macros list*
%AMRoundRect*
0 Rectangle with rounded corners*
0 $1 Rounding radius*
0 $2 $3 $4 $5 $6 $7 $8 $9 X,Y pos of 4 corners*
0 Add a 4 corners polygon primitive as box body*
4,1,4,$2,$3,$4,$5,$6,$7,$8,$9,$2,$3,0*
0 Add four circle primitives for the rounded corners*
1,1,$1+$1,$2,$3*
1,1,$1+$1,$4,$5*
1,1,$1+$1,$6,$7*
1,1,$1+$1,$8,$9*
0 Add four rect primitives between the rounded corners*
20,1,$1+$1,$2,$3,$4,$5,0*
20,1,$1+$1,$4,$5,$6,$7,0*
20,1,$1+$1,$6,$7,$8,$9,0*
20,1,$1+$1,$8,$9,$2,$3,0*%
G04 Aperture macros list end*
%ADD10RoundRect,0.100000X0.217500X0.100000X-0.217500X0.100000X-0.217500X-0.100000X0.217500X-0.100000X0*%
%ADD11RoundRect,0.100000X-0.100000X0.217500X-0.100000X-0.217500X0.100000X-0.217500X0.100000X0.217500X0*%
%ADD12C,4.700000*%
%ADD13RoundRect,0.100000X0.100000X-0.217500X0.100000X0.217500X-0.100000X0.217500X-0.100000X-0.217500X0*%
%ADD14RoundRect,0.050000X0.150000X0.300000X-0.150000X0.300000X-0.150000X-0.300000X0.150000X-0.300000X0*%
%ADD15R,0.990600X0.711200*%
%ADD16RoundRect,0.100000X-0.217500X-0.100000X0.217500X-0.100000X0.217500X0.100000X-0.217500X0.100000X0*%
%ADD17RoundRect,0.050000X-0.300000X0.150000X-0.300000X-0.150000X0.300000X-0.150000X0.300000X0.150000X0*%
%ADD18R,3.606800X1.803400*%
%ADD19RoundRect,0.050000X0.100000X0.350000X-0.100000X0.350000X-0.100000X-0.350000X0.100000X-0.350000X0*%
%ADD20C,1.150000*%
%ADD21C,1.650000*%
%ADD22R,1.550000X0.300000*%
%ADD23C,7.400000*%
%ADD24R,2.750000X1.200000*%
%ADD25RoundRect,0.250000X-0.475000X0.337500X-0.475000X-0.337500X0.475000X-0.337500X0.475000X0.337500X0*%
%ADD26RoundRect,0.250000X0.337500X0.475000X-0.337500X0.475000X-0.337500X-0.475000X0.337500X-0.475000X0*%
%ADD27RoundRect,0.050000X0.350000X-0.100000X0.350000X0.100000X-0.350000X0.100000X-0.350000X-0.100000X0*%
%ADD28R,1.750000X0.600000*%
%ADD29RoundRect,0.237500X0.287500X0.237500X-0.287500X0.237500X-0.287500X-0.237500X0.287500X-0.237500X0*%
%ADD30RoundRect,0.250000X0.475000X-0.337500X0.475000X0.337500X-0.475000X0.337500X-0.475000X-0.337500X0*%
%ADD31RoundRect,0.162500X0.162500X-0.617500X0.162500X0.617500X-0.162500X0.617500X-0.162500X-0.617500X0*%
%ADD32R,4.300000X0.700000*%
%ADD33R,3.200000X0.700000*%
%ADD34RoundRect,0.102000X-0.250000X-0.150000X0.250000X-0.150000X0.250000X0.150000X-0.250000X0.150000X0*%
%ADD35RoundRect,0.102000X0.250000X0.150000X-0.250000X0.150000X-0.250000X-0.150000X0.250000X-0.150000X0*%
G04 APERTURE END LIST*
D10*
%TO.C,R13*%
X42539500Y-30988000D03*
X41724500Y-30988000D03*
%TD*%
D11*
%TO.C,R2*%
X47974000Y-58139500D03*
X47974000Y-58954500D03*
%TD*%
D12*
%TO.C,H2*%
X191673230Y-66294508D03*
%TD*%
D11*
%TO.C,CC2*%
X160496000Y-33882500D03*
X160496000Y-34697500D03*
%TD*%
D13*
%TO.C,R4*%
X170656000Y-43206500D03*
X170656000Y-42391500D03*
%TD*%
D14*
%TO.C,ED5*%
X39829000Y-62331875D03*
X39129000Y-62331875D03*
%TD*%
D13*
%TO.C,CC4*%
X160496000Y-41682500D03*
X160496000Y-40867500D03*
%TD*%
D11*
%TO.C,R14*%
X47974000Y-44042500D03*
X47974000Y-44857500D03*
%TD*%
D10*
%TO.C,R3*%
X52713500Y-35890275D03*
X51898500Y-35890275D03*
%TD*%
D15*
%TO.C,SW4*%
X38103999Y-57472001D03*
X42604001Y-57472001D03*
X38103999Y-59621999D03*
X42604001Y-59621999D03*
%TD*%
D16*
%TO.C,C11*%
X152087500Y-48514000D03*
X152902500Y-48514000D03*
%TD*%
D13*
%TO.C,CC5*%
X251174000Y-67387300D03*
X251174000Y-66572300D03*
%TD*%
D17*
%TO.C,ED6*%
X42654000Y-65156875D03*
X42654000Y-65856875D03*
%TD*%
D11*
%TO.C,CC6*%
X262604000Y-65048300D03*
X262604000Y-65863300D03*
%TD*%
D13*
%TO.C,CC1*%
X46704000Y-58954500D03*
X46704000Y-58139500D03*
%TD*%
D18*
%TO.C,L1*%
X166084000Y-35636200D03*
X166084000Y-32943800D03*
%TD*%
D11*
%TO.C,C17*%
X264382000Y-68096300D03*
X264382000Y-68911300D03*
%TD*%
D10*
%TO.C,R7*%
X42539500Y-34290000D03*
X41724500Y-34290000D03*
%TD*%
D19*
%TO.C,J2*%
X208379527Y-34082790D03*
X208379527Y-31002790D03*
X208779527Y-34082790D03*
X208779527Y-31002790D03*
X209179527Y-34082790D03*
X209179527Y-31002790D03*
X209579527Y-34082790D03*
X209579527Y-31002790D03*
X209979527Y-34082790D03*
X209979527Y-31002790D03*
X210379527Y-34082790D03*
X210379527Y-31002790D03*
X210779527Y-34082790D03*
X210779527Y-31002790D03*
X211179527Y-34082790D03*
X211179527Y-31002790D03*
X211579527Y-34082790D03*
X211579527Y-31002790D03*
X211979527Y-34082790D03*
X211979527Y-31002790D03*
X212379527Y-34082790D03*
X212379527Y-31002790D03*
X212779527Y-34082790D03*
X212779527Y-31002790D03*
X213179527Y-34082790D03*
X213179527Y-31002790D03*
X213579527Y-34082790D03*
X213579527Y-31002790D03*
X213979527Y-34082790D03*
X213979527Y-31002790D03*
X214379527Y-34082790D03*
X214379527Y-31002790D03*
X214779527Y-34082790D03*
X214779527Y-31002790D03*
X215179527Y-34082790D03*
X215179527Y-31002790D03*
X215579527Y-34082790D03*
X215579527Y-31002790D03*
X215979527Y-34082790D03*
X215979527Y-31002790D03*
X216379527Y-34082790D03*
X216379527Y-31002790D03*
X216779527Y-34082790D03*
X216779527Y-31002790D03*
X217179527Y-34082790D03*
X217179527Y-31002790D03*
X217579527Y-34082790D03*
X217579527Y-31002790D03*
X217979527Y-34082790D03*
X217979527Y-31002790D03*
X218379527Y-34082790D03*
X218379527Y-31002790D03*
X218779527Y-34082790D03*
X218779527Y-31002790D03*
X219179527Y-34082790D03*
X219179527Y-31002790D03*
X219579527Y-34082790D03*
X219579527Y-31002790D03*
X219979527Y-34082790D03*
X219979527Y-31002790D03*
X220379527Y-34082790D03*
X220379527Y-31002790D03*
X220779527Y-34082790D03*
X220779527Y-31002790D03*
X221179527Y-34082790D03*
X221179527Y-31002790D03*
X221579527Y-34082790D03*
X221579527Y-31002790D03*
X221979527Y-34082790D03*
X221979527Y-31002790D03*
X222379527Y-34082790D03*
X222379527Y-31002790D03*
X222779527Y-34082790D03*
X222779527Y-31002790D03*
X223179527Y-34082790D03*
X223179527Y-31002790D03*
X223579527Y-34082790D03*
X223579527Y-31002790D03*
X223979527Y-34082790D03*
X223979527Y-31002790D03*
X224379527Y-34082790D03*
X224379527Y-31002790D03*
X224779527Y-34082790D03*
X224779527Y-31002790D03*
X225179527Y-34082790D03*
X225179527Y-31002790D03*
X225579527Y-34082790D03*
X225579527Y-31002790D03*
X225979527Y-34082790D03*
X225979527Y-31002790D03*
X226379527Y-34082790D03*
X226379527Y-31002790D03*
X226779527Y-34082790D03*
X226779527Y-31002790D03*
X227179527Y-34082790D03*
X227179527Y-31002790D03*
X227579527Y-34082790D03*
X227579527Y-31002790D03*
X227979527Y-34082790D03*
X227979527Y-31002790D03*
%TD*%
D20*
%TO.C,J5*%
X142886500Y-36482000D03*
D21*
X142886500Y-56482000D03*
D22*
X148161500Y-37232000D03*
X140611500Y-37482000D03*
X148161500Y-37732000D03*
X140611500Y-37982000D03*
X148161500Y-38232000D03*
X140611500Y-38482000D03*
X148161500Y-38732000D03*
X140611500Y-38982000D03*
X148161500Y-39232000D03*
X140611500Y-39482000D03*
X148161500Y-39732000D03*
X140611500Y-39982000D03*
X148161500Y-40232000D03*
X140611500Y-40482000D03*
X148161500Y-40732000D03*
X140611500Y-40982000D03*
X148161500Y-41232000D03*
X140611500Y-41482000D03*
X148161500Y-41732000D03*
X140611500Y-41982000D03*
X148161500Y-42232000D03*
X140611500Y-42482000D03*
X148161500Y-42732000D03*
X140611500Y-42982000D03*
X148161500Y-43232000D03*
X140611500Y-43482000D03*
X148161500Y-43732000D03*
X140611500Y-43982000D03*
X148161500Y-44232000D03*
X140611500Y-44482000D03*
X148161500Y-44732000D03*
X140611500Y-44982000D03*
X148161500Y-45232000D03*
X140611500Y-45482000D03*
X148161500Y-45732000D03*
X140611500Y-45982000D03*
X148161500Y-46232000D03*
X140611500Y-46482000D03*
X148161500Y-46732000D03*
X140611500Y-46982000D03*
X148161500Y-47232000D03*
X140611500Y-47482000D03*
X148161500Y-47732000D03*
X140611500Y-47982000D03*
X148161500Y-48232000D03*
X140611500Y-48482000D03*
X148161500Y-48732000D03*
X140611500Y-48982000D03*
X148161500Y-49232000D03*
X140611500Y-49482000D03*
X148161500Y-49732000D03*
X140611500Y-49982000D03*
X148161500Y-50232000D03*
X140611500Y-50482000D03*
X148161500Y-50732000D03*
X140611500Y-50982000D03*
X148161500Y-51232000D03*
X140611500Y-51482000D03*
X148161500Y-53732000D03*
X140611500Y-53982000D03*
X148161500Y-54232000D03*
X140611500Y-54482000D03*
X148161500Y-54732000D03*
X140611500Y-54982000D03*
X148161500Y-55232000D03*
X140611500Y-55482000D03*
X148161500Y-55732000D03*
D23*
X64636500Y-46482000D03*
D24*
X147386500Y-36132000D03*
X147386500Y-56832000D03*
%TD*%
D11*
%TO.C,R22*%
X264382000Y-65048300D03*
X264382000Y-65863300D03*
%TD*%
D10*
%TO.C,R12*%
X39886500Y-69469000D03*
X39071500Y-69469000D03*
%TD*%
D25*
%TO.C,C9*%
X162274000Y-33252500D03*
X162274000Y-35327500D03*
%TD*%
D26*
%TO.C,C43*%
X140832500Y-32385000D03*
X138757500Y-32385000D03*
%TD*%
D10*
%TO.C,R8*%
X42539500Y-40894000D03*
X41724500Y-40894000D03*
%TD*%
%TO.C,R6*%
X42539500Y-37592000D03*
X41724500Y-37592000D03*
%TD*%
D27*
%TO.C,J3*%
X189057484Y-39994541D03*
X192137484Y-39994541D03*
X189057484Y-40394541D03*
X192137484Y-40394541D03*
X189057484Y-40794541D03*
X192137484Y-40794541D03*
X189057484Y-41194541D03*
X192137484Y-41194541D03*
X189057484Y-41594541D03*
X192137484Y-41594541D03*
X189057484Y-41994541D03*
X192137484Y-41994541D03*
X189057484Y-42394541D03*
X192137484Y-42394541D03*
X189057484Y-42794541D03*
X192137484Y-42794541D03*
X189057484Y-43194541D03*
X192137484Y-43194541D03*
X189057484Y-43594541D03*
X192137484Y-43594541D03*
X189057484Y-43994541D03*
X192137484Y-43994541D03*
X189057484Y-44394541D03*
X192137484Y-44394541D03*
X189057484Y-44794541D03*
X192137484Y-44794541D03*
X189057484Y-45194541D03*
X192137484Y-45194541D03*
X189057484Y-45594541D03*
X192137484Y-45594541D03*
X189057484Y-45994541D03*
X192137484Y-45994541D03*
X189057484Y-46394541D03*
X192137484Y-46394541D03*
X189057484Y-46794541D03*
X192137484Y-46794541D03*
X189057484Y-47194541D03*
X192137484Y-47194541D03*
X189057484Y-47594541D03*
X192137484Y-47594541D03*
X189057484Y-47994541D03*
X192137484Y-47994541D03*
X189057484Y-48394541D03*
X192137484Y-48394541D03*
X189057484Y-48794541D03*
X192137484Y-48794541D03*
X189057484Y-49194541D03*
X192137484Y-49194541D03*
X189057484Y-49594541D03*
X192137484Y-49594541D03*
X189057484Y-49994541D03*
X192137484Y-49994541D03*
X189057484Y-50394541D03*
X192137484Y-50394541D03*
X189057484Y-50794541D03*
X192137484Y-50794541D03*
X189057484Y-51194541D03*
X192137484Y-51194541D03*
X189057484Y-51594541D03*
X192137484Y-51594541D03*
X189057484Y-51994541D03*
X192137484Y-51994541D03*
X189057484Y-52394541D03*
X192137484Y-52394541D03*
X189057484Y-52794541D03*
X192137484Y-52794541D03*
X189057484Y-53194541D03*
X192137484Y-53194541D03*
X189057484Y-53594541D03*
X192137484Y-53594541D03*
X189057484Y-53994541D03*
X192137484Y-53994541D03*
X189057484Y-54394541D03*
X192137484Y-54394541D03*
X189057484Y-54794541D03*
X192137484Y-54794541D03*
X189057484Y-55194541D03*
X192137484Y-55194541D03*
X189057484Y-55594541D03*
X192137484Y-55594541D03*
X189057484Y-55994541D03*
X192137484Y-55994541D03*
X189057484Y-56394541D03*
X192137484Y-56394541D03*
X189057484Y-56794541D03*
X192137484Y-56794541D03*
X189057484Y-57194541D03*
X192137484Y-57194541D03*
X189057484Y-57594541D03*
X192137484Y-57594541D03*
X189057484Y-57994541D03*
X192137484Y-57994541D03*
X189057484Y-58394541D03*
X192137484Y-58394541D03*
X189057484Y-58794541D03*
X192137484Y-58794541D03*
X189057484Y-59194541D03*
X192137484Y-59194541D03*
X189057484Y-59594541D03*
X192137484Y-59594541D03*
%TD*%
D17*
%TO.C,D17*%
X45180000Y-44122500D03*
X45180000Y-44822500D03*
%TD*%
D16*
%TO.C,C10*%
X152087500Y-49530000D03*
X152902500Y-49530000D03*
%TD*%
D13*
%TO.C,R26*%
X262604000Y-68911300D03*
X262604000Y-68096300D03*
%TD*%
D25*
%TO.C,C20*%
X261372000Y-59339000D03*
X261372000Y-61414000D03*
%TD*%
D28*
%TO.C,NC/SIP1X3*%
X40354000Y-64506875D03*
X38604000Y-65506875D03*
X40354000Y-66506875D03*
%TD*%
D13*
%TO.C,R21*%
X260826000Y-65863300D03*
X260826000Y-65048300D03*
%TD*%
D10*
%TO.C,R10*%
X52713500Y-39192275D03*
X51898500Y-39192275D03*
%TD*%
D25*
%TO.C,C18*%
X253460000Y-59339000D03*
X253460000Y-61414000D03*
%TD*%
%TO.C,C19*%
X263874000Y-59339000D03*
X263874000Y-61414000D03*
%TD*%
D29*
%TO.C,D10*%
X50133000Y-39192275D03*
X48383000Y-39192275D03*
%TD*%
D12*
%TO.C,H3*%
X191673230Y-33294828D03*
%TD*%
D13*
%TO.C,C3*%
X46704000Y-49556500D03*
X46704000Y-48741500D03*
%TD*%
D26*
%TO.C,C40*%
X140832500Y-60452000D03*
X138757500Y-60452000D03*
%TD*%
D15*
%TO.C,SW2*%
X38103999Y-43375001D03*
X42604001Y-43375001D03*
X38103999Y-45524999D03*
X42604001Y-45524999D03*
%TD*%
D13*
%TO.C,C6*%
X46704000Y-44857500D03*
X46704000Y-44042500D03*
%TD*%
D16*
%TO.C,C16*%
X256608500Y-63881000D03*
X257423500Y-63881000D03*
%TD*%
D30*
%TO.C,C14*%
X162274000Y-42312500D03*
X162274000Y-40237500D03*
%TD*%
D17*
%TO.C,D2*%
X45180000Y-58197000D03*
X45180000Y-58897000D03*
%TD*%
D10*
%TO.C,R1*%
X52713500Y-32588275D03*
X51898500Y-32588275D03*
%TD*%
%TO.C,R11*%
X39886500Y-68199000D03*
X39071500Y-68199000D03*
%TD*%
D11*
%TO.C,R144*%
X47974000Y-53440500D03*
X47974000Y-54255500D03*
%TD*%
D25*
%TO.C,C13*%
X169894000Y-33252500D03*
X169894000Y-35327500D03*
%TD*%
D31*
%TO.C,U4*%
X165134000Y-42625000D03*
X166084000Y-42625000D03*
X167034000Y-42625000D03*
X167034000Y-39925000D03*
X166084000Y-39925000D03*
X165134000Y-39925000D03*
%TD*%
D29*
%TO.C,D3*%
X50133000Y-35890275D03*
X48383000Y-35890275D03*
%TD*%
D15*
%TO.C,SW1*%
X38103999Y-52773001D03*
X42604001Y-52773001D03*
X38103999Y-54922999D03*
X42604001Y-54922999D03*
%TD*%
D12*
%TO.C,H4*%
X239674150Y-33294828D03*
%TD*%
D11*
%TO.C,R20*%
X172688000Y-39343500D03*
X172688000Y-40158500D03*
%TD*%
%TO.C,C8*%
X172688000Y-42391500D03*
X172688000Y-43206500D03*
%TD*%
D15*
%TO.C,SW3*%
X38103999Y-48074001D03*
X42604001Y-48074001D03*
X38103999Y-50223999D03*
X42604001Y-50223999D03*
%TD*%
D29*
%TO.C,D7*%
X39959000Y-37592000D03*
X38209000Y-37592000D03*
%TD*%
D12*
%TO.C,H1*%
X239674150Y-66294508D03*
%TD*%
D11*
%TO.C,R25*%
X145764000Y-59917500D03*
X145764000Y-60732500D03*
%TD*%
D32*
%TO.C,J4*%
X277209000Y-65832000D03*
X277209000Y-64832000D03*
X277209000Y-63832000D03*
X277209000Y-62832000D03*
X277209000Y-61832000D03*
X277209000Y-60832000D03*
X277209000Y-59832000D03*
X277209000Y-58832000D03*
X277209000Y-57832000D03*
X277209000Y-56832000D03*
X277209000Y-55832000D03*
X277209000Y-52832000D03*
X277209000Y-51832000D03*
X277209000Y-50832000D03*
X277209000Y-49832000D03*
X277209000Y-48832000D03*
X277209000Y-47832000D03*
X277209000Y-46832000D03*
X277209000Y-45832000D03*
X277209000Y-44832000D03*
X277209000Y-43832000D03*
X277209000Y-42832000D03*
X277209000Y-41832000D03*
X277209000Y-40832000D03*
X277209000Y-39832000D03*
X277209000Y-38832000D03*
X277209000Y-37832000D03*
X277209000Y-36832000D03*
X277209000Y-35832000D03*
X277209000Y-34832000D03*
D33*
X276659000Y-33832000D03*
D32*
X277209000Y-32832000D03*
%TD*%
D11*
%TO.C,R24*%
X144674000Y-59917500D03*
X144674000Y-60732500D03*
%TD*%
D13*
%TO.C,C27*%
X46704000Y-54255500D03*
X46704000Y-53440500D03*
%TD*%
D29*
%TO.C,D11*%
X39959000Y-30988000D03*
X38209000Y-30988000D03*
%TD*%
%TO.C,D1*%
X50133000Y-32588275D03*
X48383000Y-32588275D03*
%TD*%
D11*
%TO.C,R23*%
X143605000Y-59917500D03*
X143605000Y-60732500D03*
%TD*%
%TO.C,R139*%
X47974000Y-48741500D03*
X47974000Y-49556500D03*
%TD*%
D34*
%TO.C,U2*%
X266349000Y-54464000D03*
X266349000Y-55264000D03*
X267749000Y-55264000D03*
X267749000Y-54464000D03*
%TD*%
D19*
%TO.C,J1*%
X208433985Y-68082722D03*
X208433985Y-65002722D03*
X208833985Y-68082722D03*
X208833985Y-65002722D03*
X209233985Y-68082722D03*
X209233985Y-65002722D03*
X209633985Y-68082722D03*
X209633985Y-65002722D03*
X210033985Y-68082722D03*
X210033985Y-65002722D03*
X210433985Y-68082722D03*
X210433985Y-65002722D03*
X210833985Y-68082722D03*
X210833985Y-65002722D03*
X211233985Y-68082722D03*
X211233985Y-65002722D03*
X211633985Y-68082722D03*
X211633985Y-65002722D03*
X212033985Y-68082722D03*
X212033985Y-65002722D03*
X212433985Y-68082722D03*
X212433985Y-65002722D03*
X212833985Y-68082722D03*
X212833985Y-65002722D03*
X213233985Y-68082722D03*
X213233985Y-65002722D03*
X213633985Y-68082722D03*
X213633985Y-65002722D03*
X214033985Y-68082722D03*
X214033985Y-65002722D03*
X214433985Y-68082722D03*
X214433985Y-65002722D03*
X214833985Y-68082722D03*
X214833985Y-65002722D03*
X215233985Y-68082722D03*
X215233985Y-65002722D03*
X215633985Y-68082722D03*
X215633985Y-65002722D03*
X216033985Y-68082722D03*
X216033985Y-65002722D03*
X216433985Y-68082722D03*
X216433985Y-65002722D03*
X216833985Y-68082722D03*
X216833985Y-65002722D03*
X217233985Y-68082722D03*
X217233985Y-65002722D03*
X217633985Y-68082722D03*
X217633985Y-65002722D03*
X218033985Y-68082722D03*
X218033985Y-65002722D03*
X218433985Y-68082722D03*
X218433985Y-65002722D03*
X218833985Y-68082722D03*
X218833985Y-65002722D03*
X219233985Y-68082722D03*
X219233985Y-65002722D03*
X219633985Y-68082722D03*
X219633985Y-65002722D03*
X220033985Y-68082722D03*
X220033985Y-65002722D03*
X220433985Y-68082722D03*
X220433985Y-65002722D03*
X220833985Y-68082722D03*
X220833985Y-65002722D03*
X221233985Y-68082722D03*
X221233985Y-65002722D03*
X221633985Y-68082722D03*
X221633985Y-65002722D03*
X222033985Y-68082722D03*
X222033985Y-65002722D03*
X222433985Y-68082722D03*
X222433985Y-65002722D03*
X222833985Y-68082722D03*
X222833985Y-65002722D03*
X223233985Y-68082722D03*
X223233985Y-65002722D03*
X223633985Y-68082722D03*
X223633985Y-65002722D03*
X224033985Y-68082722D03*
X224033985Y-65002722D03*
X224433985Y-68082722D03*
X224433985Y-65002722D03*
X224833985Y-68082722D03*
X224833985Y-65002722D03*
X225233985Y-68082722D03*
X225233985Y-65002722D03*
X225633985Y-68082722D03*
X225633985Y-65002722D03*
X226033985Y-68082722D03*
X226033985Y-65002722D03*
X226433985Y-68082722D03*
X226433985Y-65002722D03*
X226833985Y-68082722D03*
X226833985Y-65002722D03*
X227233985Y-68082722D03*
X227233985Y-65002722D03*
X227633985Y-68082722D03*
X227633985Y-65002722D03*
X228033985Y-68082722D03*
X228033985Y-65002722D03*
%TD*%
D11*
%TO.C,R5*%
X168624000Y-42391500D03*
X168624000Y-43206500D03*
%TD*%
D29*
%TO.C,D8*%
X39959000Y-34290000D03*
X38209000Y-34290000D03*
%TD*%
D11*
%TO.C,CC3*%
X170656000Y-39343500D03*
X170656000Y-40158500D03*
%TD*%
D35*
%TO.C,U1*%
X48039000Y-67964000D03*
X48039000Y-67164000D03*
X46639000Y-67164000D03*
X46639000Y-67964000D03*
%TD*%
D11*
%TO.C,CC7*%
X251174000Y-59969000D03*
X251174000Y-60784000D03*
%TD*%
D25*
%TO.C,C12*%
X172434000Y-33252500D03*
X172434000Y-35327500D03*
%TD*%
D17*
%TO.C,D4*%
X45180000Y-53498000D03*
X45180000Y-54198000D03*
%TD*%
%TO.C,D33*%
X45180000Y-48799000D03*
X45180000Y-49499000D03*
%TD*%
D29*
%TO.C,D9*%
X39959000Y-40894000D03*
X38209000Y-40894000D03*
%TD*%
D11*
%TO.C,R27*%
X260826000Y-68096300D03*
X260826000Y-68911300D03*
%TD*%
D30*
%TO.C,C15*%
X253460000Y-68017300D03*
X253460000Y-65942300D03*
%TD*%
D31*
%TO.C,U5*%
X256574000Y-68329800D03*
X257524000Y-68329800D03*
X258474000Y-68329800D03*
X258474000Y-65629800D03*
X257524000Y-65629800D03*
X256574000Y-65629800D03*
%TD*%
D13*
%TO.C,R18*%
X168624000Y-40158500D03*
X168624000Y-39343500D03*
%TD*%
D16*
%TO.C,C7*%
X165168500Y-37973000D03*
X165983500Y-37973000D03*
%TD*%
D18*
%TO.C,L2*%
X257524000Y-61722700D03*
X257524000Y-59030300D03*
%TD*%
M02*
